<svg id="Layer_1" data-name="Layer 1" xmlns="http://www.w3.org/2000/svg" viewBox="0 0 566.9 566.9"><defs><style>.cls-1{fill:#1b1464;}.cls-2{fill:#fcb065;}.cls-3{fill:#c1272d;}.cls-4{fill:#00a99d;}.cls-5{fill:#999;}.cls-6{fill:#f15a24;}.cls-7{fill:#d4145a;}</style></defs><title>colorvariations</title><path class="cls-1" d="M334.41,334.84v-43a0.06,0.06,0,0,0-.06-0.06h-23.8a0.06,0.06,0,0,0-.06.06V351l-0.16.05a71.21,71.21,0,0,1-14.85,4.2,0.06,0.06,0,0,1-.07-0.06V312.08a0.06,0.06,0,0,0-.06-0.06h-23.8a0.06,0.06,0,0,0-.06.06v44.08a0.06,0.06,0,0,1-.06.06h-15a0.06,0.06,0,0,1-.06-0.06V324a0.06,0.06,0,0,0-.06-0.06h-23.8a0.06,0.06,0,0,0-.06.06v32.12a0.06,0.06,0,0,1-.06.06H211.75a0.06,0.06,0,0,1-.06-0.06V212.77a0.06,0.06,0,0,1,.06-0.06h70.86c40.94,0,74.22,33.87,72.53,74.77a71.51,71.51,0,0,1-20.64,47.39A0.06,0.06,0,0,1,334.41,334.84Z"/><path class="cls-2" d="M334.41,150.77v-43a0.06,0.06,0,0,0-.06-0.06h-23.8a0.06,0.06,0,0,0-.06.06v59.15l-0.16.05a71.21,71.21,0,0,1-14.85,4.2,0.06,0.06,0,0,1-.07-0.06V128a0.06,0.06,0,0,0-.06-0.06h-23.8a0.06,0.06,0,0,0-.06.06V172.1a0.06,0.06,0,0,1-.06.06h-15a0.06,0.06,0,0,1-.06-0.06V140a0.06,0.06,0,0,0-.06-0.06h-23.8a0.06,0.06,0,0,0-.06.06V172.1a0.06,0.06,0,0,1-.06.06H211.75a0.06,0.06,0,0,1-.06-0.06V28.71a0.06,0.06,0,0,1,.06-0.06h70.86c40.94,0,74.22,33.87,72.53,74.77a71.51,71.51,0,0,1-20.64,47.39A0.06,0.06,0,0,1,334.41,150.77Z"/><path class="cls-3" d="M515.22,334.84v-43a0.06,0.06,0,0,0-.06-0.06h-23.8a0.06,0.06,0,0,0-.06.06V351l-0.16.05a71.21,71.21,0,0,1-14.85,4.2,0.06,0.06,0,0,1-.07-0.06V312.08a0.06,0.06,0,0,0-.06-0.06h-23.8a0.06,0.06,0,0,0-.06.06v44.08a0.06,0.06,0,0,1-.06.06h-15a0.06,0.06,0,0,1-.06-0.06V324a0.06,0.06,0,0,0-.06-0.06h-23.8a0.06,0.06,0,0,0-.06.06v32.12a0.06,0.06,0,0,1-.06.06H392.57a0.06,0.06,0,0,1-.06-0.06V212.77a0.06,0.06,0,0,1,.06-0.06h70.86c40.94,0,74.22,33.87,72.53,74.77a71.51,71.51,0,0,1-20.64,47.39A0.06,0.06,0,0,1,515.22,334.84Z"/><path class="cls-4" d="M153.59,334.84v-43a0.06,0.06,0,0,0-.06-0.06h-23.8a0.06,0.06,0,0,0-.06.06V351l-0.16.05a71.21,71.21,0,0,1-14.85,4.2,0.06,0.06,0,0,1-.07-0.06V312.08a0.06,0.06,0,0,0-.06-0.06H90.74a0.06,0.06,0,0,0-.06.06v44.08a0.06,0.06,0,0,1-.06.06h-15a0.06,0.06,0,0,1-.06-0.06V324a0.06,0.06,0,0,0-.06-0.06H51.74a0.06,0.06,0,0,0-.06.06v32.12a0.06,0.06,0,0,1-.06.06H30.94a0.06,0.06,0,0,1-.06-0.06V212.77a0.06,0.06,0,0,1,.06-0.06H101.8c40.94,0,74.22,33.87,72.53,74.77a71.51,71.51,0,0,1-20.64,47.39A0.06,0.06,0,0,1,153.59,334.84Z"/><path class="cls-5" d="M334.41,517V474a0.06,0.06,0,0,0-.06-0.06h-23.8a0.06,0.06,0,0,0-.06.06V533.1l-0.16.05a71.21,71.21,0,0,1-14.85,4.2,0.06,0.06,0,0,1-.07-0.06V494.23a0.06,0.06,0,0,0-.06-0.06h-23.8a0.06,0.06,0,0,0-.06.06v44.08a0.06,0.06,0,0,1-.06.06h-15a0.06,0.06,0,0,1-.06-0.06V506.19a0.06,0.06,0,0,0-.06-0.06h-23.8a0.06,0.06,0,0,0-.06.06v32.12a0.06,0.06,0,0,1-.06.06H211.75a0.06,0.06,0,0,1-.06-0.06V394.92a0.06,0.06,0,0,1,.06-0.06h70.86c40.94,0,74.22,33.87,72.53,74.77A71.51,71.51,0,0,1,334.51,517,0.06,0.06,0,0,1,334.41,517Z"/><path class="cls-6" d="M515.22,517V474a0.06,0.06,0,0,0-.06-0.06h-23.8a0.06,0.06,0,0,0-.06.06V533.1l-0.16.05a71.21,71.21,0,0,1-14.85,4.2,0.06,0.06,0,0,1-.07-0.06V494.23a0.06,0.06,0,0,0-.06-0.06h-23.8a0.06,0.06,0,0,0-.06.06v44.08a0.06,0.06,0,0,1-.06.06h-15a0.06,0.06,0,0,1-.06-0.06V506.19a0.06,0.06,0,0,0-.06-0.06h-23.8a0.06,0.06,0,0,0-.06.06v32.12a0.06,0.06,0,0,1-.06.06H392.57a0.06,0.06,0,0,1-.06-0.06V394.92a0.06,0.06,0,0,1,.06-0.06h70.86c40.94,0,74.22,33.87,72.53,74.77A71.51,71.51,0,0,1,515.32,517,0.06,0.06,0,0,1,515.22,517Z"/><path class="cls-7" d="M153.59,517V474a0.06,0.06,0,0,0-.06-0.06h-23.8a0.06,0.06,0,0,0-.06.06V533.1l-0.16.05a71.21,71.21,0,0,1-14.85,4.2,0.06,0.06,0,0,1-.07-0.06V494.23a0.06,0.06,0,0,0-.06-0.06H90.74a0.06,0.06,0,0,0-.06.06v44.08a0.06,0.06,0,0,1-.06.06h-15a0.06,0.06,0,0,1-.06-0.06V506.19a0.06,0.06,0,0,0-.06-0.06H51.74a0.06,0.06,0,0,0-.06.06v32.12a0.06,0.06,0,0,1-.06.06H30.94a0.06,0.06,0,0,1-.06-0.06V394.92a0.06,0.06,0,0,1,.06-0.06H101.8c40.94,0,74.22,33.87,72.53,74.77A71.51,71.51,0,0,1,153.69,517,0.06,0.06,0,0,1,153.59,517Z"/></svg>