<svg id="Layer_1" data-name="Layer 1" xmlns="http://www.w3.org/2000/svg" viewBox="0 0 160 124.57"><defs><style>.cls-1{fill:#1f88e6;}</style></defs><title>160 x 160 px_2</title><path d="M20,91.35V83.13h2.53a4,4,0,0,1,1.52.28,3.44,3.44,0,0,1,1.19.8,3.67,3.67,0,0,1,.77,1.24,4.45,4.45,0,0,1,.28,1.6v0.37a4.47,4.47,0,0,1-.27,1.6,3.58,3.58,0,0,1-.77,1.24,3.44,3.44,0,0,1-1.19.8,4,4,0,0,1-1.53.28H20Zm1.69-6.85V90h0.82a1.83,1.83,0,0,0,1.53-.66,3,3,0,0,0,.52-1.89V87a3,3,0,0,0-.52-1.9,1.83,1.83,0,0,0-1.52-.65H21.74Z"/><path d="M27.2,88.24A3.85,3.85,0,0,1,27.39,87a2.83,2.83,0,0,1,.56-1,2.57,2.57,0,0,1,.91-0.65,3,3,0,0,1,1.23-.24,3.05,3.05,0,0,1,1.24.24,2.59,2.59,0,0,1,.91.65,2.8,2.8,0,0,1,.56,1A3.85,3.85,0,0,1,33,88.24v0.12a3.85,3.85,0,0,1-.19,1.24,2.81,2.81,0,0,1-.56,1,2.58,2.58,0,0,1-.91.65,3.35,3.35,0,0,1-2.46,0,2.57,2.57,0,0,1-.91-0.65,2.81,2.81,0,0,1-.56-1,3.85,3.85,0,0,1-.19-1.24V88.24Zm1.63,0.12a3.44,3.44,0,0,0,.07.7,1.71,1.71,0,0,0,.22.57,1.13,1.13,0,0,0,.39.38,1.15,1.15,0,0,0,.59.14A1.13,1.13,0,0,0,30.67,90a1.16,1.16,0,0,0,.39-0.38,1.67,1.67,0,0,0,.22-0.57,3.48,3.48,0,0,0,.07-0.7V88.24a3.36,3.36,0,0,0-.07-0.69A1.74,1.74,0,0,0,31.06,87a1.15,1.15,0,0,0-.4-0.39,1.13,1.13,0,0,0-.59-0.14,1.11,1.11,0,0,0-.58.14,1.13,1.13,0,0,0-.39.39,1.78,1.78,0,0,0-.22.57,3.32,3.32,0,0,0-.07.69v0.12Z"/><path d="M35.51,85.24l0.05,0.68a2.18,2.18,0,0,1,.74-0.58,2.31,2.31,0,0,1,1-.21,2.06,2.06,0,0,1,1,.22,1.48,1.48,0,0,1,.65.71,2.16,2.16,0,0,1,.75-0.68,2.22,2.22,0,0,1,1.08-.25,2.49,2.49,0,0,1,.81.13,1.48,1.48,0,0,1,.62.4,1.85,1.85,0,0,1,.4.72,3.7,3.7,0,0,1,.14,1.09v3.89H41.1V87.46A1.64,1.64,0,0,0,41,87a0.71,0.71,0,0,0-.18-0.31,0.65,0.65,0,0,0-.29-0.15,1.58,1.58,0,0,0-.38,0,1,1,0,0,0-.63.19,1.17,1.17,0,0,0-.38.51s0,0,0,.06,0,0,0,.06v4.07H37.54V87.47a1.71,1.71,0,0,0-.06-0.5,0.72,0.72,0,0,0-.18-0.31A0.66,0.66,0,0,0,37,86.5a1.52,1.52,0,0,0-.39,0,1.15,1.15,0,0,0-.61.15,1.1,1.1,0,0,0-.4.42v4.32H34V85.24h1.53Z"/><path d="M44,83.66a0.8,0.8,0,0,1,.25-0.6,0.92,0.92,0,0,1,.67-0.24,1.1,1.1,0,0,1,.38.06,0.83,0.83,0,0,1,.29.17,0.79,0.79,0,0,1,.18.27,0.91,0.91,0,0,1,0,.68,0.79,0.79,0,0,1-.18.27,0.82,0.82,0,0,1-.29.17,1.18,1.18,0,0,1-.76,0,0.82,0.82,0,0,1-.29-0.17A0.78,0.78,0,0,1,44,84,0.87,0.87,0,0,1,44,83.66Zm1.73,7.69H44.08V85.24h1.64v6.11Z"/><path d="M48.56,85.24l0.05,0.71a2.16,2.16,0,0,1,.76-0.61,2.29,2.29,0,0,1,1-.21,2.43,2.43,0,0,1,.79.12,1.45,1.45,0,0,1,.61.4,1.88,1.88,0,0,1,.39.72,3.73,3.73,0,0,1,.14,1.09v3.88H50.66V87.45A1.55,1.55,0,0,0,50.6,87a0.67,0.67,0,0,0-.49-0.46,1.62,1.62,0,0,0-.42,0,1.17,1.17,0,0,0-.62.16,1.22,1.22,0,0,0-.41.43v4.31H47V85.24h1.53Z"/><path d="M53.52,83.66a0.8,0.8,0,0,1,.25-0.6,0.92,0.92,0,0,1,.67-0.24,1.1,1.1,0,0,1,.38.06,0.83,0.83,0,0,1,.29.17,0.79,0.79,0,0,1,.18.27,0.91,0.91,0,0,1,0,.68,0.79,0.79,0,0,1-.18.27,0.82,0.82,0,0,1-.29.17,1.18,1.18,0,0,1-.76,0,0.82,0.82,0,0,1-.29-0.17A0.78,0.78,0,0,1,53.58,84,0.87,0.87,0,0,1,53.52,83.66Zm1.73,7.69H53.61V85.24h1.64v6.11Z"/><path d="M59.13,90.14a1.25,1.25,0,0,0,.41-0.06,1,1,0,0,0,.32-0.18,0.83,0.83,0,0,0,.21-0.29,1,1,0,0,0,.08-0.37h1.53a2.09,2.09,0,0,1-.2.89,2.2,2.2,0,0,1-.54.71,2.45,2.45,0,0,1-.8.46,2.93,2.93,0,0,1-1,.16,3,3,0,0,1-1.24-.24A2.46,2.46,0,0,1,57,90.57a2.78,2.78,0,0,1-.52-1,4.05,4.05,0,0,1-.17-1.21V88.22A4.07,4.07,0,0,1,56.51,87,2.8,2.8,0,0,1,57,86a2.45,2.45,0,0,1,.88-0.66,3,3,0,0,1,1.23-.24,3,3,0,0,1,1,.17,2.29,2.29,0,0,1,.8.48,2.16,2.16,0,0,1,.52.75,2.6,2.6,0,0,1,.19,1H60.16a1.32,1.32,0,0,0-.08-0.42,1,1,0,0,0-.2-0.34,0.94,0.94,0,0,0-.32-0.23,1.1,1.1,0,0,0-.44-0.08,1,1,0,0,0-.58.15,1,1,0,0,0-.35.39,1.75,1.75,0,0,0-.17.57,4.77,4.77,0,0,0,0,.67v0.16a4.81,4.81,0,0,0,0,.67,1.72,1.72,0,0,0,.17.56,1,1,0,0,0,.35.39A1.09,1.09,0,0,0,59.13,90.14Z"/><path d="M66.16,91.35A1.8,1.8,0,0,1,66,90.8a2.13,2.13,0,0,1-.62.47,2,2,0,0,1-.92.19,2.44,2.44,0,0,1-.82-0.14A2.06,2.06,0,0,1,63,90.95a1.73,1.73,0,0,1-.44-0.58,1.7,1.7,0,0,1-.16-0.74,2,2,0,0,1,.18-0.85,1.67,1.67,0,0,1,.53-0.63A2.56,2.56,0,0,1,64,87.75a4.94,4.94,0,0,1,1.23-.14h0.73V87.27a1,1,0,0,0-.22-0.68A0.86,0.86,0,0,0,65,86.34a1,1,0,0,0-.65.2,0.67,0.67,0,0,0-.23.54H62.51a1.62,1.62,0,0,1,.18-0.75,1.88,1.88,0,0,1,.52-0.62A2.62,2.62,0,0,1,64,85.28a3.47,3.47,0,0,1,1.07-.16,3.42,3.42,0,0,1,1,.14,2.23,2.23,0,0,1,.78.4,1.84,1.84,0,0,1,.51.67,2.25,2.25,0,0,1,.18.94v2.58q0,0.26,0,.47c0,0.14,0,.26,0,0.37a2,2,0,0,0,.07.3,1.8,1.8,0,0,0,.11.25v0.1H66.16Zm-1.35-1.13A1.41,1.41,0,0,0,65.52,90a1.15,1.15,0,0,0,.25-0.19,1,1,0,0,0,.17-0.22v-1H65.26a2,2,0,0,0-.56.07,1.08,1.08,0,0,0-.39.2,0.79,0.79,0,0,0-.23.3,0.94,0.94,0,0,0-.07.38,0.65,0.65,0,0,0,.21.5A0.83,0.83,0,0,0,64.81,90.21Z"/><path d="M70.32,85.24l0.05,0.71a2.16,2.16,0,0,1,.76-0.61,2.29,2.29,0,0,1,1-.21,2.43,2.43,0,0,1,.79.12,1.45,1.45,0,0,1,.61.4,1.88,1.88,0,0,1,.39.72,3.73,3.73,0,0,1,.14,1.09v3.88H72.42V87.45A1.55,1.55,0,0,0,72.36,87a0.67,0.67,0,0,0-.49-0.46,1.62,1.62,0,0,0-.42,0,1.17,1.17,0,0,0-.62.16,1.22,1.22,0,0,0-.41.43v4.31H68.78V85.24h1.53Z"/><path d="M85,87.43a5.24,5.24,0,0,1-.25,1.69,3.66,3.66,0,0,1-.71,1.27,3.12,3.12,0,0,1-1.1.8,3.73,3.73,0,0,1-2.83,0,3.18,3.18,0,0,1-1.11-.8,3.67,3.67,0,0,1-.73-1.27A5.12,5.12,0,0,1,78,87.43V87.06a5.19,5.19,0,0,1,.26-1.69A3.71,3.71,0,0,1,79,84.1a3.1,3.1,0,0,1,1.11-.8,3.73,3.73,0,0,1,2.83,0,3.1,3.1,0,0,1,1.11.8,3.71,3.71,0,0,1,.72,1.28A5.2,5.2,0,0,1,85,87.06v0.36Zm-1.72-.37a3.46,3.46,0,0,0-.46-2,1.63,1.63,0,0,0-2.64,0,3.46,3.46,0,0,0-.46,2v0.37a4.78,4.78,0,0,0,.12,1.14,2.56,2.56,0,0,0,.35.83,1.52,1.52,0,0,0,.56.51,1.64,1.64,0,0,0,.76.17,1.49,1.49,0,0,0,1.32-.68,3.52,3.52,0,0,0,.46-2V87.05Z"/><path d="M91.65,88.35a4.69,4.69,0,0,1-.16,1.24,3,3,0,0,1-.45,1,2.15,2.15,0,0,1-.74.65,2.12,2.12,0,0,1-1,.24,2,2,0,0,1-.85-0.17,1.9,1.9,0,0,1-.64-0.47v2.88H86.15V85.24h1.51l0.06,0.6a2,2,0,0,1,.66-0.53,2,2,0,0,1,.89-0.19,2.27,2.27,0,0,1,1,.22A2,2,0,0,1,91,86a3,3,0,0,1,.45,1,4.83,4.83,0,0,1,.16,1.27v0.12ZM90,88.23a3.62,3.62,0,0,0-.06-0.7A1.82,1.82,0,0,0,89.74,87a1.07,1.07,0,0,0-.36-0.38,1,1,0,0,0-.54-0.13,1.29,1.29,0,0,0-.66.15,1,1,0,0,0-.4.44v2.5a1.08,1.08,0,0,0,.4.44,1.24,1.24,0,0,0,.67.16A1,1,0,0,0,89.39,90a1.07,1.07,0,0,0,.36-0.39A1.87,1.87,0,0,0,90,89,3.75,3.75,0,0,0,90,88.35V88.23Z"/><path d="M95.47,91.46a3.32,3.32,0,0,1-1.27-.23,2.81,2.81,0,0,1-1-.63,2.71,2.71,0,0,1-.6-0.94,3.2,3.2,0,0,1-.21-1.15V88.28a3.86,3.86,0,0,1,.2-1.27,2.94,2.94,0,0,1,.57-1,2.58,2.58,0,0,1,.9-0.65,2.88,2.88,0,0,1,1.18-.23,2.91,2.91,0,0,1,1.16.22,2.32,2.32,0,0,1,.84.61,2.61,2.61,0,0,1,.51.95A4.15,4.15,0,0,1,98,88.13v0.69H94.09a1.7,1.7,0,0,0,.16.54,1.41,1.41,0,0,0,.31.41A1.36,1.36,0,0,0,95,90a1.61,1.61,0,0,0,.57.1A2,2,0,0,0,96.4,90,1.67,1.67,0,0,0,97,89.46l0.8,0.9a2.45,2.45,0,0,1-.37.41,2.51,2.51,0,0,1-.52.35,3,3,0,0,1-.67.25A3.38,3.38,0,0,1,95.47,91.46Zm-0.19-5a1.1,1.1,0,0,0-.47.09,1,1,0,0,0-.34.26,1.35,1.35,0,0,0-.23.4,2.27,2.27,0,0,0-.13.51h2.27V87.58a1.67,1.67,0,0,0-.07-0.45,1,1,0,0,0-.2-0.36,0.89,0.89,0,0,0-.34-0.24A1.3,1.3,0,0,0,95.28,86.45Z"/><path d="M100.41,85.24l0.05,0.71a2.15,2.15,0,0,1,.76-0.61,2.29,2.29,0,0,1,1-.21,2.43,2.43,0,0,1,.79.12,1.45,1.45,0,0,1,.61.4,1.87,1.87,0,0,1,.39.72,3.75,3.75,0,0,1,.14,1.09v3.88h-1.63V87.45a1.55,1.55,0,0,0-.06-0.49,0.7,0.7,0,0,0-.19-0.3,0.71,0.71,0,0,0-.3-0.16,1.62,1.62,0,0,0-.42,0,1.16,1.16,0,0,0-.62.16,1.21,1.21,0,0,0-.42.43v4.31H98.87V85.24h1.54Z"/><path d="M112.62,89.19a1.14,1.14,0,0,0-.06-0.39,0.74,0.74,0,0,0-.24-0.32,2.23,2.23,0,0,0-.49-0.29,7.89,7.89,0,0,0-.81-0.3,9.91,9.91,0,0,1-1.06-.41,3.91,3.91,0,0,1-.87-0.53,2.39,2.39,0,0,1-.59-0.71,1.94,1.94,0,0,1-.22-0.94,2,2,0,0,1,.22-0.94,2.12,2.12,0,0,1,.63-0.73,3.06,3.06,0,0,1,1-.46A4.23,4.23,0,0,1,111.3,83a3.86,3.86,0,0,1,1.24.19,2.85,2.85,0,0,1,1,.53,2.33,2.33,0,0,1,.61.8,2.39,2.39,0,0,1,.21,1h-1.69a1.37,1.37,0,0,0-.08-0.48,1,1,0,0,0-.25-0.38,1.17,1.17,0,0,0-.42-0.25,1.83,1.83,0,0,0-.6-0.09,2,2,0,0,0-.58.07,1.18,1.18,0,0,0-.41.2,0.85,0.85,0,0,0-.32.68,0.8,0.8,0,0,0,.41.68,4.69,4.69,0,0,0,1.22.51,8.07,8.07,0,0,1,1.18.46,3.52,3.52,0,0,1,.85.58,2.2,2.2,0,0,1,.52.72,2.26,2.26,0,0,1,.17.91,2.12,2.12,0,0,1-.21,1,2,2,0,0,1-.6.71,2.84,2.84,0,0,1-.94.45,4.52,4.52,0,0,1-1.23.16,4.77,4.77,0,0,1-.81-0.07,3.9,3.9,0,0,1-.78-0.22,3.34,3.34,0,0,1-.69-0.37,2.53,2.53,0,0,1-.55-0.52,2.34,2.34,0,0,1-.37-0.68,2.54,2.54,0,0,1-.13-0.84h1.7a1.51,1.51,0,0,0,.12.63,1.07,1.07,0,0,0,.33.42,1.36,1.36,0,0,0,.51.23,2.8,2.8,0,0,0,.67.07,2.05,2.05,0,0,0,.57-0.07,1.17,1.17,0,0,0,.4-0.2,0.77,0.77,0,0,0,.23-0.3A0.89,0.89,0,0,0,112.62,89.19Z"/><path d="M115.11,88.24A3.85,3.85,0,0,1,115.3,87a2.83,2.83,0,0,1,.56-1,2.56,2.56,0,0,1,.91-0.65,3,3,0,0,1,1.23-.24,3.05,3.05,0,0,1,1.24.24,2.58,2.58,0,0,1,.91.65,2.81,2.81,0,0,1,.56,1,3.88,3.88,0,0,1,.19,1.24v0.12a3.87,3.87,0,0,1-.19,1.24,2.82,2.82,0,0,1-.56,1,2.58,2.58,0,0,1-.91.65,3.35,3.35,0,0,1-2.46,0,2.57,2.57,0,0,1-.91-0.65,2.81,2.81,0,0,1-.56-1,3.85,3.85,0,0,1-.19-1.24V88.24Zm1.63,0.12a3.48,3.48,0,0,0,.07.7,1.71,1.71,0,0,0,.22.57,1.13,1.13,0,0,0,.39.38,1.15,1.15,0,0,0,.59.14,1.12,1.12,0,0,0,.58-0.14,1.16,1.16,0,0,0,.39-0.38,1.67,1.67,0,0,0,.22-0.57,3.41,3.41,0,0,0,.07-0.7V88.24a3.29,3.29,0,0,0-.07-0.69A1.74,1.74,0,0,0,119,87a1.15,1.15,0,0,0-.39-0.39,1.13,1.13,0,0,0-.59-0.14,1.11,1.11,0,0,0-.58.14A1.13,1.13,0,0,0,117,87a1.78,1.78,0,0,0-.22.57,3.36,3.36,0,0,0-.07.69v0.12Z"/><path d="M125.55,90.73a2,2,0,0,1-.7.54,2.28,2.28,0,0,1-1,.19,2.56,2.56,0,0,1-.82-0.13,1.62,1.62,0,0,1-.64-0.4,1.83,1.83,0,0,1-.42-0.71,3.24,3.24,0,0,1-.15-1v-4h1.63v4a1.27,1.27,0,0,0,.07.43,0.74,0.74,0,0,0,.18.29,0.69,0.69,0,0,0,.27.16,1.13,1.13,0,0,0,.35.05,1.48,1.48,0,0,0,.72-0.15,1,1,0,0,0,.42-0.42V85.24h1.64v6.11H125.6Z"/><path d="M131.79,86.77l-0.29,0h-0.3a1.62,1.62,0,0,0-.78.16,1,1,0,0,0-.44.46v4h-1.63V85.24h1.54l0,0.73a1.83,1.83,0,0,1,.57-0.62,1.41,1.41,0,0,1,.79-0.22l0.27,0,0.23,0.05Z"/><path d="M135,90.14a1.25,1.25,0,0,0,.41-0.06,1,1,0,0,0,.32-0.18,0.83,0.83,0,0,0,.21-0.29,1,1,0,0,0,.08-0.37h1.53a2.09,2.09,0,0,1-.2.89,2.2,2.2,0,0,1-.54.71,2.45,2.45,0,0,1-.8.46,2.93,2.93,0,0,1-1,.16,3,3,0,0,1-1.24-.24,2.46,2.46,0,0,1-.88-0.65,2.78,2.78,0,0,1-.52-1,4,4,0,0,1-.18-1.21V88.22a4.06,4.06,0,0,1,.18-1.21,2.79,2.79,0,0,1,.52-1,2.45,2.45,0,0,1,.88-0.66,3,3,0,0,1,1.23-.24,3,3,0,0,1,1,.17,2.29,2.29,0,0,1,.8.48,2.17,2.17,0,0,1,.52.75,2.6,2.6,0,0,1,.19,1H136A1.32,1.32,0,0,0,136,87.1a1,1,0,0,0-.2-0.34,1,1,0,0,0-.32-0.23,1.09,1.09,0,0,0-.44-0.08,1.05,1.05,0,0,0-.58.15,1,1,0,0,0-.35.39,1.75,1.75,0,0,0-.17.57,4.77,4.77,0,0,0,0,.67v0.16a4.81,4.81,0,0,0,0,.67,1.72,1.72,0,0,0,.17.56,1,1,0,0,0,.35.39A1.09,1.09,0,0,0,135,90.14Z"/><path d="M141.31,91.46a3.32,3.32,0,0,1-1.27-.23,2.81,2.81,0,0,1-1-.63,2.71,2.71,0,0,1-.6-0.94,3.2,3.2,0,0,1-.21-1.15V88.28a3.86,3.86,0,0,1,.2-1.27,2.94,2.94,0,0,1,.57-1,2.58,2.58,0,0,1,.9-0.65,2.88,2.88,0,0,1,1.18-.23,2.91,2.91,0,0,1,1.16.22,2.32,2.32,0,0,1,.84.61,2.61,2.61,0,0,1,.51.95,4.15,4.15,0,0,1,.17,1.23v0.69h-3.89a1.7,1.7,0,0,0,.16.54,1.41,1.41,0,0,0,.31.41,1.36,1.36,0,0,0,.44.27,1.61,1.61,0,0,0,.57.1,2,2,0,0,0,.82-0.17,1.67,1.67,0,0,0,.65-0.52l0.8,0.9a2.45,2.45,0,0,1-.37.41,2.51,2.51,0,0,1-.52.35,3,3,0,0,1-.67.25A3.38,3.38,0,0,1,141.31,91.46Zm-0.19-5a1.1,1.1,0,0,0-.47.09,1,1,0,0,0-.34.26,1.35,1.35,0,0,0-.23.4,2.27,2.27,0,0,0-.13.51h2.27V87.58a1.67,1.67,0,0,0-.07-0.45,1,1,0,0,0-.2-0.36,0.89,0.89,0,0,0-.34-0.24A1.3,1.3,0,0,0,141.12,86.45Z"/><path d="M8.58,108.31V105H9.5a1.48,1.48,0,0,1,.57.11,1.28,1.28,0,0,1,.45.3,1.4,1.4,0,0,1,.29.47,1.75,1.75,0,0,1,.1.62v0.3a1.75,1.75,0,0,1-.1.62,1.38,1.38,0,0,1-.29.47,1.29,1.29,0,0,1-.45.3,1.53,1.53,0,0,1-.58.11H8.58Zm0.28-3.07v2.83H9.49A1.19,1.19,0,0,0,10,108a1,1,0,0,0,.36-0.26,1.16,1.16,0,0,0,.23-0.4,1.56,1.56,0,0,0,.08-0.51V106.5a1.57,1.57,0,0,0-.08-0.52,1.14,1.14,0,0,0-.23-0.4,1,1,0,0,0-.36-0.25,1.18,1.18,0,0,0-.47-0.09H8.86Z"/><path d="M11.55,105.14A0.18,0.18,0,0,1,11.6,105a0.18,0.18,0,0,1,.14-0.05,0.18,0.18,0,0,1,.14.05,0.18,0.18,0,0,1,.05.13,0.18,0.18,0,0,1-.05.13,0.18,0.18,0,0,1-.14.05A0.18,0.18,0,0,1,11.55,105.14Zm0.32,3.17H11.59v-2.46h0.27v2.46Z"/><path d="M14.08,107.68a0.45,0.45,0,0,0,0-.15,0.36,0.36,0,0,0-.1-0.14,0.76,0.76,0,0,0-.2-0.12,1.67,1.67,0,0,0-.33-0.1l-0.36-.1a1,1,0,0,1-.27-0.14,0.54,0.54,0,0,1-.17-0.19,0.56,0.56,0,0,1-.06-0.26,0.59,0.59,0,0,1,.06-0.26A0.63,0.63,0,0,1,12.8,106a0.86,0.86,0,0,1,.27-0.14,1.14,1.14,0,0,1,.36-0.05,1.22,1.22,0,0,1,.38.06,0.85,0.85,0,0,1,.29.15,0.67,0.67,0,0,1,.18.23,0.7,0.7,0,0,1,.06.29H14.06a0.44,0.44,0,0,0,0-.19,0.47,0.47,0,0,0-.12-0.16,0.64,0.64,0,0,0-.2-0.11,0.78,0.78,0,0,0-.27,0,0.85,0.85,0,0,0-.27,0,0.57,0.57,0,0,0-.18.1,0.37,0.37,0,0,0-.1.14,0.39,0.39,0,0,0,0,.15,0.43,0.43,0,0,0,0,.15,0.3,0.3,0,0,0,.1.13,0.74,0.74,0,0,0,.2.11l0.33,0.1,0.38,0.12a1,1,0,0,1,.27.15,0.56,0.56,0,0,1,.16.2,0.63,0.63,0,0,1,.05.26,0.61,0.61,0,0,1-.06.28,0.62,0.62,0,0,1-.18.22,0.87,0.87,0,0,1-.29.14,1.43,1.43,0,0,1-.79,0,0.94,0.94,0,0,1-.3-0.16,0.69,0.69,0,0,1-.19-0.24,0.65,0.65,0,0,1-.06-0.28h0.27a0.48,0.48,0,0,0,.08.24A0.5,0.5,0,0,0,13,108a0.69,0.69,0,0,0,.22.08l0.24,0a0.92,0.92,0,0,0,.27,0,0.61,0.61,0,0,0,.2-0.1,0.42,0.42,0,0,0,.12-0.14A0.36,0.36,0,0,0,14.08,107.68Z"/><path d="M15.87,108.12a0.81,0.81,0,0,0,.25,0,0.65,0.65,0,0,0,.21-0.11,0.6,0.6,0,0,0,.15-0.18,0.57,0.57,0,0,0,.07-0.25h0.26a0.77,0.77,0,0,1-.09.32,0.84,0.84,0,0,1-.21.25,1,1,0,0,1-.3.17,1.11,1.11,0,0,1-.81,0,0.94,0.94,0,0,1-.33-0.26,1.15,1.15,0,0,1-.2-0.39,1.67,1.67,0,0,1-.07-0.48V107a1.67,1.67,0,0,1,.07-0.48,1.13,1.13,0,0,1,.2-0.39,0.94,0.94,0,0,1,.33-0.26,1,1,0,0,1,.45-0.1,1.07,1.07,0,0,1,.37.06,0.9,0.9,0,0,1,.3.17,0.84,0.84,0,0,1,.2.28,1,1,0,0,1,.08.36H16.55a0.73,0.73,0,0,0-.06-0.27,0.65,0.65,0,0,0-.15-0.2,0.63,0.63,0,0,0-.21-0.13,0.76,0.76,0,0,0-.26,0,0.74,0.74,0,0,0-.36.08,0.69,0.69,0,0,0-.24.22,0.94,0.94,0,0,0-.14.32,1.62,1.62,0,0,0,0,.38v0.09a1.66,1.66,0,0,0,0,.38,1,1,0,0,0,.13.32,0.68,0.68,0,0,0,.24.22A0.74,0.74,0,0,0,15.87,108.12Z"/><path d="M17.21,107a1.51,1.51,0,0,1,.08-0.5,1.17,1.17,0,0,1,.22-0.39,1,1,0,0,1,.35-0.26,1.06,1.06,0,0,1,.45-0.09,1.07,1.07,0,0,1,.46.09,1,1,0,0,1,.35.26,1.15,1.15,0,0,1,.22.39,1.52,1.52,0,0,1,.08.5v0.08a1.52,1.52,0,0,1-.08.5,1.15,1.15,0,0,1-.22.39,1,1,0,0,1-.35.26,1.15,1.15,0,0,1-.9,0,1,1,0,0,1-.35-0.26,1.16,1.16,0,0,1-.22-0.39,1.51,1.51,0,0,1-.08-0.5V107Zm0.27,0.08a1.33,1.33,0,0,0,.05.38,1,1,0,0,0,.16.32A0.78,0.78,0,0,0,18,108a0.74,0.74,0,0,0,.35.08,0.74,0.74,0,0,0,.35-0.08,0.78,0.78,0,0,0,.26-0.22,1,1,0,0,0,.16-0.32,1.35,1.35,0,0,0,.05-0.38V107a1.32,1.32,0,0,0-.05-0.38,1,1,0,0,0-.16-0.32,0.78,0.78,0,0,0-.26-0.22A0.74,0.74,0,0,0,18.3,106a0.72,0.72,0,0,0-.35.08,0.79,0.79,0,0,0-.26.22,1,1,0,0,0-.16.32,1.31,1.31,0,0,0-.05.38v0.08Z"/><path d="M20.7,107.93l0.75-2.08h0.28l-0.92,2.46H20.58l-0.92-2.46h0.28Z"/><path d="M23.09,108.35a1.08,1.08,0,0,1-.44-0.09A1.05,1.05,0,0,1,22.3,108a1.15,1.15,0,0,1-.23-0.38,1.39,1.39,0,0,1-.08-0.48v-0.1a1.48,1.48,0,0,1,.08-0.51,1.22,1.22,0,0,1,.23-0.39,1,1,0,0,1,.34-0.25,0.94,0.94,0,0,1,.4-0.09,1,1,0,0,1,.42.08,0.87,0.87,0,0,1,.31.23,1,1,0,0,1,.19.36,1.53,1.53,0,0,1,.06.45v0.17H22.26v0.05a1.16,1.16,0,0,0,.06.38,1,1,0,0,0,.17.31,0.82,0.82,0,0,0,.27.21,0.77,0.77,0,0,0,.34.08,0.89,0.89,0,0,0,.38-0.08,0.85,0.85,0,0,0,.3-0.25L24,107.92a1.11,1.11,0,0,1-.14.17,0.83,0.83,0,0,1-.19.14,1,1,0,0,1-.24.09A1.24,1.24,0,0,1,23.09,108.35ZM23,106a0.7,0.7,0,0,0-.29.06,0.71,0.71,0,0,0-.23.17,0.9,0.9,0,0,0-.17.26,1.28,1.28,0,0,0-.09.34h1.47v0a1.11,1.11,0,0,0-.05-0.3,0.79,0.79,0,0,0-.13-0.26,0.66,0.66,0,0,0-.22-0.18A0.65,0.65,0,0,0,23,106Z"/><path d="M25.68,106.08l-0.18,0a0.72,0.72,0,0,0-.25,0,0.63,0.63,0,0,0-.2.11,0.68,0.68,0,0,0-.14.17,1,1,0,0,0-.09.22v1.69H24.54v-2.46h0.27v0.39a0.81,0.81,0,0,1,.27-0.32,0.73,0.73,0,0,1,.42-0.12h0.1l0.08,0v0.25Z"/><path d="M27.66,105.22v0.63h0.51v0.22H27.66v1.64a0.67,0.67,0,0,0,0,.21,0.31,0.31,0,0,0,.07.12,0.22,0.22,0,0,0,.1.06H28.2v0.22l-0.13,0H27.92a0.72,0.72,0,0,1-.21,0,0.39,0.39,0,0,1-.17-0.11,0.52,0.52,0,0,1-.11-0.2,1,1,0,0,1,0-.31v-1.64H26.94v-0.22h0.45v-0.63h0.27Z"/><path d="M29,106.27a1,1,0,0,1,.15-0.19,1,1,0,0,1,.19-0.15,0.91,0.91,0,0,1,.47-0.13,1,1,0,0,1,.33,0,0.61,0.61,0,0,1,.25.16,0.73,0.73,0,0,1,.15.28,1.4,1.4,0,0,1,.05.41v1.6H30.32v-1.6a1.06,1.06,0,0,0,0-.32,0.52,0.52,0,0,0-.12-0.2,0.42,0.42,0,0,0-.18-0.11,0.83,0.83,0,0,0-.24,0,0.69,0.69,0,0,0-.26,0,0.73,0.73,0,0,0-.21.13,0.85,0.85,0,0,0-.16.19,1.05,1.05,0,0,0-.1.22v1.68H28.73v-3.49H29v1.45Z"/><path d="M32.24,108.35a1.08,1.08,0,0,1-.44-0.09,1.05,1.05,0,0,1-.35-0.25,1.15,1.15,0,0,1-.23-0.38,1.39,1.39,0,0,1-.08-0.48v-0.1a1.48,1.48,0,0,1,.08-0.51,1.22,1.22,0,0,1,.23-0.39,1,1,0,0,1,.34-0.25,0.94,0.94,0,0,1,.4-0.09,1,1,0,0,1,.42.08,0.87,0.87,0,0,1,.31.23,1,1,0,0,1,.19.36,1.53,1.53,0,0,1,.06.45v0.17H31.41v0.05a1.16,1.16,0,0,0,.06.38,1,1,0,0,0,.17.31,0.82,0.82,0,0,0,.27.21,0.77,0.77,0,0,0,.34.08,0.89,0.89,0,0,0,.38-0.08,0.85,0.85,0,0,0,.3-0.25l0.17,0.13a1.11,1.11,0,0,1-.14.17,0.83,0.83,0,0,1-.19.14,1,1,0,0,1-.24.09A1.24,1.24,0,0,1,32.24,108.35Zm0-2.32a0.7,0.7,0,0,0-.29.06,0.71,0.71,0,0,0-.23.17,0.9,0.9,0,0,0-.17.26,1.28,1.28,0,0,0-.09.34h1.47v0a1.11,1.11,0,0,0-.05-0.3,0.79,0.79,0,0,0-.13-0.26,0.66,0.66,0,0,0-.22-0.18A0.65,0.65,0,0,0,32.19,106Z"/><path d="M34.67,107a1.51,1.51,0,0,1,.08-0.5,1.17,1.17,0,0,1,.22-0.39,1,1,0,0,1,.35-0.26,1.06,1.06,0,0,1,.45-0.09,1.07,1.07,0,0,1,.46.09,1,1,0,0,1,.35.26,1.15,1.15,0,0,1,.22.39,1.52,1.52,0,0,1,.08.5v0.08a1.52,1.52,0,0,1-.08.5,1.15,1.15,0,0,1-.22.39,1,1,0,0,1-.35.26,1.15,1.15,0,0,1-.9,0A1,1,0,0,1,35,108a1.16,1.16,0,0,1-.22-0.39,1.51,1.51,0,0,1-.08-0.5V107Zm0.27,0.08a1.33,1.33,0,0,0,.05.38,1,1,0,0,0,.16.32,0.78,0.78,0,0,0,.26.22,0.74,0.74,0,0,0,.35.08,0.74,0.74,0,0,0,.35-0.08,0.78,0.78,0,0,0,.26-0.22,1,1,0,0,0,.16-0.32,1.35,1.35,0,0,0,.05-0.38V107a1.32,1.32,0,0,0-.05-0.38,1,1,0,0,0-.16-0.32,0.78,0.78,0,0,0-.26-0.22,0.74,0.74,0,0,0-.36-0.08,0.72,0.72,0,0,0-.35.08,0.79,0.79,0,0,0-.26.22,1,1,0,0,0-.16.32,1.31,1.31,0,0,0-.05.38v0.08Z"/><path d="M39.41,107.1a1.94,1.94,0,0,1-.06.51,1.19,1.19,0,0,1-.18.39,0.85,0.85,0,0,1-.29.26,0.83,0.83,0,0,1-.4.09,1,1,0,0,1-.46-0.09A0.87,0.87,0,0,1,37.7,108v1.25H37.43v-3.4h0.25v0.35a0.9,0.9,0,0,1,.32-0.29,0.94,0.94,0,0,1,.45-0.1,0.89,0.89,0,0,1,.4.09,0.84,0.84,0,0,1,.3.25,1.18,1.18,0,0,1,.18.39,2,2,0,0,1,.06.52v0Zm-0.27,0a1.73,1.73,0,0,0,0-.4,1,1,0,0,0-.13-0.32A0.64,0.64,0,0,0,38.4,106a0.79,0.79,0,0,0-.26,0,0.67,0.67,0,0,0-.2.1,0.68,0.68,0,0,0-.15.15,0.91,0.91,0,0,0-.1.18v1.18a0.79,0.79,0,0,0,.11.17A0.69,0.69,0,0,0,38,108a0.76,0.76,0,0,0,.2.09,0.9,0.9,0,0,0,.25,0,0.63,0.63,0,0,0,.32-0.08,0.65,0.65,0,0,0,.23-0.22,1,1,0,0,0,.13-0.32,1.75,1.75,0,0,0,0-.4v0Z"/><path d="M41,108.35a1.08,1.08,0,0,1-.44-0.09,1.05,1.05,0,0,1-.35-0.25,1.15,1.15,0,0,1-.23-0.38,1.39,1.39,0,0,1-.08-0.48v-0.1a1.48,1.48,0,0,1,.08-0.51,1.22,1.22,0,0,1,.23-0.39,1,1,0,0,1,.34-0.25,0.94,0.94,0,0,1,.4-0.09,1,1,0,0,1,.42.08,0.87,0.87,0,0,1,.31.23,1,1,0,0,1,.19.36,1.53,1.53,0,0,1,.06.45v0.17H40.13v0.05a1.16,1.16,0,0,0,.06.38,1,1,0,0,0,.17.31,0.82,0.82,0,0,0,.27.21,0.77,0.77,0,0,0,.34.08,0.89,0.89,0,0,0,.38-0.08,0.85,0.85,0,0,0,.3-0.25l0.17,0.13a1.11,1.11,0,0,1-.14.17,0.83,0.83,0,0,1-.19.14,1,1,0,0,1-.24.09A1.24,1.24,0,0,1,41,108.35Zm0-2.32a0.7,0.7,0,0,0-.29.06,0.71,0.71,0,0,0-.23.17,0.9,0.9,0,0,0-.17.26,1.28,1.28,0,0,0-.09.34h1.47v0a1.11,1.11,0,0,0-.05-0.3,0.79,0.79,0,0,0-.13-0.26,0.66,0.66,0,0,0-.22-0.18A0.65,0.65,0,0,0,40.91,106Z"/><path d="M42.67,105.85v0.42a1.12,1.12,0,0,1,.15-0.19,0.87,0.87,0,0,1,.19-0.15,0.91,0.91,0,0,1,.22-0.09,0.94,0.94,0,0,1,.25,0,1,1,0,0,1,.33,0,0.61,0.61,0,0,1,.25.16,0.73,0.73,0,0,1,.15.28,1.4,1.4,0,0,1,.05.41v1.6H44v-1.6a1.06,1.06,0,0,0,0-.32,0.52,0.52,0,0,0-.12-0.2,0.42,0.42,0,0,0-.18-0.11,0.83,0.83,0,0,0-.24,0,0.69,0.69,0,0,0-.26,0,0.73,0.73,0,0,0-.21.13,0.85,0.85,0,0,0-.16.19,1.05,1.05,0,0,0-.1.22v1.68H42.41v-2.46h0.26Z"/><path d="M47.57,107.68a0.45,0.45,0,0,0,0-.15,0.36,0.36,0,0,0-.1-0.14,0.76,0.76,0,0,0-.2-0.12,1.67,1.67,0,0,0-.33-0.1l-0.36-.1a1,1,0,0,1-.27-0.14,0.54,0.54,0,0,1-.17-0.19,0.56,0.56,0,0,1-.06-0.26,0.59,0.59,0,0,1,.06-0.26,0.63,0.63,0,0,1,.17-0.21,0.86,0.86,0,0,1,.27-0.14,1.14,1.14,0,0,1,.36-0.05,1.22,1.22,0,0,1,.38.06,0.85,0.85,0,0,1,.29.15,0.67,0.67,0,0,1,.18.23,0.7,0.7,0,0,1,.06.29H47.56a0.44,0.44,0,0,0,0-.19,0.47,0.47,0,0,0-.12-0.16,0.64,0.64,0,0,0-.2-0.11,0.78,0.78,0,0,0-.27,0,0.85,0.85,0,0,0-.27,0,0.57,0.57,0,0,0-.18.1,0.37,0.37,0,0,0-.1.14,0.39,0.39,0,0,0,0,.15,0.43,0.43,0,0,0,0,.15,0.3,0.3,0,0,0,.1.13,0.74,0.74,0,0,0,.2.11l0.33,0.1,0.38,0.12a1,1,0,0,1,.27.15,0.56,0.56,0,0,1,.16.2,0.63,0.63,0,0,1,.05.26,0.61,0.61,0,0,1-.06.28,0.62,0.62,0,0,1-.18.22,0.87,0.87,0,0,1-.29.14,1.43,1.43,0,0,1-.79,0,0.94,0.94,0,0,1-.3-0.16A0.69,0.69,0,0,1,46,107.9a0.65,0.65,0,0,1-.06-0.28h0.27a0.48,0.48,0,0,0,.08.24,0.5,0.5,0,0,0,.16.15,0.69,0.69,0,0,0,.22.08l0.24,0a0.92,0.92,0,0,0,.27,0,0.61,0.61,0,0,0,.2-0.1,0.42,0.42,0,0,0,.12-0.14A0.36,0.36,0,0,0,47.57,107.68Z"/><path d="M48.3,107a1.51,1.51,0,0,1,.08-0.5,1.17,1.17,0,0,1,.22-0.39,1,1,0,0,1,.35-0.26,1.06,1.06,0,0,1,.45-0.09,1.07,1.07,0,0,1,.46.09,1,1,0,0,1,.35.26,1.15,1.15,0,0,1,.22.39,1.52,1.52,0,0,1,.08.5v0.08a1.52,1.52,0,0,1-.08.5,1.15,1.15,0,0,1-.22.39,1,1,0,0,1-.35.26,1.15,1.15,0,0,1-.9,0A1,1,0,0,1,48.6,108a1.16,1.16,0,0,1-.22-0.39,1.51,1.51,0,0,1-.08-0.5V107Zm0.27,0.08a1.33,1.33,0,0,0,.05.38,1,1,0,0,0,.16.32A0.78,0.78,0,0,0,49,108a0.74,0.74,0,0,0,.35.08,0.74,0.74,0,0,0,.35-0.08,0.78,0.78,0,0,0,.26-0.22,1,1,0,0,0,.16-0.32,1.35,1.35,0,0,0,.05-0.38V107a1.32,1.32,0,0,0-.05-0.38,1,1,0,0,0-.16-0.32,0.78,0.78,0,0,0-.26-0.22A0.74,0.74,0,0,0,49.4,106a0.72,0.72,0,0,0-.35.08,0.79,0.79,0,0,0-.26.22,1,1,0,0,0-.16.32,1.31,1.31,0,0,0-.05.38v0.08Z"/><path d="M52.64,108a0.78,0.78,0,0,1-.31.26,1.08,1.08,0,0,1-.48.09,1,1,0,0,1-.33-0.05,0.64,0.64,0,0,1-.25-0.16,0.74,0.74,0,0,1-.16-0.29,1.39,1.39,0,0,1-.06-0.43v-1.57h0.27v1.58a1,1,0,0,0,0,.33,0.56,0.56,0,0,0,.12.21,0.45,0.45,0,0,0,.18.11,0.7,0.7,0,0,0,.22,0,1,1,0,0,0,.29,0,0.67,0.67,0,0,0,.22-0.1,0.6,0.6,0,0,0,.15-0.16,0.77,0.77,0,0,0,.09-0.2v-1.78h0.27v2.46H52.65V108Z"/><path d="M54.75,106.08l-0.18,0a0.72,0.72,0,0,0-.25,0,0.63,0.63,0,0,0-.2.11,0.68,0.68,0,0,0-.14.17,1,1,0,0,0-.09.22v1.69H53.62v-2.46h0.27v0.39a0.81,0.81,0,0,1,.27-0.32,0.73,0.73,0,0,1,.42-0.12h0.1l0.08,0v0.25Z"/><path d="M56,108.12a0.81,0.81,0,0,0,.25,0,0.65,0.65,0,0,0,.21-0.11,0.6,0.6,0,0,0,.15-0.18,0.57,0.57,0,0,0,.07-0.25H57a0.77,0.77,0,0,1-.09.32,0.84,0.84,0,0,1-.21.25,1,1,0,0,1-.3.17,1.11,1.11,0,0,1-.81,0,0.94,0.94,0,0,1-.33-0.26,1.15,1.15,0,0,1-.2-0.39,1.67,1.67,0,0,1-.07-0.48V107a1.67,1.67,0,0,1,.07-0.48,1.13,1.13,0,0,1,.2-0.39,0.94,0.94,0,0,1,.33-0.26,1,1,0,0,1,.45-0.1,1.07,1.07,0,0,1,.37.06,0.9,0.9,0,0,1,.3.17,0.84,0.84,0,0,1,.2.28,1,1,0,0,1,.08.36H56.73a0.73,0.73,0,0,0-.06-0.27,0.65,0.65,0,0,0-.15-0.2,0.63,0.63,0,0,0-.21-0.13,0.76,0.76,0,0,0-.26,0,0.74,0.74,0,0,0-.36.08,0.69,0.69,0,0,0-.24.22,0.94,0.94,0,0,0-.14.32,1.62,1.62,0,0,0,0,.38v0.09a1.66,1.66,0,0,0,0,.38,1,1,0,0,0,.13.32,0.68,0.68,0,0,0,.24.22A0.74,0.74,0,0,0,56,108.12Z"/><path d="M58.49,108.35a1.08,1.08,0,0,1-.44-0.09,1.05,1.05,0,0,1-.35-0.25,1.15,1.15,0,0,1-.23-0.38,1.39,1.39,0,0,1-.08-0.48v-0.1a1.48,1.48,0,0,1,.08-0.51,1.22,1.22,0,0,1,.23-0.39,1,1,0,0,1,.34-0.25,0.94,0.94,0,0,1,.4-0.09,1,1,0,0,1,.42.08,0.87,0.87,0,0,1,.31.23,1,1,0,0,1,.19.36,1.53,1.53,0,0,1,.06.45v0.17H57.65v0.05a1.16,1.16,0,0,0,.06.38,1,1,0,0,0,.17.31,0.82,0.82,0,0,0,.27.21,0.77,0.77,0,0,0,.34.08,0.89,0.89,0,0,0,.38-0.08,0.85,0.85,0,0,0,.3-0.25l0.17,0.13a1.11,1.11,0,0,1-.14.17,0.83,0.83,0,0,1-.19.14,1,1,0,0,1-.24.09A1.24,1.24,0,0,1,58.49,108.35Zm0-2.32a0.7,0.7,0,0,0-.29.06,0.71,0.71,0,0,0-.23.17,0.9,0.9,0,0,0-.17.26,1.28,1.28,0,0,0-.09.34h1.47v0a1.11,1.11,0,0,0-.05-0.3,0.79,0.79,0,0,0-.13-0.26,0.66,0.66,0,0,0-.22-0.18A0.65,0.65,0,0,0,58.44,106Z"/><path d="M62,108.35a1.08,1.08,0,0,1-.44-0.09,1.05,1.05,0,0,1-.35-0.25,1.15,1.15,0,0,1-.23-0.38,1.39,1.39,0,0,1-.08-0.48v-0.1a1.48,1.48,0,0,1,.08-0.51,1.22,1.22,0,0,1,.23-0.39,1,1,0,0,1,.34-0.25,0.94,0.94,0,0,1,.4-0.09,1,1,0,0,1,.42.08,0.87,0.87,0,0,1,.31.23,1,1,0,0,1,.19.36,1.53,1.53,0,0,1,.06.45v0.17H61.19v0.05a1.16,1.16,0,0,0,.06.38,1,1,0,0,0,.17.31,0.82,0.82,0,0,0,.27.21,0.77,0.77,0,0,0,.34.08,0.89,0.89,0,0,0,.38-0.08,0.85,0.85,0,0,0,.3-0.25l0.17,0.13a1.11,1.11,0,0,1-.14.17,0.83,0.83,0,0,1-.19.14,1,1,0,0,1-.24.09A1.24,1.24,0,0,1,62,108.35ZM62,106a0.7,0.7,0,0,0-.29.06,0.71,0.71,0,0,0-.23.17,0.9,0.9,0,0,0-.17.26,1.28,1.28,0,0,0-.09.34h1.47v0a1.11,1.11,0,0,0-.05-0.3,0.79,0.79,0,0,0-.13-0.26,0.66,0.66,0,0,0-.22-0.18A0.65,0.65,0,0,0,62,106Z"/><path d="M64.38,108.12a0.81,0.81,0,0,0,.25,0,0.65,0.65,0,0,0,.21-0.11A0.6,0.6,0,0,0,65,107.8a0.57,0.57,0,0,0,.07-0.25h0.26a0.77,0.77,0,0,1-.09.32,0.84,0.84,0,0,1-.21.25,1,1,0,0,1-.3.17,1.11,1.11,0,0,1-.81,0A0.94,0.94,0,0,1,63.6,108a1.15,1.15,0,0,1-.2-0.39,1.67,1.67,0,0,1-.07-0.48V107a1.67,1.67,0,0,1,.07-0.48,1.13,1.13,0,0,1,.2-0.39,0.94,0.94,0,0,1,.33-0.26,1,1,0,0,1,.45-0.1,1.07,1.07,0,0,1,.37.06,0.9,0.9,0,0,1,.3.17,0.84,0.84,0,0,1,.2.28,1,1,0,0,1,.08.36H65.07a0.73,0.73,0,0,0-.06-0.27,0.65,0.65,0,0,0-.15-0.2,0.63,0.63,0,0,0-.21-0.13,0.76,0.76,0,0,0-.26,0,0.74,0.74,0,0,0-.36.08,0.69,0.69,0,0,0-.24.22,0.94,0.94,0,0,0-.14.32,1.62,1.62,0,0,0,0,.38v0.09a1.66,1.66,0,0,0,0,.38,1,1,0,0,0,.13.32A0.68,0.68,0,0,0,64,108,0.74,0.74,0,0,0,64.38,108.12Z"/><path d="M65.72,107a1.51,1.51,0,0,1,.08-0.5,1.17,1.17,0,0,1,.22-0.39,1,1,0,0,1,.35-0.26,1.06,1.06,0,0,1,.45-0.09,1.07,1.07,0,0,1,.46.09,1,1,0,0,1,.35.26,1.15,1.15,0,0,1,.22.39,1.52,1.52,0,0,1,.08.5v0.08a1.52,1.52,0,0,1-.08.5,1.15,1.15,0,0,1-.22.39,1,1,0,0,1-.35.26,1.15,1.15,0,0,1-.9,0A1,1,0,0,1,66,108a1.16,1.16,0,0,1-.22-0.39,1.51,1.51,0,0,1-.08-0.5V107ZM66,107.12a1.33,1.33,0,0,0,.05.38,1,1,0,0,0,.16.32,0.78,0.78,0,0,0,.26.22,0.74,0.74,0,0,0,.35.08,0.74,0.74,0,0,0,.35-0.08,0.78,0.78,0,0,0,.26-0.22,1,1,0,0,0,.16-0.32,1.35,1.35,0,0,0,.05-0.38V107a1.32,1.32,0,0,0-.05-0.38,1,1,0,0,0-.16-0.32,0.78,0.78,0,0,0-.26-0.22,0.74,0.74,0,0,0-.36-0.08,0.72,0.72,0,0,0-.35.08,0.79,0.79,0,0,0-.26.22,1,1,0,0,0-.16.32A1.31,1.31,0,0,0,66,107v0.08Z"/><path d="M69.95,107.68a0.45,0.45,0,0,0,0-.15,0.36,0.36,0,0,0-.1-0.14,0.76,0.76,0,0,0-.2-0.12,1.67,1.67,0,0,0-.33-0.1l-0.36-.1a1,1,0,0,1-.27-0.14,0.54,0.54,0,0,1-.17-0.19,0.56,0.56,0,0,1-.06-0.26,0.59,0.59,0,0,1,.06-0.26,0.63,0.63,0,0,1,.17-0.21,0.86,0.86,0,0,1,.27-0.14,1.14,1.14,0,0,1,.36-0.05,1.22,1.22,0,0,1,.38.06A0.85,0.85,0,0,1,70,106a0.67,0.67,0,0,1,.18.23,0.7,0.7,0,0,1,.06.29H69.93a0.44,0.44,0,0,0,0-.19,0.47,0.47,0,0,0-.12-0.16,0.64,0.64,0,0,0-.2-0.11,0.78,0.78,0,0,0-.27,0,0.85,0.85,0,0,0-.27,0,0.57,0.57,0,0,0-.18.1,0.37,0.37,0,0,0-.1.14,0.39,0.39,0,0,0,0,.15,0.43,0.43,0,0,0,0,.15,0.3,0.3,0,0,0,.1.13,0.74,0.74,0,0,0,.2.11l0.33,0.1,0.38,0.12a1,1,0,0,1,.27.15,0.56,0.56,0,0,1,.16.2,0.63,0.63,0,0,1,.05.26,0.61,0.61,0,0,1-.06.28,0.62,0.62,0,0,1-.18.22,0.87,0.87,0,0,1-.29.14,1.43,1.43,0,0,1-.79,0,0.94,0.94,0,0,1-.3-0.16,0.69,0.69,0,0,1-.19-0.24,0.65,0.65,0,0,1-.06-0.28h0.27a0.48,0.48,0,0,0,.08.24,0.5,0.5,0,0,0,.16.15,0.69,0.69,0,0,0,.22.08l0.24,0a0.92,0.92,0,0,0,.27,0,0.61,0.61,0,0,0,.2-0.1,0.42,0.42,0,0,0,.12-0.14A0.36,0.36,0,0,0,69.95,107.68Z"/><path d="M71.61,107.92l0.72-2.07h0.29l-1,2.85-0.08.19a0.86,0.86,0,0,1-.13.2,0.68,0.68,0,0,1-.2.15,0.6,0.6,0,0,1-.29.06H70.68V109h0.14a0.62,0.62,0,0,0,.19,0,0.44,0.44,0,0,0,.15-0.08,0.54,0.54,0,0,0,.11-0.14,1.14,1.14,0,0,0,.09-0.19l0.12-.33-0.93-2.44h0.3Z"/><path d="M74.51,107.68a0.45,0.45,0,0,0,0-.15,0.36,0.36,0,0,0-.1-0.14,0.76,0.76,0,0,0-.2-0.12,1.67,1.67,0,0,0-.33-0.1l-0.36-.1a1,1,0,0,1-.27-0.14,0.54,0.54,0,0,1-.17-0.19,0.56,0.56,0,0,1-.06-0.26,0.59,0.59,0,0,1,.06-0.26,0.63,0.63,0,0,1,.17-0.21,0.86,0.86,0,0,1,.27-0.14,1.14,1.14,0,0,1,.36-0.05,1.22,1.22,0,0,1,.38.06,0.85,0.85,0,0,1,.29.15,0.67,0.67,0,0,1,.18.23,0.7,0.7,0,0,1,.06.29H74.5a0.44,0.44,0,0,0,0-.19,0.47,0.47,0,0,0-.12-0.16,0.64,0.64,0,0,0-.2-0.11,0.78,0.78,0,0,0-.27,0,0.85,0.85,0,0,0-.27,0,0.57,0.57,0,0,0-.18.1,0.37,0.37,0,0,0-.1.14,0.39,0.39,0,0,0,0,.15,0.43,0.43,0,0,0,0,.15,0.3,0.3,0,0,0,.1.13,0.74,0.74,0,0,0,.2.11l0.33,0.1,0.38,0.12a1,1,0,0,1,.27.15,0.56,0.56,0,0,1,.16.2,0.63,0.63,0,0,1,.05.26,0.61,0.61,0,0,1-.06.28,0.62,0.62,0,0,1-.18.22,0.87,0.87,0,0,1-.29.14,1.43,1.43,0,0,1-.79,0,0.94,0.94,0,0,1-.3-0.16A0.69,0.69,0,0,1,73,107.9a0.65,0.65,0,0,1-.06-0.28h0.27a0.48,0.48,0,0,0,.08.24,0.5,0.5,0,0,0,.16.15,0.69,0.69,0,0,0,.22.08l0.24,0a0.92,0.92,0,0,0,.27,0,0.61,0.61,0,0,0,.2-0.1,0.42,0.42,0,0,0,.12-0.14A0.36,0.36,0,0,0,74.51,107.68Z"/><path d="M75.82,105.22v0.63h0.51v0.22H75.82v1.64a0.67,0.67,0,0,0,0,.21,0.31,0.31,0,0,0,.07.12,0.22,0.22,0,0,0,.1.06h0.34v0.22l-0.13,0H76.08a0.72,0.72,0,0,1-.21,0,0.39,0.39,0,0,1-.17-0.11,0.52,0.52,0,0,1-.11-0.2,1,1,0,0,1,0-.31v-1.64H75.1v-0.22h0.45v-0.63h0.27Z"/><path d="M77.84,108.35a1.08,1.08,0,0,1-.44-0.09,1.05,1.05,0,0,1-.35-0.25,1.15,1.15,0,0,1-.23-0.38,1.39,1.39,0,0,1-.08-0.48v-0.1a1.48,1.48,0,0,1,.08-0.51,1.22,1.22,0,0,1,.23-0.39,1,1,0,0,1,.34-0.25,0.94,0.94,0,0,1,.4-0.09,1,1,0,0,1,.42.08,0.87,0.87,0,0,1,.31.23,1,1,0,0,1,.19.36,1.53,1.53,0,0,1,.06.45v0.17H77v0.05a1.16,1.16,0,0,0,.06.38,1,1,0,0,0,.17.31,0.82,0.82,0,0,0,.27.21,0.77,0.77,0,0,0,.34.08,0.89,0.89,0,0,0,.38-0.08,0.85,0.85,0,0,0,.3-0.25l0.17,0.13a1.11,1.11,0,0,1-.14.17,0.83,0.83,0,0,1-.19.14,1,1,0,0,1-.24.09A1.24,1.24,0,0,1,77.84,108.35Zm0-2.32a0.7,0.7,0,0,0-.29.06,0.71,0.71,0,0,0-.23.17,0.9,0.9,0,0,0-.17.26,1.28,1.28,0,0,0-.09.34H78.5v0a1.11,1.11,0,0,0-.05-0.3,0.79,0.79,0,0,0-.13-0.26,0.66,0.66,0,0,0-.22-0.18A0.65,0.65,0,0,0,77.79,106Z"/><path d="M79.54,105.85v0.4a1.05,1.05,0,0,1,.14-0.18,0.81,0.81,0,0,1,.18-0.14,0.9,0.9,0,0,1,.22-0.09,1,1,0,0,1,.25,0,0.89,0.89,0,0,1,.46.11,0.62,0.62,0,0,1,.28.36,1,1,0,0,1,.14-0.19,0.86,0.86,0,0,1,.19-0.15,0.9,0.9,0,0,1,.23-0.1,1,1,0,0,1,.28,0,1.05,1.05,0,0,1,.34.05,0.62,0.62,0,0,1,.25.16,0.74,0.74,0,0,1,.16.28,1.36,1.36,0,0,1,.05.41v1.6H82.46v-1.6a1,1,0,0,0,0-.32,0.48,0.48,0,0,0-.12-0.2,0.44,0.44,0,0,0-.19-0.11,0.94,0.94,0,0,0-.24,0,0.74,0.74,0,0,0-.3.06,0.73,0.73,0,0,0-.22.15,0.7,0.7,0,0,0-.14.21,0.68,0.68,0,0,0-.06.22v1.63H80.87v-1.62a0.91,0.91,0,0,0,0-.31,0.49,0.49,0,0,0-.12-0.2,0.46,0.46,0,0,0-.19-0.11,0.87,0.87,0,0,0-.24,0,0.71,0.71,0,0,0-.27,0,0.68,0.68,0,0,0-.21.13,0.72,0.72,0,0,0-.14.19,1.19,1.19,0,0,0-.09.22v1.69H79.28v-2.46h0.26Z"/><path d="M85.69,106.08l-0.18,0a0.72,0.72,0,0,0-.25,0,0.63,0.63,0,0,0-.2.11,0.67,0.67,0,0,0-.14.17,1,1,0,0,0-.09.22v1.69H84.55v-2.46h0.27v0.39a0.81,0.81,0,0,1,.27-0.32,0.73,0.73,0,0,1,.42-0.12h0.1l0.08,0v0.25Z"/><path d="M87,108.35a1.08,1.08,0,0,1-.44-0.09,1.05,1.05,0,0,1-.35-0.25,1.15,1.15,0,0,1-.23-0.38,1.38,1.38,0,0,1-.08-0.48v-0.1a1.45,1.45,0,0,1,.09-0.51,1.19,1.19,0,0,1,.23-0.39,1,1,0,0,1,.33-0.25,0.94,0.94,0,0,1,.4-0.09,1,1,0,0,1,.42.08,0.87,0.87,0,0,1,.31.23,1,1,0,0,1,.19.36,1.55,1.55,0,0,1,.06.45v0.17H86.19v0.05a1.16,1.16,0,0,0,.06.38,1,1,0,0,0,.17.31,0.82,0.82,0,0,0,.27.21,0.76,0.76,0,0,0,.34.08,0.89,0.89,0,0,0,.39-0.08,0.85,0.85,0,0,0,.3-0.25l0.17,0.13a1.15,1.15,0,0,1-.14.17,0.82,0.82,0,0,1-.19.14,1,1,0,0,1-.24.09A1.23,1.23,0,0,1,87,108.35ZM87,106a0.7,0.7,0,0,0-.29.06,0.71,0.71,0,0,0-.23.17,0.89,0.89,0,0,0-.17.26,1.26,1.26,0,0,0-.09.34h1.47v0a1.09,1.09,0,0,0,0-.3,0.79,0.79,0,0,0-.13-0.26,0.67,0.67,0,0,0-.22-0.18A0.65,0.65,0,0,0,87,106Z"/><path d="M88.78,108.31H88.51v-3.49h0.27v3.49Z"/><path d="M91.07,108.31a0.72,0.72,0,0,1,0-.16q0-.09,0-0.19a1,1,0,0,1-.33.27l-0.23.08a1.07,1.07,0,0,1-.27,0,1,1,0,0,1-.33-0.05,0.74,0.74,0,0,1-.25-0.15,0.66,0.66,0,0,1-.16-0.22,0.71,0.71,0,0,1,0-.6,0.68,0.68,0,0,1,.22-0.25,1.1,1.1,0,0,1,.35-0.16,1.91,1.91,0,0,1,.47-0.05H91V106.6a0.54,0.54,0,0,0-.16-0.42,0.67,0.67,0,0,0-.47-0.15,0.84,0.84,0,0,0-.26,0,0.67,0.67,0,0,0-.21.11,0.52,0.52,0,0,0-.14.16,0.4,0.4,0,0,0,0,.19H89.45a0.56,0.56,0,0,1,.07-0.27,0.73,0.73,0,0,1,.19-0.23,1,1,0,0,1,.3-0.16,1.15,1.15,0,0,1,.39-0.06,1.23,1.23,0,0,1,.36,0A0.8,0.8,0,0,1,91,106a0.68,0.68,0,0,1,.18.25,0.86,0.86,0,0,1,.07.35v1.19s0,0.09,0,.13,0,0.09,0,.13l0,0.12a0.55,0.55,0,0,0,0,.1v0H91.07Zm-0.85-.2a1,1,0,0,0,.27,0,0.89,0.89,0,0,0,.23-0.1,0.82,0.82,0,0,0,.18-0.15,0.78,0.78,0,0,0,.12-0.19v-0.54H90.55a1.73,1.73,0,0,0-.37,0,0.93,0.93,0,0,0-.28.11,0.52,0.52,0,0,0-.17.17,0.44,0.44,0,0,0-.06.23,0.47,0.47,0,0,0,0,.19,0.45,0.45,0,0,0,.11.15,0.54,0.54,0,0,0,.17.1A0.68,0.68,0,0,0,90.22,108.11Z"/><path d="M92.44,105.22v0.63h0.51v0.22H92.44v1.64a0.7,0.7,0,0,0,0,.21,0.31,0.31,0,0,0,.07.12,0.22,0.22,0,0,0,.1.06H93v0.22l-0.13,0H92.7a0.72,0.72,0,0,1-.21,0,0.39,0.39,0,0,1-.17-0.11,0.51,0.51,0,0,1-.11-0.2,1,1,0,0,1,0-.31v-1.64H91.71v-0.22h0.45v-0.63h0.27Z"/><path d="M94.46,108.35a1.08,1.08,0,0,1-.44-0.09,1.05,1.05,0,0,1-.35-0.25,1.15,1.15,0,0,1-.23-0.38,1.38,1.38,0,0,1-.08-0.48v-0.1a1.45,1.45,0,0,1,.09-0.51,1.19,1.19,0,0,1,.23-0.39,1,1,0,0,1,.33-0.25,0.94,0.94,0,0,1,.4-0.09,1,1,0,0,1,.42.08,0.87,0.87,0,0,1,.31.23,1,1,0,0,1,.19.36,1.55,1.55,0,0,1,.06.45v0.17H93.63v0.05a1.16,1.16,0,0,0,.06.38,1,1,0,0,0,.17.31,0.82,0.82,0,0,0,.27.21,0.76,0.76,0,0,0,.34.08,0.89,0.89,0,0,0,.39-0.08,0.85,0.85,0,0,0,.3-0.25l0.17,0.13a1.15,1.15,0,0,1-.14.17,0.82,0.82,0,0,1-.19.14,1,1,0,0,1-.24.09A1.23,1.23,0,0,1,94.46,108.35Zm0-2.32a0.7,0.7,0,0,0-.29.06,0.71,0.71,0,0,0-.23.17,0.89,0.89,0,0,0-.17.26,1.26,1.26,0,0,0-.09.34h1.47v0a1.09,1.09,0,0,0,0-.3,0.79,0.79,0,0,0-.13-0.26,0.67,0.67,0,0,0-.22-0.18A0.65,0.65,0,0,0,94.41,106Z"/><path d="M95.8,107.06a1.88,1.88,0,0,1,.07-0.52,1.19,1.19,0,0,1,.19-0.39,0.86,0.86,0,0,1,.3-0.25,0.87,0.87,0,0,1,.4-0.09,0.91,0.91,0,0,1,.45.1,0.9,0.9,0,0,1,.31.29v-1.38h0.27v3.49H97.53V108a0.85,0.85,0,0,1-.31.27,1,1,0,0,1-.46.1,0.83,0.83,0,0,1-.39-0.09,0.87,0.87,0,0,1-.3-0.26,1.21,1.21,0,0,1-.19-0.39,1.83,1.83,0,0,1-.07-0.51v0Zm0.28,0a1.74,1.74,0,0,0,0,.4,1,1,0,0,0,.13.32,0.62,0.62,0,0,0,.54.29,0.9,0.9,0,0,0,.25,0,0.74,0.74,0,0,0,.2-0.09,0.68,0.68,0,0,0,.15-0.14,0.91,0.91,0,0,0,.11-0.18v-1.15a1.09,1.09,0,0,0-.1-0.18,0.67,0.67,0,0,0-.15-0.15,0.72,0.72,0,0,0-.2-0.11,0.8,0.8,0,0,0-.26,0,0.64,0.64,0,0,0-.33.08,0.64,0.64,0,0,0-.22.21,1,1,0,0,0-.13.32,1.73,1.73,0,0,0,0,.4v0Z"/><path d="M100.05,105.22v0.63h0.51v0.22h-0.51v1.64a0.7,0.7,0,0,0,0,.21,0.31,0.31,0,0,0,.07.12,0.22,0.22,0,0,0,.1.06h0.34v0.22l-0.13,0h-0.16a0.72,0.72,0,0,1-.21,0,0.39,0.39,0,0,1-.17-0.11,0.51,0.51,0,0,1-.11-0.2,1,1,0,0,1,0-.31v-1.64H99.33v-0.22h0.45v-0.63h0.27Z"/><path d="M100.93,107a1.5,1.5,0,0,1,.08-0.5,1.17,1.17,0,0,1,.22-0.39,1,1,0,0,1,.35-0.26,1.06,1.06,0,0,1,.45-0.09,1.07,1.07,0,0,1,.46.09,1,1,0,0,1,.35.26,1.15,1.15,0,0,1,.22.39,1.55,1.55,0,0,1,.08.5v0.08a1.55,1.55,0,0,1-.08.5,1.15,1.15,0,0,1-.22.39,1,1,0,0,1-.35.26,1.15,1.15,0,0,1-.9,0,1,1,0,0,1-.35-0.26,1.14,1.14,0,0,1-.22-0.39,1.5,1.5,0,0,1-.08-0.5V107Zm0.27,0.08a1.35,1.35,0,0,0,.05.38,1,1,0,0,0,.16.32,0.79,0.79,0,0,0,.26.22,0.75,0.75,0,0,0,.35.08,0.74,0.74,0,0,0,.35-0.08,0.78,0.78,0,0,0,.26-0.22,1,1,0,0,0,.16-0.32,1.35,1.35,0,0,0,.05-0.38V107a1.32,1.32,0,0,0-.05-0.38,1,1,0,0,0-.16-0.32,0.78,0.78,0,0,0-.26-0.22A0.74,0.74,0,0,0,102,106a0.72,0.72,0,0,0-.35.08,0.8,0.8,0,0,0-.26.22,1,1,0,0,0-.16.32,1.32,1.32,0,0,0-.05.38v0.08Z"/><path d="M105.24,105.22v0.63h0.51v0.22h-0.51v1.64a0.7,0.7,0,0,0,0,.21,0.31,0.31,0,0,0,.07.12,0.22,0.22,0,0,0,.1.06h0.34v0.22l-0.13,0H105.5a0.72,0.72,0,0,1-.21,0,0.39,0.39,0,0,1-.17-0.11A0.51,0.51,0,0,1,105,108a1,1,0,0,1,0-.31v-1.64h-0.45v-0.22H105v-0.63h0.27Z"/><path d="M106.58,106.27a1,1,0,0,1,.15-0.19,1,1,0,0,1,.19-0.15,0.92,0.92,0,0,1,.22-0.09,0.94,0.94,0,0,1,.25,0,1,1,0,0,1,.33,0,0.61,0.61,0,0,1,.25.16,0.74,0.74,0,0,1,.16.28,1.42,1.42,0,0,1,.05.41v1.6h-0.27v-1.6a1.09,1.09,0,0,0,0-.32,0.52,0.52,0,0,0-.12-0.2,0.42,0.42,0,0,0-.18-0.11,0.84,0.84,0,0,0-.24,0,0.69,0.69,0,0,0-.26,0,0.74,0.74,0,0,0-.21.13,0.88,0.88,0,0,0-.16.19,1.05,1.05,0,0,0-.1.22v1.68h-0.27v-3.49h0.27v1.45Z"/><path d="M109.82,108.35a1.08,1.08,0,0,1-.44-0.09A1.05,1.05,0,0,1,109,108a1.15,1.15,0,0,1-.23-0.38,1.38,1.38,0,0,1-.08-0.48v-0.1a1.45,1.45,0,0,1,.09-0.51,1.19,1.19,0,0,1,.23-0.39,1,1,0,0,1,.33-0.25,0.94,0.94,0,0,1,.4-0.09,1,1,0,0,1,.42.08,0.87,0.87,0,0,1,.31.23,1,1,0,0,1,.19.36,1.55,1.55,0,0,1,.06.45v0.17H109v0.05a1.16,1.16,0,0,0,.06.38,1,1,0,0,0,.17.31,0.82,0.82,0,0,0,.27.21,0.76,0.76,0,0,0,.34.08,0.89,0.89,0,0,0,.39-0.08,0.85,0.85,0,0,0,.3-0.25l0.17,0.13a1.15,1.15,0,0,1-.14.17,0.82,0.82,0,0,1-.19.14,1,1,0,0,1-.24.09A1.23,1.23,0,0,1,109.82,108.35Zm0-2.32a0.7,0.7,0,0,0-.29.06,0.71,0.71,0,0,0-.23.17,0.89,0.89,0,0,0-.17.26,1.26,1.26,0,0,0-.09.34h1.47v0a1.09,1.09,0,0,0,0-.3,0.79,0.79,0,0,0-.13-0.26,0.67,0.67,0,0,0-.22-0.18A0.65,0.65,0,0,0,109.77,106Z"/><path d="M112.29,107.06a1.88,1.88,0,0,1,.07-0.52,1.19,1.19,0,0,1,.19-0.39,0.86,0.86,0,0,1,.3-0.25,0.87,0.87,0,0,1,.4-0.09,0.91,0.91,0,0,1,.45.1,0.9,0.9,0,0,1,.31.29v-1.38h0.27v3.49H114V108a0.85,0.85,0,0,1-.31.27,1,1,0,0,1-.46.1,0.83,0.83,0,0,1-.39-0.09,0.87,0.87,0,0,1-.3-0.26,1.21,1.21,0,0,1-.19-0.39,1.83,1.83,0,0,1-.07-0.51v0Zm0.28,0a1.74,1.74,0,0,0,0,.4,1,1,0,0,0,.13.32,0.62,0.62,0,0,0,.54.29,0.9,0.9,0,0,0,.25,0,0.74,0.74,0,0,0,.2-0.09,0.68,0.68,0,0,0,.15-0.14,0.91,0.91,0,0,0,.11-0.18v-1.15a1.09,1.09,0,0,0-.1-0.18,0.67,0.67,0,0,0-.15-0.15,0.72,0.72,0,0,0-.2-0.11,0.8,0.8,0,0,0-.26,0,0.64,0.64,0,0,0-.33.08,0.64,0.64,0,0,0-.22.21,1,1,0,0,0-.13.32,1.73,1.73,0,0,0,0,.4v0Z"/><path d="M114.83,107a1.5,1.5,0,0,1,.08-0.5,1.17,1.17,0,0,1,.22-0.39,1,1,0,0,1,.35-0.26,1.06,1.06,0,0,1,.45-0.09,1.07,1.07,0,0,1,.46.09,1,1,0,0,1,.35.26,1.15,1.15,0,0,1,.22.39,1.55,1.55,0,0,1,.08.5v0.08a1.55,1.55,0,0,1-.08.5,1.15,1.15,0,0,1-.22.39,1,1,0,0,1-.35.26,1.15,1.15,0,0,1-.9,0,1,1,0,0,1-.35-0.26,1.14,1.14,0,0,1-.22-0.39,1.5,1.5,0,0,1-.08-0.5V107Zm0.27,0.08a1.35,1.35,0,0,0,.05.38,1,1,0,0,0,.16.32,0.79,0.79,0,0,0,.26.22,0.75,0.75,0,0,0,.35.08,0.74,0.74,0,0,0,.35-0.08,0.78,0.78,0,0,0,.26-0.22,1,1,0,0,0,.16-0.32,1.35,1.35,0,0,0,.05-0.38V107a1.32,1.32,0,0,0-.05-0.38,1,1,0,0,0-.16-0.32,0.78,0.78,0,0,0-.26-0.22,0.74,0.74,0,0,0-.36-0.08,0.72,0.72,0,0,0-.35.08,0.8,0.8,0,0,0-.26.22,1,1,0,0,0-.16.32,1.32,1.32,0,0,0-.05.38v0.08Z"/><path d="M117.84,105.85v0.4a1.07,1.07,0,0,1,.14-0.18,0.81,0.81,0,0,1,.18-0.14,0.9,0.9,0,0,1,.22-0.09,1,1,0,0,1,.25,0,0.9,0.9,0,0,1,.46.11,0.63,0.63,0,0,1,.27.36,1,1,0,0,1,.14-0.19,0.86,0.86,0,0,1,.19-0.15,0.9,0.9,0,0,1,.23-0.1,1,1,0,0,1,.28,0,1.05,1.05,0,0,1,.34.05,0.62,0.62,0,0,1,.25.16,0.74,0.74,0,0,1,.16.28,1.36,1.36,0,0,1,.05.41v1.6h-0.27v-1.6a1,1,0,0,0,0-.32,0.48,0.48,0,0,0-.12-0.2,0.44,0.44,0,0,0-.19-0.11,0.94,0.94,0,0,0-.24,0,0.74,0.74,0,0,0-.3.06,0.73,0.73,0,0,0-.22.15,0.7,0.7,0,0,0-.14.21,0.68,0.68,0,0,0-.06.22v1.63h-0.27v-1.62a0.94,0.94,0,0,0,0-.31,0.5,0.5,0,0,0-.12-0.2,0.46,0.46,0,0,0-.19-0.11,0.87,0.87,0,0,0-.24,0,0.72,0.72,0,0,0-.27,0,0.69,0.69,0,0,0-.21.13,0.72,0.72,0,0,0-.14.19,1.12,1.12,0,0,0-.09.22v1.69h-0.27v-2.46h0.26Z"/><path d="M121.7,105.14a0.18,0.18,0,0,1,0-.13,0.17,0.17,0,0,1,.14-0.05,0.18,0.18,0,0,1,.19.18,0.18,0.18,0,0,1-.05.13,0.18,0.18,0,0,1-.14.05,0.18,0.18,0,0,1-.14-0.05A0.18,0.18,0,0,1,121.7,105.14Zm0.32,3.17h-0.27v-2.46H122v2.46Z"/><path d="M123,105.85v0.42a1.17,1.17,0,0,1,.15-0.19,0.87,0.87,0,0,1,.19-0.15,0.91,0.91,0,0,1,.22-0.09,0.94,0.94,0,0,1,.25,0,1,1,0,0,1,.33,0,0.61,0.61,0,0,1,.25.16,0.74,0.74,0,0,1,.16.28,1.42,1.42,0,0,1,.05.41v1.6h-0.27v-1.6a1.09,1.09,0,0,0,0-.32,0.52,0.52,0,0,0-.12-0.2,0.42,0.42,0,0,0-.18-0.11,0.84,0.84,0,0,0-.24,0,0.69,0.69,0,0,0-.26,0,0.74,0.74,0,0,0-.21.13,0.88,0.88,0,0,0-.16.19,1.05,1.05,0,0,0-.1.22v1.68h-0.27v-2.46H123Z"/><path d="M125.3,105.14a0.18,0.18,0,0,1,0-.13,0.17,0.17,0,0,1,.14-0.05,0.18,0.18,0,0,1,.19.18,0.18,0.18,0,0,1-.05.13,0.18,0.18,0,0,1-.14.05,0.18,0.18,0,0,1-.14-0.05A0.18,0.18,0,0,1,125.3,105.14Zm0.32,3.17h-0.27v-2.46h0.27v2.46Z"/><path d="M127.26,108.12a0.81,0.81,0,0,0,.25,0,0.65,0.65,0,0,0,.21-0.11,0.6,0.6,0,0,0,.15-0.18,0.57,0.57,0,0,0,.07-0.25h0.26a0.76,0.76,0,0,1-.09.32,0.84,0.84,0,0,1-.21.25,1,1,0,0,1-.3.17,1.11,1.11,0,0,1-.81,0,0.94,0.94,0,0,1-.33-0.26,1.15,1.15,0,0,1-.2-0.39,1.71,1.71,0,0,1-.07-0.48V107a1.71,1.71,0,0,1,.07-0.48,1.14,1.14,0,0,1,.2-0.39,0.94,0.94,0,0,1,.33-0.26,1,1,0,0,1,.45-0.1,1.07,1.07,0,0,1,.37.06,0.9,0.9,0,0,1,.29.17,0.84,0.84,0,0,1,.2.28,1,1,0,0,1,.08.36h-0.26a0.73,0.73,0,0,0-.07-0.27,0.63,0.63,0,0,0-.36-0.33,0.76,0.76,0,0,0-.26,0,0.73,0.73,0,0,0-.36.08,0.69,0.69,0,0,0-.24.22,1,1,0,0,0-.13.32,1.62,1.62,0,0,0,0,.38v0.09a1.66,1.66,0,0,0,0,.38,1,1,0,0,0,.13.32,0.68,0.68,0,0,0,.24.22A0.73,0.73,0,0,0,127.26,108.12Z"/><path d="M130.3,108.31a0.72,0.72,0,0,1,0-.16q0-.09,0-0.19a1,1,0,0,1-.33.27l-0.23.08a1.07,1.07,0,0,1-.27,0,1,1,0,0,1-.33-0.05,0.74,0.74,0,0,1-.25-0.15,0.66,0.66,0,0,1-.16-0.22,0.71,0.71,0,0,1,0-.6,0.68,0.68,0,0,1,.22-0.25,1.1,1.1,0,0,1,.35-0.16,1.91,1.91,0,0,1,.47-0.05h0.5V106.6a0.54,0.54,0,0,0-.16-0.42,0.67,0.67,0,0,0-.47-0.15,0.84,0.84,0,0,0-.26,0,0.67,0.67,0,0,0-.21.11,0.52,0.52,0,0,0-.14.16,0.4,0.4,0,0,0,0,.19h-0.27a0.56,0.56,0,0,1,.07-0.27,0.73,0.73,0,0,1,.19-0.23,1,1,0,0,1,.3-0.16,1.15,1.15,0,0,1,.39-0.06,1.23,1.23,0,0,1,.36,0,0.8,0.8,0,0,1,.28.15,0.68,0.68,0,0,1,.18.25,0.86,0.86,0,0,1,.07.35v1.19s0,0.09,0,.13,0,0.09,0,.13l0,0.12a0.55,0.55,0,0,0,0,.1v0H130.3Zm-0.85-.2a1,1,0,0,0,.27,0A0.89,0.89,0,0,0,130,108a0.82,0.82,0,0,0,.18-0.15,0.78,0.78,0,0,0,.12-0.19v-0.54h-0.47a1.73,1.73,0,0,0-.37,0,0.93,0.93,0,0,0-.28.11,0.52,0.52,0,0,0-.17.17,0.44,0.44,0,0,0-.06.23,0.47,0.47,0,0,0,0,.19,0.45,0.45,0,0,0,.11.15,0.54,0.54,0,0,0,.17.1A0.68,0.68,0,0,0,129.45,108.11Z"/><path d="M131.5,105.85v0.42a1.17,1.17,0,0,1,.15-0.19,0.87,0.87,0,0,1,.19-0.15,0.91,0.91,0,0,1,.22-0.09,0.94,0.94,0,0,1,.25,0,1,1,0,0,1,.33,0,0.61,0.61,0,0,1,.25.16,0.74,0.74,0,0,1,.16.28,1.42,1.42,0,0,1,.05.41v1.6h-0.27v-1.6a1.09,1.09,0,0,0,0-.32,0.52,0.52,0,0,0-.12-0.2,0.42,0.42,0,0,0-.18-0.11,0.84,0.84,0,0,0-.24,0,0.69,0.69,0,0,0-.26,0,0.74,0.74,0,0,0-.21.13,0.88,0.88,0,0,0-.16.19,1.05,1.05,0,0,0-.1.22v1.68h-0.27v-2.46h0.26Z"/><path d="M136.07,106.08l-0.18,0a0.72,0.72,0,0,0-.25,0,0.63,0.63,0,0,0-.2.11,0.67,0.67,0,0,0-.14.17,1,1,0,0,0-.09.22v1.69h-0.27v-2.46h0.27v0.39a0.81,0.81,0,0,1,.27-0.32,0.73,0.73,0,0,1,.42-0.12H136l0.08,0v0.25Z"/><path d="M137.41,108.35a1.08,1.08,0,0,1-.44-0.09,1.05,1.05,0,0,1-.35-0.25,1.15,1.15,0,0,1-.23-0.38,1.38,1.38,0,0,1-.08-0.48v-0.1a1.45,1.45,0,0,1,.09-0.51,1.19,1.19,0,0,1,.23-0.39,1,1,0,0,1,.33-0.25,0.94,0.94,0,0,1,.4-0.09,1,1,0,0,1,.42.08,0.87,0.87,0,0,1,.31.23,1,1,0,0,1,.19.36,1.55,1.55,0,0,1,.06.45v0.17h-1.75v0.05a1.16,1.16,0,0,0,.06.38,1,1,0,0,0,.17.31,0.82,0.82,0,0,0,.27.21,0.76,0.76,0,0,0,.34.08,0.89,0.89,0,0,0,.39-0.08,0.85,0.85,0,0,0,.3-0.25l0.17,0.13a1.15,1.15,0,0,1-.14.17,0.82,0.82,0,0,1-.19.14,1,1,0,0,1-.24.09A1.23,1.23,0,0,1,137.41,108.35Zm0-2.32a0.7,0.7,0,0,0-.29.06,0.71,0.71,0,0,0-.23.17,0.89,0.89,0,0,0-.17.26,1.26,1.26,0,0,0-.09.34h1.47v0a1.09,1.09,0,0,0,0-.3,0.79,0.79,0,0,0-.13-0.26,0.67,0.67,0,0,0-.22-0.18A0.65,0.65,0,0,0,137.36,106Z"/><path d="M140.83,107.1a1.92,1.92,0,0,1-.06.51,1.2,1.2,0,0,1-.18.39,0.86,0.86,0,0,1-.29.26,0.83,0.83,0,0,1-.4.09,1,1,0,0,1-.46-0.09,0.88,0.88,0,0,1-.32-0.26v1.25h-0.27v-3.4h0.25v0.35a0.9,0.9,0,0,1,.32-0.29,0.94,0.94,0,0,1,.45-0.1,0.89,0.89,0,0,1,.4.09,0.85,0.85,0,0,1,.3.25,1.19,1.19,0,0,1,.18.39,2,2,0,0,1,.06.52v0Zm-0.27,0a1.68,1.68,0,0,0,0-.4,1,1,0,0,0-.13-0.32,0.65,0.65,0,0,0-.23-0.21,0.64,0.64,0,0,0-.32-0.08,0.8,0.8,0,0,0-.26,0,0.67,0.67,0,0,0-.2.1,0.66,0.66,0,0,0-.15.15,1,1,0,0,0-.1.18v1.18a0.83,0.83,0,0,0,.11.17,0.69,0.69,0,0,0,.15.14,0.75,0.75,0,0,0,.2.09,0.9,0.9,0,0,0,.25,0,0.63,0.63,0,0,0,.32-0.08,0.65,0.65,0,0,0,.23-0.22,1,1,0,0,0,.13-0.32,1.7,1.7,0,0,0,0-.4v0Z"/><path d="M143,108a0.78,0.78,0,0,1-.31.26,1.08,1.08,0,0,1-.48.09,1,1,0,0,1-.33-0.05,0.63,0.63,0,0,1-.25-0.16,0.74,0.74,0,0,1-.17-0.29,1.38,1.38,0,0,1-.06-0.43v-1.57h0.27v1.58a1,1,0,0,0,0,.33,0.55,0.55,0,0,0,.12.21,0.44,0.44,0,0,0,.18.11,0.7,0.7,0,0,0,.22,0,1,1,0,0,0,.29,0,0.69,0.69,0,0,0,.22-0.1,0.59,0.59,0,0,0,.15-0.16,0.77,0.77,0,0,0,.09-0.2v-1.78h0.27v2.46H143V108Z"/><path d="M146,107.1a1.92,1.92,0,0,1-.06.51,1.18,1.18,0,0,1-.18.39,0.85,0.85,0,0,1-.29.26,0.84,0.84,0,0,1-.4.09,1,1,0,0,1-.46-0.1,0.88,0.88,0,0,1-.31-0.28v0.34H144v-3.49h0.27v1.39a0.89,0.89,0,0,1,.31-0.3,0.92,0.92,0,0,1,.46-0.11,0.88,0.88,0,0,1,.4.09,0.85,0.85,0,0,1,.3.25,1.15,1.15,0,0,1,.18.39,2,2,0,0,1,.06.52v0Zm-0.27,0a1.85,1.85,0,0,0,0-.4,1,1,0,0,0-.13-0.32A0.62,0.62,0,0,0,145,106a0.83,0.83,0,0,0-.27,0,0.7,0.7,0,0,0-.2.11,0.71,0.71,0,0,0-.15.16,1,1,0,0,0-.1.19v1.11a0.93,0.93,0,0,0,.11.18,0.67,0.67,0,0,0,.15.15,0.73,0.73,0,0,0,.2.1,0.88,0.88,0,0,0,.26,0,0.63,0.63,0,0,0,.32-0.08,0.64,0.64,0,0,0,.22-0.21,1,1,0,0,0,.13-0.32,1.8,1.8,0,0,0,0-.4v0Z"/><path d="M146.87,108.31H146.6v-3.49h0.27v3.49Z"/><path d="M147.6,105.14a0.18,0.18,0,0,1,0-.13,0.17,0.17,0,0,1,.14-0.05,0.18,0.18,0,0,1,.19.18,0.18,0.18,0,0,1-.05.13,0.18,0.18,0,0,1-.14.05,0.18,0.18,0,0,1-.14-0.05A0.18,0.18,0,0,1,147.6,105.14Zm0.32,3.17h-0.27v-2.46h0.27v2.46Z"/><path d="M149.56,108.12a0.81,0.81,0,0,0,.25,0A0.65,0.65,0,0,0,150,108a0.6,0.6,0,0,0,.15-0.18,0.57,0.57,0,0,0,.07-0.25h0.26a0.76,0.76,0,0,1-.09.32,0.84,0.84,0,0,1-.21.25,1,1,0,0,1-.3.17,1.11,1.11,0,0,1-.81,0,0.94,0.94,0,0,1-.33-0.26,1.15,1.15,0,0,1-.2-0.39,1.71,1.71,0,0,1-.07-0.48V107a1.71,1.71,0,0,1,.07-0.48,1.14,1.14,0,0,1,.2-0.39,0.94,0.94,0,0,1,.33-0.26,1,1,0,0,1,.45-0.1,1.07,1.07,0,0,1,.37.06,0.9,0.9,0,0,1,.29.17,0.84,0.84,0,0,1,.2.28,1,1,0,0,1,.08.36h-0.26a0.73,0.73,0,0,0-.07-0.27,0.63,0.63,0,0,0-.36-0.33,0.76,0.76,0,0,0-.26,0,0.73,0.73,0,0,0-.36.08,0.69,0.69,0,0,0-.24.22,1,1,0,0,0-.13.32,1.62,1.62,0,0,0,0,.38v0.09a1.66,1.66,0,0,0,0,.38,1,1,0,0,0,.13.32,0.68,0.68,0,0,0,.24.22A0.73,0.73,0,0,0,149.56,108.12Z"/><path d="M151,108.15a0.19,0.19,0,0,1,0-.13,0.2,0.2,0,0,1,.27,0,0.18,0.18,0,0,1,.05.13,0.17,0.17,0,0,1-.05.13,0.21,0.21,0,0,1-.27,0A0.17,0.17,0,0,1,151,108.15Zm0.3-.76h-0.25V105h0.28Z"/><path class="cls-1" d="M101.79,68.27V49.6a0,0,0,0,0,0,0H91.43a0,0,0,0,0,0,0V75.27l-0.07,0a30.9,30.9,0,0,1-6.44,1.82,0,0,0,0,1,0,0V58.4a0,0,0,0,0,0,0H74.51a0,0,0,0,0,0,0V77.53a0,0,0,0,1,0,0H68a0,0,0,0,1,0,0V63.59a0,0,0,0,0,0,0H57.58a0,0,0,0,0,0,0V77.53a0,0,0,0,1,0,0h-9a0,0,0,0,1,0,0V15.3a0,0,0,0,1,0,0H79.31a31.38,31.38,0,0,1,31.48,32.45,31,31,0,0,1-9,20.57A0,0,0,0,1,101.79,68.27Z"/></svg>