<svg id="Layer_1" data-name="Layer 1" xmlns="http://www.w3.org/2000/svg" viewBox="0 0 160 124.57"><defs><style>.cls-1{fill:#1f88e6;}</style></defs><title>160 x 160 px</title><path d="M38.92,78.57V65.85h3.59a6,6,0,0,1,2.29.42,5,5,0,0,1,1.77,1.2,5.4,5.4,0,0,1,1.14,1.89,7.21,7.21,0,0,1,.41,2.49v0.75a7.21,7.21,0,0,1-.41,2.49A5.29,5.29,0,0,1,46.56,77a5,5,0,0,1-1.81,1.19,6.53,6.53,0,0,1-2.38.42H38.92Zm1.68-11.34v10h1.76a4.53,4.53,0,0,0,1.78-.33,3.44,3.44,0,0,0,1.28-.93,4,4,0,0,0,.77-1.45,6.5,6.5,0,0,0,.26-1.9V71.82a6.61,6.61,0,0,0-.26-1.94,4,4,0,0,0-.77-1.44,3.27,3.27,0,0,0-1.24-.9,4.33,4.33,0,0,0-1.68-.31H40.59Z"/><path d="M50,73.76a5.83,5.83,0,0,1,.3-1.91,4.61,4.61,0,0,1,.86-1.52,3.92,3.92,0,0,1,1.35-1,4.21,4.21,0,0,1,1.78-.37,4.28,4.28,0,0,1,1.8.37,4,4,0,0,1,1.36,1,4.52,4.52,0,0,1,.86,1.52,5.93,5.93,0,0,1,.3,1.91v0.19a5.92,5.92,0,0,1-.3,1.91,4.47,4.47,0,0,1-.86,1.52,4,4,0,0,1-1.35,1,4.6,4.6,0,0,1-3.58,0,4,4,0,0,1-1.35-1,4.51,4.51,0,0,1-.86-1.52,5.83,5.83,0,0,1-.3-1.91V73.76Zm1.62,0.19a5.23,5.23,0,0,0,.17,1.34,3.4,3.4,0,0,0,.5,1.11,2.5,2.5,0,0,0,.84.75,2.6,2.6,0,0,0,2.34,0,2.45,2.45,0,0,0,.84-0.75,3.52,3.52,0,0,0,.5-1.11A5.08,5.08,0,0,0,57,73.95V73.76a5.1,5.1,0,0,0-.17-1.33,3.46,3.46,0,0,0-.51-1.11,2.54,2.54,0,0,0-.84-0.76,2.37,2.37,0,0,0-1.18-.28,2.3,2.3,0,0,0-1.16.28,2.56,2.56,0,0,0-.83.76,3.4,3.4,0,0,0-.5,1.11,5.25,5.25,0,0,0-.17,1.33v0.19Z"/><path d="M62.11,69.12l0,1a3.43,3.43,0,0,1,1.18-.9A3.81,3.81,0,0,1,65,68.94a3.49,3.49,0,0,1,1.62.36,2.41,2.41,0,0,1,1.08,1.16,3.58,3.58,0,0,1,1.23-1.1,3.62,3.62,0,0,1,1.79-.42,4.21,4.21,0,0,1,1.35.2,2.43,2.43,0,0,1,1,.62,2.7,2.7,0,0,1,.62,1.06,5,5,0,0,1,.21,1.54v6.21H72.22V72.35a2.89,2.89,0,0,0-.14-1,1.54,1.54,0,0,0-.41-0.63A1.45,1.45,0,0,0,71,70.41a3.5,3.5,0,0,0-.83-0.09,2.33,2.33,0,0,0-.88.16,2.08,2.08,0,0,0-.66.42,2,2,0,0,0-.44.63,2.54,2.54,0,0,0-.21.77v6.27H66.39V72.36a2.72,2.72,0,0,0-.14-0.94,1.54,1.54,0,0,0-1-1,2.85,2.85,0,0,0-.83-0.11,2.17,2.17,0,0,0-2.17,1.35v6.9H60.59V69.12h1.53Z"/><path d="M76.28,66.61a1,1,0,0,1,.24-0.66,0.9,0.9,0,0,1,.71-0.27,0.92,0.92,0,0,1,.72.27,1,1,0,0,1,.24.66,1,1,0,0,1-1.67.66A0.93,0.93,0,0,1,76.28,66.61Zm1.75,12H76.41V69.12H78v9.45Z"/><path d="M82.14,69.12l0.05,1.19a3.63,3.63,0,0,1,1.22-1A3.5,3.5,0,0,1,85,68.94a3.9,3.9,0,0,1,1.25.19,2.29,2.29,0,0,1,1,.6,2.79,2.79,0,0,1,.61,1.07A5.08,5.08,0,0,1,88,72.38v6.19H86.43V72.36a3.2,3.2,0,0,0-.12-0.94,1.56,1.56,0,0,0-.36-0.63,1.43,1.43,0,0,0-.59-0.36,2.67,2.67,0,0,0-.82-0.11,2.33,2.33,0,0,0-1.38.42,2.84,2.84,0,0,0-.93,1.1v6.73H80.61V69.12h1.53Z"/><path d="M90.49,66.61a1,1,0,0,1,.24-0.66,0.9,0.9,0,0,1,.71-0.27,0.92,0.92,0,0,1,.72.27,1,1,0,0,1,.25.66,1,1,0,0,1-1.67.66A0.93,0.93,0,0,1,90.49,66.61Zm1.75,12H90.62V69.12h1.62v9.45Z"/><path d="M98.61,77.42a2.42,2.42,0,0,0,.82-0.14,2.33,2.33,0,0,0,.69-0.38,2,2,0,0,0,.49-0.58,1.81,1.81,0,0,0,.22-0.73h1.53a2.83,2.83,0,0,1-.34,1.2,3.54,3.54,0,0,1-.82,1,4,4,0,0,1-1.17.69,3.91,3.91,0,0,1-1.42.26,4.25,4.25,0,0,1-1.86-.38,3.77,3.77,0,0,1-1.31-1,4.32,4.32,0,0,1-.78-1.5A6.24,6.24,0,0,1,94.4,74V73.66a6.23,6.23,0,0,1,.26-1.81,4.32,4.32,0,0,1,.78-1.5,3.78,3.78,0,0,1,1.31-1,4.21,4.21,0,0,1,1.85-.38,4.14,4.14,0,0,1,1.51.26,3.61,3.61,0,0,1,1.17.72,3.31,3.31,0,0,1,.77,1.09,3.74,3.74,0,0,1,.31,1.35h-1.53a2.47,2.47,0,0,0-.21-0.82,2.17,2.17,0,0,0-.46-0.66,2.14,2.14,0,0,0-.69-0.45,2.28,2.28,0,0,0-.89-0.17,2.38,2.38,0,0,0-1.24.3,2.36,2.36,0,0,0-.79.78,3.3,3.3,0,0,0-.42,1.09A6.2,6.2,0,0,0,96,73.66V74a6.27,6.27,0,0,0,.12,1.24,3.28,3.28,0,0,0,.42,1.09,2.3,2.3,0,0,0,.79.78A2.42,2.42,0,0,0,98.61,77.42Z"/><path d="M110,78.57a1.74,1.74,0,0,1-.14-0.44c0-.18-0.06-0.36-0.09-0.55a4.29,4.29,0,0,1-.51.45,3.66,3.66,0,0,1-.62.38,3.56,3.56,0,0,1-.73.25,3.63,3.63,0,0,1-.83.09,3.76,3.76,0,0,1-1.31-.22,3,3,0,0,1-1-.59,2.6,2.6,0,0,1-.64-0.89,2.66,2.66,0,0,1-.23-1.1,2.9,2.9,0,0,1,.3-1.34,2.67,2.67,0,0,1,.85-1A4,4,0,0,1,106.4,73a7.09,7.09,0,0,1,1.75-.2h1.61V72.1a1.82,1.82,0,0,0-.51-1.35,2,2,0,0,0-1.49-.5,2.67,2.67,0,0,0-.83.12,2.1,2.1,0,0,0-.64.33,1.52,1.52,0,0,0-.42.48,1.17,1.17,0,0,0-.15.57h-1.62a2.11,2.11,0,0,1,.27-1,3,3,0,0,1,.76-0.9,4,4,0,0,1,1.18-.65,4.57,4.57,0,0,1,1.55-.25,4.87,4.87,0,0,1,1.42.2,3,3,0,0,1,1.11.59,2.75,2.75,0,0,1,.72,1,3.41,3.41,0,0,1,.26,1.39v4.39a6.58,6.58,0,0,0,.08,1,3.82,3.82,0,0,0,.25.91v0.14H110Zm-2.68-1.23a2.7,2.7,0,0,0,.82-0.12,3.05,3.05,0,0,0,.7-0.32,2.61,2.61,0,0,0,.55-0.45,2.22,2.22,0,0,0,.36-0.52V74h-1.34a4.34,4.34,0,0,0-2.14.43,1.41,1.41,0,0,0-.75,1.31,1.75,1.75,0,0,0,.11.64,1.33,1.33,0,0,0,.34.51,1.71,1.71,0,0,0,.57.34A2.2,2.2,0,0,0,107.34,77.34Z"/><path d="M115.44,69.12l0.05,1.19a3.65,3.65,0,0,1,1.22-1,3.51,3.51,0,0,1,1.61-.36,3.9,3.9,0,0,1,1.25.19,2.29,2.29,0,0,1,1,.6,2.8,2.8,0,0,1,.61,1.07,5.08,5.08,0,0,1,.21,1.58v6.19h-1.62V72.36a3.17,3.17,0,0,0-.12-0.94,1.56,1.56,0,0,0-.36-0.63,1.44,1.44,0,0,0-.59-0.36,2.67,2.67,0,0,0-.82-0.11,2.33,2.33,0,0,0-1.38.42,2.84,2.84,0,0,0-.93,1.1v6.73h-1.62V69.12h1.53Z"/><path d="M47.25,87.24a6.54,6.54,0,0,1-.29,2,4.51,4.51,0,0,1-.83,1.54,3.66,3.66,0,0,1-1.31,1,4.11,4.11,0,0,1-1.71.35,4.07,4.07,0,0,1-1.7-.35,3.77,3.77,0,0,1-1.31-1,4.5,4.5,0,0,1-.85-1.54,6.4,6.4,0,0,1-.3-2V86.1a6.43,6.43,0,0,1,.3-2,4.61,4.61,0,0,1,.84-1.55,3.7,3.7,0,0,1,1.31-1,4.07,4.07,0,0,1,1.7-.35,4.11,4.11,0,0,1,1.71.35,3.72,3.72,0,0,1,1.31,1A4.48,4.48,0,0,1,47,84.07a6.58,6.58,0,0,1,.29,2v1.14Zm-0.9-1.16a6.16,6.16,0,0,0-.22-1.71,3.75,3.75,0,0,0-.64-1.29,2.84,2.84,0,0,0-1-.82A3.17,3.17,0,0,0,43.1,82a3.11,3.11,0,0,0-1.36.29,2.88,2.88,0,0,0-1,.82,3.75,3.75,0,0,0-.64,1.29,6,6,0,0,0-.22,1.71v1.16A6,6,0,0,0,40.08,89a3.81,3.81,0,0,0,.65,1.3,2.87,2.87,0,0,0,1,.82,3.13,3.13,0,0,0,1.36.29,3.19,3.19,0,0,0,1.38-.29,2.77,2.77,0,0,0,1-.82,3.77,3.77,0,0,0,.63-1.3,6.27,6.27,0,0,0,.22-1.71V86.09Z"/><path d="M55.68,88.11a6.21,6.21,0,0,1-.2,1.63A3.84,3.84,0,0,1,54.89,91a2.76,2.76,0,0,1-.95.83,2.68,2.68,0,0,1-1.28.3,3.3,3.3,0,0,1-1.47-.3,2.8,2.8,0,0,1-1-.84v4H49.31v-11h0.81l0,1.12a2.9,2.9,0,0,1,1-.93,3,3,0,0,1,1.46-.34,2.84,2.84,0,0,1,1.29.29,2.66,2.66,0,0,1,1,.81,3.79,3.79,0,0,1,.59,1.27,6.39,6.39,0,0,1,.2,1.67v0.15ZM54.81,88a5.56,5.56,0,0,0-.14-1.29,3.25,3.25,0,0,0-.43-1,2.12,2.12,0,0,0-.74-0.69,2.1,2.1,0,0,0-1-.25,2.61,2.61,0,0,0-.84.13,2.22,2.22,0,0,0-.64.33,2.19,2.19,0,0,0-.47.48,3,3,0,0,0-.32.58V90a2.64,2.64,0,0,0,.35.56A2.2,2.2,0,0,0,51,91a2.37,2.37,0,0,0,.64.29,2.81,2.81,0,0,0,.8.11,2,2,0,0,0,1-.25,2.13,2.13,0,0,0,.73-0.69,3.3,3.3,0,0,0,.43-1,5.59,5.59,0,0,0,.14-1.3V88Z"/><path d="M60.69,92.14a3.48,3.48,0,0,1-1.43-.29,3.34,3.34,0,0,1-1.12-.8,3.71,3.71,0,0,1-.74-1.23,4.45,4.45,0,0,1-.26-1.56V87.94a4.75,4.75,0,0,1,.27-1.66A3.92,3.92,0,0,1,58.16,85a3.33,3.33,0,0,1,1.08-.81,3,3,0,0,1,1.29-.29,3.17,3.17,0,0,1,1.34.27,2.77,2.77,0,0,1,1,.75,3.31,3.31,0,0,1,.6,1.15,4.94,4.94,0,0,1,.2,1.46v0.53H58v0.17a3.74,3.74,0,0,0,.2,1.23,3.07,3.07,0,0,0,.56,1,2.62,2.62,0,0,0,.86.67,2.47,2.47,0,0,0,1.1.25A2.85,2.85,0,0,0,62,91.14a2.76,2.76,0,0,0,1-.82l0.55,0.42a3.87,3.87,0,0,1-.46.54,2.75,2.75,0,0,1-.6.45,3.2,3.2,0,0,1-.78.3A3.92,3.92,0,0,1,60.69,92.14Zm-0.16-7.46a2.23,2.23,0,0,0-.92.19,2.3,2.3,0,0,0-.75.54,2.88,2.88,0,0,0-.53.84A4.07,4.07,0,0,0,58,87.34h4.75v-0.1a3.53,3.53,0,0,0-.16-1,2.57,2.57,0,0,0-.43-0.82A2,2,0,0,0,60.53,84.67Z"/><path d="M66.2,84.07l0,1.35a3.58,3.58,0,0,1,.47-0.61A2.87,2.87,0,0,1,68,84a3,3,0,0,1,.81-0.11,3.25,3.25,0,0,1,1.06.16,1.91,1.91,0,0,1,.79.51,2.31,2.31,0,0,1,.5.9,4.53,4.53,0,0,1,.17,1.34V92H70.47V86.83a3.39,3.39,0,0,0-.13-1A1.65,1.65,0,0,0,70,85.15a1.36,1.36,0,0,0-.59-0.36,2.65,2.65,0,0,0-.77-0.11,2.19,2.19,0,0,0-.85.16,2.33,2.33,0,0,0-.67.42,2.79,2.79,0,0,0-.5.6,3.47,3.47,0,0,0-.34.7V92H65.37V84.07H66.2Z"/><path d="M83.48,89.37a2,2,0,0,0-.14-0.78A1.64,1.64,0,0,0,82.85,88a3.63,3.63,0,0,0-.9-0.52A12,12,0,0,0,80.57,87a12.89,12.89,0,0,1-1.45-.49A4.55,4.55,0,0,1,78,85.87a2.6,2.6,0,0,1-.7-0.83,2.33,2.33,0,0,1-.25-1.1,2.38,2.38,0,0,1,.26-1.12A2.58,2.58,0,0,1,78.08,82a3.56,3.56,0,0,1,1.13-.56,4.9,4.9,0,0,1,1.44-.2,4.39,4.39,0,0,1,1.52.25,3.5,3.5,0,0,1,1.15.68,3,3,0,0,1,.73,1,3,3,0,0,1,.26,1.24H83.41a2.49,2.49,0,0,0-.18-1,2.14,2.14,0,0,0-.53-0.76,2.51,2.51,0,0,0-.86-0.5A3.46,3.46,0,0,0,80.66,82a3.9,3.9,0,0,0-1.16.16,2.55,2.55,0,0,0-.83.42,1.79,1.79,0,0,0-.5.63,1.73,1.73,0,0,0-.17.76,1.72,1.72,0,0,0,.14.7,1.64,1.64,0,0,0,.48.6,3.78,3.78,0,0,0,.89.51,9.67,9.67,0,0,0,1.35.45,12.41,12.41,0,0,1,1.5.51,4.41,4.41,0,0,1,1.11.66,2.55,2.55,0,0,1,.69.87,2.6,2.6,0,0,1,.23,1.13,2.45,2.45,0,0,1-.27,1.17,2.59,2.59,0,0,1-.76.87,3.57,3.57,0,0,1-1.16.55,5.37,5.37,0,0,1-1.46.19,5.75,5.75,0,0,1-1-.08,5,5,0,0,1-.92-0.25A4,4,0,0,1,78,91.39a2.91,2.91,0,0,1-.67-0.61A2.86,2.86,0,0,1,76.91,90a3,3,0,0,1-.16-1h0.9a2.18,2.18,0,0,0,.28,1.14,2.27,2.27,0,0,0,.72.75,3.06,3.06,0,0,0,1,.41,4.78,4.78,0,0,0,1.1.13,4.17,4.17,0,0,0,1.13-.14,2.71,2.71,0,0,0,.87-0.41,1.83,1.83,0,0,0,.56-0.63A1.75,1.75,0,0,0,83.48,89.37Z"/><path d="M85.64,87.91a4.87,4.87,0,0,1,.25-1.59,3.77,3.77,0,0,1,.71-1.26,3.26,3.26,0,0,1,1.11-.83,3.43,3.43,0,0,1,1.45-.3,3.5,3.5,0,0,1,1.47.3,3.27,3.27,0,0,1,1.12.83,3.74,3.74,0,0,1,.71,1.26,4.92,4.92,0,0,1,.25,1.59v0.24a4.93,4.93,0,0,1-.25,1.6A3.75,3.75,0,0,1,91.75,91a3.22,3.22,0,0,1-1.11.83,3.72,3.72,0,0,1-2.91,0A3.25,3.25,0,0,1,86.61,91a3.75,3.75,0,0,1-.72-1.26,4.87,4.87,0,0,1-.25-1.6V87.91Zm0.88,0.24a4.36,4.36,0,0,0,.17,1.24,3.19,3.19,0,0,0,.51,1,2.52,2.52,0,0,0,.83.71,2.6,2.6,0,0,0,2.28,0,2.53,2.53,0,0,0,.83-0.71,3.19,3.19,0,0,0,.51-1,4.36,4.36,0,0,0,.17-1.24V87.91a4.29,4.29,0,0,0-.17-1.23,3.23,3.23,0,0,0-.51-1,2.52,2.52,0,0,0-.84-0.71,2.4,2.4,0,0,0-1.15-.27,2.34,2.34,0,0,0-1.13.27,2.53,2.53,0,0,0-.83.71,3.23,3.23,0,0,0-.51,1,4.29,4.29,0,0,0-.17,1.23v0.24Z"/><path d="M99.61,91a2.53,2.53,0,0,1-1,.85,3.46,3.46,0,0,1-1.53.3A3.21,3.21,0,0,1,96,92a2,2,0,0,1-.82-0.52,2.39,2.39,0,0,1-.53-0.92,4.47,4.47,0,0,1-.19-1.38V84.07h0.87v5.09a3.29,3.29,0,0,0,.15,1.06,1.79,1.79,0,0,0,.39.68,1.42,1.42,0,0,0,.58.37,2.24,2.24,0,0,0,.71.11,3.34,3.34,0,0,0,.93-0.12,2.25,2.25,0,0,0,.7-0.33,1.94,1.94,0,0,0,.48-0.5,2.46,2.46,0,0,0,.3-0.63V84.07h0.88V92H99.62V91Z"/><path d="M106.41,84.82a3.27,3.27,0,0,0-.59-0.05,2.32,2.32,0,0,0-.81.13,2,2,0,0,0-.63.37,2.19,2.19,0,0,0-.46.56,3.17,3.17,0,0,0-.3.72V92h-0.87V84.07h0.86v1.26a2.61,2.61,0,0,1,.87-1,2.36,2.36,0,0,1,1.36-.38l0.33,0a1.09,1.09,0,0,1,.25.07Z"/><path d="M110.58,91.4a2.64,2.64,0,0,0,.8-0.12,2.14,2.14,0,0,0,.68-0.35,1.92,1.92,0,0,0,.49-0.58,1.84,1.84,0,0,0,.22-0.8h0.84a2.45,2.45,0,0,1-.28,1,2.71,2.71,0,0,1-.67.82,3.13,3.13,0,0,1-1,.54,3.57,3.57,0,0,1-2.6-.11,3,3,0,0,1-1.06-.84,3.68,3.68,0,0,1-.64-1.25,5.41,5.41,0,0,1-.22-1.56V87.88a5.41,5.41,0,0,1,.22-1.56,3.66,3.66,0,0,1,.64-1.25,3,3,0,0,1,1.06-.84,3.3,3.3,0,0,1,1.46-.31,3.46,3.46,0,0,1,1.18.2,2.87,2.87,0,0,1,1,.56,2.69,2.69,0,0,1,.65.89,3.09,3.09,0,0,1,.27,1.17h-0.84a2.33,2.33,0,0,0-.21-0.86,2,2,0,0,0-1.16-1.06,2.41,2.41,0,0,0-.84-0.14,2.33,2.33,0,0,0-1.15.26,2.22,2.22,0,0,0-.77.71,3.09,3.09,0,0,0-.44,1,5.31,5.31,0,0,0-.13,1.21v0.31a5.38,5.38,0,0,0,.13,1.22,3.09,3.09,0,0,0,.43,1,2.19,2.19,0,0,0,.78.71A2.37,2.37,0,0,0,110.58,91.4Z"/><path d="M118.44,92.14a3.48,3.48,0,0,1-1.43-.29,3.35,3.35,0,0,1-1.12-.8,3.71,3.71,0,0,1-.74-1.23,4.44,4.44,0,0,1-.26-1.56V87.94a4.76,4.76,0,0,1,.27-1.66A3.92,3.92,0,0,1,115.9,85a3.34,3.34,0,0,1,1.08-.81,3,3,0,0,1,1.29-.29,3.17,3.17,0,0,1,1.34.27,2.77,2.77,0,0,1,1,.75,3.32,3.32,0,0,1,.6,1.15,4.92,4.92,0,0,1,.21,1.46v0.53h-5.65v0.17a3.76,3.76,0,0,0,.2,1.23,3.07,3.07,0,0,0,.56,1,2.63,2.63,0,0,0,.86.67,2.47,2.47,0,0,0,1.1.25,2.85,2.85,0,0,0,1.24-.26,2.75,2.75,0,0,0,1-.82l0.55,0.42a3.81,3.81,0,0,1-.46.54,2.73,2.73,0,0,1-.6.45,3.2,3.2,0,0,1-.78.3A3.92,3.92,0,0,1,118.44,92.14Zm-0.16-7.46a2.22,2.22,0,0,0-.92.19,2.29,2.29,0,0,0-.75.54,2.85,2.85,0,0,0-.53.84,4.05,4.05,0,0,0-.28,1.09h4.75v-0.1a3.57,3.57,0,0,0-.16-1,2.58,2.58,0,0,0-.43-0.82,2.1,2.1,0,0,0-.7-0.57A2.08,2.08,0,0,0,118.27,84.67Z"/><path d="M3.3,114.21v-3.55h1a1.59,1.59,0,0,1,.61.12,1.38,1.38,0,0,1,.48.33,1.51,1.51,0,0,1,.31.51,1.87,1.87,0,0,1,.11.66v0.33a1.88,1.88,0,0,1-.11.66,1.47,1.47,0,0,1-.31.51,1.38,1.38,0,0,1-.49.33,1.64,1.64,0,0,1-.62.12h-1Zm0.3-3.3v3H4.27a1.3,1.3,0,0,0,.52-0.1,1.12,1.12,0,0,0,.39-0.28,1.25,1.25,0,0,0,.25-0.43,1.69,1.69,0,0,0,.09-0.55v-0.33a1.68,1.68,0,0,0-.09-0.56,1.23,1.23,0,0,0-.25-0.43A1.1,1.1,0,0,0,4.79,111a1.25,1.25,0,0,0-.5-0.1H3.6Z"/><path d="M6.49,110.8a0.2,0.2,0,0,1,.05-0.14,0.19,0.19,0,0,1,.15-0.06,0.19,0.19,0,0,1,.2.2,0.19,0.19,0,0,1-.05.14,0.2,0.2,0,0,1-.15.06A0.19,0.19,0,0,1,6.49,110.8Zm0.34,3.41H6.54v-2.64H6.83v2.64Z"/><path d="M9.21,113.54a0.47,0.47,0,0,0,0-.16,0.38,0.38,0,0,0-.1-0.15,0.79,0.79,0,0,0-.21-0.13A1.78,1.78,0,0,0,8.5,113l-0.39-.11a1.11,1.11,0,0,1-.29-0.15,0.58,0.58,0,0,1-.18-0.21,0.65,0.65,0,0,1,0-.56,0.68,0.68,0,0,1,.19-0.23,0.93,0.93,0,0,1,.29-0.15,1.22,1.22,0,0,1,.39-0.06,1.31,1.31,0,0,1,.41.06,0.92,0.92,0,0,1,.31.17,0.72,0.72,0,0,1,.19.25,0.75,0.75,0,0,1,.07.31H9.19a0.47,0.47,0,0,0,0-.2A0.51,0.51,0,0,0,9,111.93a0.67,0.67,0,0,0-.21-0.12,0.85,0.85,0,0,0-.29,0,0.92,0.92,0,0,0-.29,0,0.63,0.63,0,0,0-.2.11,0.41,0.41,0,0,0-.11.15,0.41,0.41,0,0,0,0,.16,0.45,0.45,0,0,0,0,.16,0.33,0.33,0,0,0,.1.13,0.82,0.82,0,0,0,.21.11l0.36,0.1a2.93,2.93,0,0,1,.41.12,1.05,1.05,0,0,1,.29.16,0.61,0.61,0,0,1,.17.21,0.68,0.68,0,0,1,.05.28,0.66,0.66,0,0,1-.07.3,0.67,0.67,0,0,1-.2.23,1,1,0,0,1-.31.15,1.55,1.55,0,0,1-.85,0A1,1,0,0,1,7.76,114a0.73,0.73,0,0,1-.2-0.25,0.69,0.69,0,0,1-.07-0.3H7.78a0.51,0.51,0,0,0,.08.26,0.56,0.56,0,0,0,.18.17,0.76,0.76,0,0,0,.23.09l0.25,0a1,1,0,0,0,.29,0A0.69,0.69,0,0,0,9,113.87a0.45,0.45,0,0,0,.13-0.15A0.38,0.38,0,0,0,9.21,113.54Z"/><path d="M11.13,114a0.88,0.88,0,0,0,.27,0,0.72,0.72,0,0,0,.23-0.12,0.63,0.63,0,0,0,.16-0.19,0.61,0.61,0,0,0,.07-0.27h0.28a0.83,0.83,0,0,1-.09.35,0.91,0.91,0,0,1-.22.27,1,1,0,0,1-.32.18,1.13,1.13,0,0,1-.38.06,1.11,1.11,0,0,1-.49-0.1,1,1,0,0,1-.35-0.28,1.22,1.22,0,0,1-.21-0.42,1.79,1.79,0,0,1-.07-0.52v-0.1a1.79,1.79,0,0,1,.07-0.52,1.23,1.23,0,0,1,.21-0.42,1,1,0,0,1,.35-0.28,1.1,1.1,0,0,1,.49-0.1,1.17,1.17,0,0,1,.39.07,1,1,0,0,1,.32.19,0.9,0.9,0,0,1,.22.3,1,1,0,0,1,.09.39H11.87a0.78,0.78,0,0,0-.07-0.29,0.7,0.7,0,0,0-.16-0.22,0.68,0.68,0,0,0-.23-0.14,0.8,0.8,0,0,0-.28,0,0.78,0.78,0,0,0-.38.09,0.74,0.74,0,0,0-.26.24,1,1,0,0,0-.15.34,1.79,1.79,0,0,0,0,.4v0.1a1.8,1.8,0,0,0,0,.41,1,1,0,0,0,.14.34,0.72,0.72,0,0,0,.26.24A0.79,0.79,0,0,0,11.13,114Z"/><path d="M12.57,112.85a1.64,1.64,0,0,1,.08-0.53,1.28,1.28,0,0,1,.24-0.42,1.08,1.08,0,0,1,.37-0.28,1.13,1.13,0,0,1,.48-0.1,1.15,1.15,0,0,1,.49.1,1.08,1.08,0,0,1,.37.28,1.25,1.25,0,0,1,.24.42,1.65,1.65,0,0,1,.08.53v0.08a1.65,1.65,0,0,1-.08.53,1.24,1.24,0,0,1-.24.42,1.08,1.08,0,0,1-.37.28,1.25,1.25,0,0,1-1,0,1.09,1.09,0,0,1-.37-0.28,1.26,1.26,0,0,1-.24-0.42,1.63,1.63,0,0,1-.08-0.53v-0.08Zm0.29,0.08a1.44,1.44,0,0,0,.06.41,1.07,1.07,0,0,0,.17.34,0.83,0.83,0,0,0,.28.24,0.87,0.87,0,0,0,.76,0,0.84,0.84,0,0,0,.28-0.24,1.07,1.07,0,0,0,.17-0.34,1.44,1.44,0,0,0,.06-0.41v-0.08a1.42,1.42,0,0,0-.06-0.41,1.09,1.09,0,0,0-.17-0.35,0.84,0.84,0,0,0-.28-0.24,0.8,0.8,0,0,0-.38-0.09,0.78,0.78,0,0,0-.38.09,0.84,0.84,0,0,0-.28.24,1.09,1.09,0,0,0-.17.35,1.42,1.42,0,0,0-.06.41v0.08Z"/><path d="M16.32,113.8l0.8-2.24h0.3l-1,2.64H16.2l-1-2.64h0.3Z"/><path d="M18.89,114.26a1.16,1.16,0,0,1-.48-0.1,1.11,1.11,0,0,1-.37-0.27,1.24,1.24,0,0,1-.25-0.41,1.49,1.49,0,0,1-.09-0.52v-0.1a1.58,1.58,0,0,1,.09-0.55,1.29,1.29,0,0,1,.25-0.42,1.13,1.13,0,0,1,.36-0.27,1,1,0,0,1,.43-0.09,1,1,0,0,1,.45.09,0.91,0.91,0,0,1,.33.25,1.1,1.1,0,0,1,.2.38,1.64,1.64,0,0,1,.07.49v0.18H18V113a1.25,1.25,0,0,0,.07.41,1,1,0,0,0,.19.33,0.87,0.87,0,0,0,.29.22,0.82,0.82,0,0,0,.37.08,1,1,0,0,0,.41-0.09,0.92,0.92,0,0,0,.33-0.27l0.18,0.14a1.26,1.26,0,0,1-.15.18,0.92,0.92,0,0,1-.2.15,1.06,1.06,0,0,1-.26.1A1.26,1.26,0,0,1,18.89,114.26Zm-0.05-2.49a0.75,0.75,0,0,0-.31.06,0.77,0.77,0,0,0-.25.18,1,1,0,0,0-.18.28,1.33,1.33,0,0,0-.09.36h1.58v0a1.18,1.18,0,0,0-.05-0.32A0.86,0.86,0,0,0,19.4,112,0.68,0.68,0,0,0,18.84,111.77Z"/><path d="M21.67,111.81l-0.2,0a0.77,0.77,0,0,0-.27,0A0.69,0.69,0,0,0,21,112a0.72,0.72,0,0,0-.15.19,1,1,0,0,0-.1.24v1.81H20.45v-2.64h0.29V112a0.88,0.88,0,0,1,.29-0.34,0.78,0.78,0,0,1,.45-0.13H21.6l0.08,0v0.27Z"/><path d="M23.81,110.89v0.68h0.55v0.24H23.81v1.76a0.71,0.71,0,0,0,0,.22,0.33,0.33,0,0,0,.08.13A0.23,0.23,0,0,0,24,114l0.13,0h0.13l0.11,0v0.24l-0.14,0H24.09a0.76,0.76,0,0,1-.23,0,0.41,0.41,0,0,1-.18-0.11,0.55,0.55,0,0,1-.12-0.21,1.08,1.08,0,0,1,0-.33V111.8H23v-0.24h0.49v-0.68h0.29Z"/><path d="M25.25,112a1.11,1.11,0,0,1,.16-0.2,1,1,0,0,1,.43-0.26,1,1,0,0,1,.27,0,1.08,1.08,0,0,1,.35.05,0.64,0.64,0,0,1,.26.17,0.77,0.77,0,0,1,.17.3,1.5,1.5,0,0,1,.06.45v1.72H26.66v-1.72a1.13,1.13,0,0,0,0-.34,0.55,0.55,0,0,0-.12-0.22,0.46,0.46,0,0,0-.2-0.12,0.89,0.89,0,0,0-.26,0,0.73,0.73,0,0,0-.28.05,0.78,0.78,0,0,0-.22.14,0.94,0.94,0,0,0-.17.2,1.14,1.14,0,0,0-.11.23v1.81H25v-3.75h0.29V112Z"/><path d="M28.72,114.26a1.16,1.16,0,0,1-.48-0.1,1.11,1.11,0,0,1-.37-0.27,1.24,1.24,0,0,1-.25-0.41,1.49,1.49,0,0,1-.09-0.52v-0.1a1.58,1.58,0,0,1,.09-0.55,1.29,1.29,0,0,1,.25-0.42,1.13,1.13,0,0,1,.36-0.27,1,1,0,0,1,.43-0.09,1,1,0,0,1,.45.09,0.91,0.91,0,0,1,.33.25,1.1,1.1,0,0,1,.2.38,1.64,1.64,0,0,1,.07.49v0.18H27.83V113a1.25,1.25,0,0,0,.07.41,1,1,0,0,0,.19.33,0.87,0.87,0,0,0,.29.22,0.82,0.82,0,0,0,.37.08,1,1,0,0,0,.41-0.09,0.92,0.92,0,0,0,.33-0.27l0.18,0.14a1.26,1.26,0,0,1-.15.18,0.92,0.92,0,0,1-.2.15,1.06,1.06,0,0,1-.26.1A1.26,1.26,0,0,1,28.72,114.26Zm-0.05-2.49a0.75,0.75,0,0,0-.31.06,0.77,0.77,0,0,0-.25.18,1,1,0,0,0-.18.28,1.33,1.33,0,0,0-.09.36h1.58v0a1.18,1.18,0,0,0-.05-0.32,0.86,0.86,0,0,0-.14-0.27A0.68,0.68,0,0,0,28.67,111.77Z"/><path d="M31.34,112.85a1.64,1.64,0,0,1,.08-0.53,1.28,1.28,0,0,1,.24-0.42,1.08,1.08,0,0,1,.37-0.28,1.13,1.13,0,0,1,.48-0.1,1.15,1.15,0,0,1,.49.1,1.08,1.08,0,0,1,.37.28,1.25,1.25,0,0,1,.24.42,1.65,1.65,0,0,1,.08.53v0.08a1.65,1.65,0,0,1-.08.53,1.24,1.24,0,0,1-.24.42,1.08,1.08,0,0,1-.37.28,1.25,1.25,0,0,1-1,0,1.09,1.09,0,0,1-.37-0.28,1.26,1.26,0,0,1-.24-0.42,1.63,1.63,0,0,1-.08-0.53v-0.08Zm0.29,0.08a1.44,1.44,0,0,0,.06.41,1.07,1.07,0,0,0,.17.34,0.83,0.83,0,0,0,.28.24,0.87,0.87,0,0,0,.76,0,0.84,0.84,0,0,0,.28-0.24,1.07,1.07,0,0,0,.17-0.34,1.44,1.44,0,0,0,.06-0.41v-0.08a1.42,1.42,0,0,0-.06-0.41,1.09,1.09,0,0,0-.17-0.35,0.84,0.84,0,0,0-.28-0.24,0.8,0.8,0,0,0-.38-0.09,0.78,0.78,0,0,0-.38.09,0.84,0.84,0,0,0-.28.24,1.09,1.09,0,0,0-.17.35,1.42,1.42,0,0,0-.06.41v0.08Z"/><path d="M36.42,112.91a2.06,2.06,0,0,1-.07.54,1.27,1.27,0,0,1-.2.42,0.93,0.93,0,0,1-.32.28,0.9,0.9,0,0,1-.43.1,1.1,1.1,0,0,1-.49-0.1,0.93,0.93,0,0,1-.34-0.28v1.35H34.3v-3.66h0.27v0.37a1,1,0,0,1,.34-0.31,1,1,0,0,1,.49-0.11,1,1,0,0,1,.43.09,0.9,0.9,0,0,1,.32.27,1.26,1.26,0,0,1,.2.42,2.11,2.11,0,0,1,.07.55v0.05Zm-0.29-.05a1.83,1.83,0,0,0,0-.43,1.08,1.08,0,0,0-.14-0.35,0.72,0.72,0,0,0-.25-0.23,0.7,0.7,0,0,0-.35-0.08,0.85,0.85,0,0,0-.28,0,0.72,0.72,0,0,0-.37.27,1,1,0,0,0-.11.19v1.27a0.85,0.85,0,0,0,.12.19,0.71,0.71,0,0,0,.16.15,0.78,0.78,0,0,0,.21.1,1,1,0,0,0,.27,0,0.68,0.68,0,0,0,.35-0.08,0.71,0.71,0,0,0,.24-0.23,1.1,1.1,0,0,0,.14-0.35,1.85,1.85,0,0,0,0-.43v-0.05Z"/><path d="M38.09,114.26a1.16,1.16,0,0,1-.48-0.1,1.11,1.11,0,0,1-.37-0.27,1.24,1.24,0,0,1-.25-0.41,1.49,1.49,0,0,1-.09-0.52v-0.1A1.58,1.58,0,0,1,37,112.3a1.29,1.29,0,0,1,.25-0.42,1.13,1.13,0,0,1,.36-0.27,1,1,0,0,1,.43-0.09,1,1,0,0,1,.45.09,0.91,0.91,0,0,1,.33.25,1.1,1.1,0,0,1,.2.38,1.64,1.64,0,0,1,.07.49v0.18H37.2V113a1.25,1.25,0,0,0,.07.41,1,1,0,0,0,.19.33,0.87,0.87,0,0,0,.29.22,0.82,0.82,0,0,0,.37.08,1,1,0,0,0,.41-0.09,0.92,0.92,0,0,0,.33-0.27L39,113.79a1.26,1.26,0,0,1-.15.18,0.92,0.92,0,0,1-.2.15,1.06,1.06,0,0,1-.26.1A1.26,1.26,0,0,1,38.09,114.26ZM38,111.77a0.75,0.75,0,0,0-.31.06,0.77,0.77,0,0,0-.25.18,1,1,0,0,0-.18.28,1.33,1.33,0,0,0-.09.36H38.8v0a1.18,1.18,0,0,0-.05-0.32A0.86,0.86,0,0,0,38.6,112,0.68,0.68,0,0,0,38,111.77Z"/><path d="M39.93,111.57V112a1.16,1.16,0,0,1,.16-0.21,1,1,0,0,1,.2-0.16,1,1,0,0,1,.24-0.1,1,1,0,0,1,.27,0,1.08,1.08,0,0,1,.35.05,0.64,0.64,0,0,1,.26.17,0.77,0.77,0,0,1,.17.3,1.5,1.5,0,0,1,.06.45v1.72H41.36v-1.72a1.13,1.13,0,0,0,0-.34,0.55,0.55,0,0,0-.12-0.22,0.46,0.46,0,0,0-.2-0.12,0.89,0.89,0,0,0-.26,0,0.73,0.73,0,0,0-.28.05,0.78,0.78,0,0,0-.22.14,0.94,0.94,0,0,0-.17.2,1.14,1.14,0,0,0-.11.23v1.81H39.65v-2.64h0.28Z"/><path d="M45.2,113.54a0.47,0.47,0,0,0,0-.16,0.38,0.38,0,0,0-.1-0.15,0.79,0.79,0,0,0-.21-0.13,1.78,1.78,0,0,0-.36-0.11l-0.39-.11a1.11,1.11,0,0,1-.29-0.15,0.58,0.58,0,0,1-.18-0.21,0.65,0.65,0,0,1,0-.56,0.68,0.68,0,0,1,.19-0.23,0.93,0.93,0,0,1,.29-0.15,1.22,1.22,0,0,1,.39-0.06,1.31,1.31,0,0,1,.41.06,0.92,0.92,0,0,1,.31.17,0.72,0.72,0,0,1,.19.25,0.75,0.75,0,0,1,.07.31H45.18a0.47,0.47,0,0,0,0-.2,0.51,0.51,0,0,0-.13-0.17,0.67,0.67,0,0,0-.21-0.12,0.85,0.85,0,0,0-.29,0,0.92,0.92,0,0,0-.29,0,0.63,0.63,0,0,0-.2.11,0.41,0.41,0,0,0-.11.15,0.41,0.41,0,0,0,0,.16,0.45,0.45,0,0,0,0,.16,0.33,0.33,0,0,0,.1.13,0.82,0.82,0,0,0,.21.11l0.36,0.1a2.93,2.93,0,0,1,.41.12,1.05,1.05,0,0,1,.29.16,0.61,0.61,0,0,1,.17.21,0.68,0.68,0,0,1,.05.28,0.66,0.66,0,0,1-.07.3,0.67,0.67,0,0,1-.2.23,1,1,0,0,1-.31.15,1.55,1.55,0,0,1-.85,0,1,1,0,0,1-.32-0.17,0.73,0.73,0,0,1-.2-0.25,0.69,0.69,0,0,1-.07-0.3h0.29a0.51,0.51,0,0,0,.08.26,0.56,0.56,0,0,0,.18.17,0.76,0.76,0,0,0,.23.09l0.25,0a1,1,0,0,0,.29,0,0.69,0.69,0,0,0,.21-0.11,0.45,0.45,0,0,0,.13-0.15A0.38,0.38,0,0,0,45.2,113.54Z"/><path d="M46,112.85a1.64,1.64,0,0,1,.08-0.53,1.28,1.28,0,0,1,.24-0.42,1.08,1.08,0,0,1,.37-0.28,1.13,1.13,0,0,1,.48-0.1,1.15,1.15,0,0,1,.49.1,1.08,1.08,0,0,1,.37.28,1.25,1.25,0,0,1,.24.42,1.65,1.65,0,0,1,.08.53v0.08a1.65,1.65,0,0,1-.08.53,1.24,1.24,0,0,1-.24.42,1.08,1.08,0,0,1-.37.28,1.25,1.25,0,0,1-1,0,1.09,1.09,0,0,1-.37-0.28,1.26,1.26,0,0,1-.24-0.42,1.63,1.63,0,0,1-.08-0.53v-0.08Zm0.29,0.08a1.44,1.44,0,0,0,.06.41,1.07,1.07,0,0,0,.17.34,0.83,0.83,0,0,0,.28.24,0.87,0.87,0,0,0,.76,0,0.84,0.84,0,0,0,.28-0.24,1.07,1.07,0,0,0,.17-0.34,1.44,1.44,0,0,0,.06-0.41v-0.08a1.42,1.42,0,0,0-.06-0.41,1.09,1.09,0,0,0-.17-0.35,0.84,0.84,0,0,0-.28-0.24,0.8,0.8,0,0,0-.38-0.09,0.78,0.78,0,0,0-.38.09,0.84,0.84,0,0,0-.28.24,1.09,1.09,0,0,0-.17.35,1.42,1.42,0,0,0-.06.41v0.08Z"/><path d="M50.65,113.87a0.85,0.85,0,0,1-.33.28,1.15,1.15,0,0,1-.51.1,1.09,1.09,0,0,1-.35-0.05,0.69,0.69,0,0,1-.27-0.17,0.79,0.79,0,0,1-.18-0.31,1.47,1.47,0,0,1-.06-0.46v-1.69h0.29v1.7a1.09,1.09,0,0,0,0,.35,0.61,0.61,0,0,0,.13.23,0.47,0.47,0,0,0,.19.12,0.72,0.72,0,0,0,.24,0,1.1,1.1,0,0,0,.31,0,0.76,0.76,0,0,0,.23-0.11,0.68,0.68,0,0,0,.16-0.17,0.84,0.84,0,0,0,.1-0.21v-1.91h0.29v2.64H50.65v-0.33Z"/><path d="M52.92,111.81l-0.2,0a0.77,0.77,0,0,0-.27,0,0.69,0.69,0,0,0-.21.12,0.72,0.72,0,0,0-.15.19,1,1,0,0,0-.1.24v1.81H51.7v-2.64H52V112a0.88,0.88,0,0,1,.29-0.34,0.78,0.78,0,0,1,.45-0.13h0.11l0.08,0v0.27Z"/><path d="M54.31,114a0.88,0.88,0,0,0,.27,0,0.72,0.72,0,0,0,.23-0.12,0.63,0.63,0,0,0,.16-0.19,0.61,0.61,0,0,0,.07-0.27h0.28a0.83,0.83,0,0,1-.09.35A0.91,0.91,0,0,1,55,114a1,1,0,0,1-.32.18,1.13,1.13,0,0,1-.38.06,1.11,1.11,0,0,1-.49-0.1,1,1,0,0,1-.35-0.28,1.22,1.22,0,0,1-.21-0.42,1.79,1.79,0,0,1-.07-0.52v-0.1a1.79,1.79,0,0,1,.07-0.52,1.23,1.23,0,0,1,.21-0.42,1,1,0,0,1,.35-0.28,1.1,1.1,0,0,1,.49-0.1,1.17,1.17,0,0,1,.39.07,1,1,0,0,1,.32.19,0.9,0.9,0,0,1,.22.3,1,1,0,0,1,.09.39H55a0.78,0.78,0,0,0-.07-0.29,0.7,0.7,0,0,0-.16-0.22,0.68,0.68,0,0,0-.23-0.14,0.8,0.8,0,0,0-.28,0,0.78,0.78,0,0,0-.38.09,0.74,0.74,0,0,0-.26.24,1,1,0,0,0-.15.34,1.79,1.79,0,0,0,0,.4v0.1a1.8,1.8,0,0,0,0,.41,1,1,0,0,0,.14.34,0.72,0.72,0,0,0,.26.24A0.79,0.79,0,0,0,54.31,114Z"/><path d="M56.93,114.26a1.16,1.16,0,0,1-.48-0.1,1.11,1.11,0,0,1-.37-0.27,1.24,1.24,0,0,1-.25-0.41,1.49,1.49,0,0,1-.09-0.52v-0.1a1.58,1.58,0,0,1,.09-0.55,1.29,1.29,0,0,1,.25-0.42,1.13,1.13,0,0,1,.36-0.27,1,1,0,0,1,.43-0.09,1,1,0,0,1,.45.09,0.91,0.91,0,0,1,.33.25,1.1,1.1,0,0,1,.2.38,1.64,1.64,0,0,1,.07.49v0.18H56V113a1.25,1.25,0,0,0,.07.41,1,1,0,0,0,.19.33,0.87,0.87,0,0,0,.29.22,0.82,0.82,0,0,0,.37.08,1,1,0,0,0,.41-0.09,0.92,0.92,0,0,0,.33-0.27l0.18,0.14a1.26,1.26,0,0,1-.15.18,0.92,0.92,0,0,1-.2.15,1.06,1.06,0,0,1-.26.1A1.26,1.26,0,0,1,56.93,114.26Zm-0.05-2.49a0.75,0.75,0,0,0-.31.06,0.77,0.77,0,0,0-.25.18,1,1,0,0,0-.18.28,1.33,1.33,0,0,0-.09.36h1.58v0a1.18,1.18,0,0,0-.05-0.32,0.86,0.86,0,0,0-.14-0.27A0.68,0.68,0,0,0,56.88,111.77Z"/><path d="M60.73,114.26a1.16,1.16,0,0,1-.48-0.1,1.11,1.11,0,0,1-.37-0.27,1.24,1.24,0,0,1-.25-0.41,1.49,1.49,0,0,1-.09-0.52v-0.1a1.58,1.58,0,0,1,.09-0.55,1.29,1.29,0,0,1,.25-0.42,1.13,1.13,0,0,1,.36-0.27,1,1,0,0,1,.43-0.09,1,1,0,0,1,.45.09,0.91,0.91,0,0,1,.33.25,1.1,1.1,0,0,1,.2.38,1.64,1.64,0,0,1,.07.49v0.18H59.84V113a1.25,1.25,0,0,0,.07.41,1,1,0,0,0,.19.33,0.87,0.87,0,0,0,.29.22,0.82,0.82,0,0,0,.37.08,1,1,0,0,0,.41-0.09,0.92,0.92,0,0,0,.33-0.27l0.18,0.14a1.26,1.26,0,0,1-.15.18,0.92,0.92,0,0,1-.2.15,1.06,1.06,0,0,1-.26.1A1.26,1.26,0,0,1,60.73,114.26Zm-0.05-2.49a0.75,0.75,0,0,0-.31.06,0.77,0.77,0,0,0-.25.18,1,1,0,0,0-.18.28,1.33,1.33,0,0,0-.09.36h1.58v0a1.18,1.18,0,0,0-.05-0.32,0.86,0.86,0,0,0-.14-0.27A0.68,0.68,0,0,0,60.68,111.77Z"/><path d="M63.27,114a0.88,0.88,0,0,0,.27,0,0.72,0.72,0,0,0,.23-0.12,0.63,0.63,0,0,0,.16-0.19,0.61,0.61,0,0,0,.07-0.27h0.28a0.83,0.83,0,0,1-.09.35A0.91,0.91,0,0,1,64,114a1,1,0,0,1-.32.18,1.13,1.13,0,0,1-.38.06,1.11,1.11,0,0,1-.49-0.1,1,1,0,0,1-.35-0.28,1.22,1.22,0,0,1-.21-0.42,1.79,1.79,0,0,1-.07-0.52v-0.1a1.79,1.79,0,0,1,.07-0.52,1.23,1.23,0,0,1,.21-0.42,1,1,0,0,1,.35-0.28,1.1,1.1,0,0,1,.49-0.1,1.17,1.17,0,0,1,.39.07,1,1,0,0,1,.32.19,0.9,0.9,0,0,1,.22.3,1,1,0,0,1,.09.39H64a0.78,0.78,0,0,0-.07-0.29,0.7,0.7,0,0,0-.16-0.22,0.68,0.68,0,0,0-.23-0.14,0.8,0.8,0,0,0-.28,0,0.78,0.78,0,0,0-.38.09,0.74,0.74,0,0,0-.26.24,1,1,0,0,0-.15.34,1.79,1.79,0,0,0,0,.4v0.1a1.8,1.8,0,0,0,0,.41,1,1,0,0,0,.14.34,0.72,0.72,0,0,0,.26.24A0.79,0.79,0,0,0,63.27,114Z"/><path d="M64.7,112.85a1.64,1.64,0,0,1,.08-0.53,1.28,1.28,0,0,1,.24-0.42,1.08,1.08,0,0,1,.37-0.28,1.13,1.13,0,0,1,.48-0.1,1.15,1.15,0,0,1,.49.1,1.08,1.08,0,0,1,.37.28,1.25,1.25,0,0,1,.24.42,1.65,1.65,0,0,1,.08.53v0.08a1.65,1.65,0,0,1-.08.53,1.24,1.24,0,0,1-.24.42,1.08,1.08,0,0,1-.37.28,1.25,1.25,0,0,1-1,0,1.09,1.09,0,0,1-.37-0.28,1.26,1.26,0,0,1-.24-0.42,1.63,1.63,0,0,1-.08-0.53v-0.08ZM65,112.93a1.44,1.44,0,0,0,.06.41,1.07,1.07,0,0,0,.17.34,0.83,0.83,0,0,0,.28.24,0.87,0.87,0,0,0,.76,0,0.84,0.84,0,0,0,.28-0.24,1.07,1.07,0,0,0,.17-0.34,1.44,1.44,0,0,0,.06-0.41v-0.08a1.42,1.42,0,0,0-.06-0.41,1.09,1.09,0,0,0-.17-0.35,0.84,0.84,0,0,0-.28-0.24,0.8,0.8,0,0,0-.38-0.09,0.78,0.78,0,0,0-.38.09,0.84,0.84,0,0,0-.28.24,1.09,1.09,0,0,0-.17.35,1.42,1.42,0,0,0-.06.41v0.08Z"/><path d="M69.25,113.54a0.47,0.47,0,0,0,0-.16,0.38,0.38,0,0,0-.1-0.15,0.79,0.79,0,0,0-.21-0.13,1.78,1.78,0,0,0-.36-0.11l-0.39-.11a1.11,1.11,0,0,1-.29-0.15,0.58,0.58,0,0,1-.18-0.21,0.65,0.65,0,0,1,0-.56,0.68,0.68,0,0,1,.19-0.23,0.93,0.93,0,0,1,.29-0.15,1.22,1.22,0,0,1,.39-0.06,1.31,1.31,0,0,1,.41.06,0.92,0.92,0,0,1,.31.17,0.72,0.72,0,0,1,.19.25,0.75,0.75,0,0,1,.07.31H69.23a0.47,0.47,0,0,0,0-.2,0.51,0.51,0,0,0-.13-0.17,0.67,0.67,0,0,0-.21-0.12,0.85,0.85,0,0,0-.29,0,0.92,0.92,0,0,0-.29,0,0.63,0.63,0,0,0-.2.11,0.41,0.41,0,0,0-.11.15,0.41,0.41,0,0,0,0,.16,0.45,0.45,0,0,0,0,.16,0.33,0.33,0,0,0,.1.13,0.82,0.82,0,0,0,.21.11l0.36,0.1a2.93,2.93,0,0,1,.41.12,1.05,1.05,0,0,1,.29.16,0.61,0.61,0,0,1,.17.21,0.68,0.68,0,0,1,.05.28,0.66,0.66,0,0,1-.07.3,0.67,0.67,0,0,1-.2.23,1,1,0,0,1-.31.15,1.55,1.55,0,0,1-.85,0A1,1,0,0,1,67.8,114a0.73,0.73,0,0,1-.2-0.25,0.69,0.69,0,0,1-.07-0.3h0.29a0.51,0.51,0,0,0,.08.26,0.56,0.56,0,0,0,.18.17,0.76,0.76,0,0,0,.23.09l0.25,0a1,1,0,0,0,.29,0,0.69,0.69,0,0,0,.21-0.11,0.45,0.45,0,0,0,.13-0.15A0.38,0.38,0,0,0,69.25,113.54Z"/><path d="M71,113.79l0.77-2.22h0.31L71,114.63l-0.09.2a0.89,0.89,0,0,1-.14.21,0.71,0.71,0,0,1-.21.17,0.64,0.64,0,0,1-.31.07H70V115h0.15a0.64,0.64,0,0,0,.21,0,0.46,0.46,0,0,0,.16-0.09,0.6,0.6,0,0,0,.12-0.15,1.33,1.33,0,0,0,.09-0.21l0.13-.35-1-2.62h0.32Z"/><path d="M74.15,113.54a0.47,0.47,0,0,0,0-.16,0.38,0.38,0,0,0-.1-0.15,0.79,0.79,0,0,0-.21-0.13,1.78,1.78,0,0,0-.36-0.11l-0.39-.11a1.11,1.11,0,0,1-.29-0.15,0.58,0.58,0,0,1-.18-0.21,0.65,0.65,0,0,1,0-.56,0.68,0.68,0,0,1,.19-0.23,0.93,0.93,0,0,1,.29-0.15,1.22,1.22,0,0,1,.39-0.06,1.31,1.31,0,0,1,.41.06,0.92,0.92,0,0,1,.31.17,0.72,0.72,0,0,1,.19.25,0.75,0.75,0,0,1,.07.31H74.14a0.47,0.47,0,0,0,0-.2,0.51,0.51,0,0,0-.13-0.17,0.67,0.67,0,0,0-.21-0.12,0.85,0.85,0,0,0-.29,0,0.92,0.92,0,0,0-.29,0,0.63,0.63,0,0,0-.2.11,0.41,0.41,0,0,0-.11.15,0.41,0.41,0,0,0,0,.16,0.45,0.45,0,0,0,0,.16,0.33,0.33,0,0,0,.1.13,0.82,0.82,0,0,0,.21.11l0.36,0.1a2.93,2.93,0,0,1,.41.12,1.05,1.05,0,0,1,.29.16,0.61,0.61,0,0,1,.17.21,0.68,0.68,0,0,1,.05.28,0.66,0.66,0,0,1-.07.3,0.67,0.67,0,0,1-.2.23,1,1,0,0,1-.31.15,1.55,1.55,0,0,1-.85,0A1,1,0,0,1,72.7,114a0.73,0.73,0,0,1-.2-0.25,0.69,0.69,0,0,1-.07-0.3h0.29a0.51,0.51,0,0,0,.08.26,0.56,0.56,0,0,0,.18.17,0.76,0.76,0,0,0,.23.09l0.25,0a1,1,0,0,0,.29,0,0.69,0.69,0,0,0,.21-0.11,0.45,0.45,0,0,0,.13-0.15A0.38,0.38,0,0,0,74.15,113.54Z"/><path d="M75.56,110.89v0.68H76.1v0.24H75.56v1.76a0.71,0.71,0,0,0,0,.22,0.32,0.32,0,0,0,.07.13,0.24,0.24,0,0,0,.11.06l0.13,0H76l0.11,0v0.24l-0.14,0H75.84a0.76,0.76,0,0,1-.23,0,0.41,0.41,0,0,1-.18-0.11,0.55,0.55,0,0,1-.12-0.21,1.08,1.08,0,0,1,0-.33V111.8H74.78v-0.24h0.49v-0.68h0.29Z"/><path d="M77.73,114.26a1.16,1.16,0,0,1-.48-0.1,1.12,1.12,0,0,1-.37-0.27,1.24,1.24,0,0,1-.25-0.41,1.49,1.49,0,0,1-.09-0.52v-0.1a1.58,1.58,0,0,1,.09-0.55,1.3,1.3,0,0,1,.25-0.42,1.14,1.14,0,0,1,.36-0.27,1,1,0,0,1,.43-0.09,1,1,0,0,1,.45.09,0.92,0.92,0,0,1,.33.25,1.09,1.09,0,0,1,.2.38,1.63,1.63,0,0,1,.07.49v0.18H76.84V113a1.25,1.25,0,0,0,.07.41,1,1,0,0,0,.19.33,0.88,0.88,0,0,0,.29.22,0.83,0.83,0,0,0,.37.08,1,1,0,0,0,.41-0.09,0.92,0.92,0,0,0,.33-0.27l0.18,0.14a1.26,1.26,0,0,1-.15.18,0.9,0.9,0,0,1-.2.15,1,1,0,0,1-.26.1A1.27,1.27,0,0,1,77.73,114.26Zm-0.05-2.49a0.74,0.74,0,0,0-.31.06,0.76,0.76,0,0,0-.25.18,1,1,0,0,0-.18.28,1.35,1.35,0,0,0-.09.36h1.58v0a1.18,1.18,0,0,0-.05-0.32,0.85,0.85,0,0,0-.14-0.27A0.68,0.68,0,0,0,77.68,111.77Z"/><path d="M79.56,111.57V112a1.2,1.2,0,0,1,.15-0.2,0.86,0.86,0,0,1,.19-0.15,0.92,0.92,0,0,1,.23-0.1,1.06,1.06,0,0,1,.27,0,1,1,0,0,1,.5.12,0.68,0.68,0,0,1,.29.39,1.06,1.06,0,0,1,.15-0.2,1,1,0,0,1,.2-0.16,1,1,0,0,1,.25-0.11,1.06,1.06,0,0,1,.29,0,1.15,1.15,0,0,1,.37.05,0.66,0.66,0,0,1,.27.17,0.77,0.77,0,0,1,.17.3,1.44,1.44,0,0,1,.06.44v1.72H82.69v-1.72a1.1,1.1,0,0,0,0-.35,0.53,0.53,0,0,0-.13-0.22,0.46,0.46,0,0,0-.2-0.11,1,1,0,0,0-.26,0,0.78,0.78,0,0,0-.56.23,0.77,0.77,0,0,0-.21.46v1.75H81v-1.75a1,1,0,0,0,0-.33,0.51,0.51,0,0,0-.13-0.21,0.48,0.48,0,0,0-.2-0.12,1,1,0,0,0-.26,0,0.76,0.76,0,0,0-.29.05,0.72,0.72,0,0,0-.22.14,0.8,0.8,0,0,0-.16.2,1.2,1.2,0,0,0-.1.23v1.81H79.28v-2.64h0.28Z"/><path d="M86.16,111.81l-0.2,0a0.78,0.78,0,0,0-.27,0,0.69,0.69,0,0,0-.21.12,0.72,0.72,0,0,0-.15.19,1,1,0,0,0-.1.24v1.81H84.94v-2.64h0.29V112a0.87,0.87,0,0,1,.29-0.34,0.79,0.79,0,0,1,.45-0.13h0.11l0.08,0v0.27Z"/><path d="M87.6,114.26a1.16,1.16,0,0,1-.48-0.1,1.12,1.12,0,0,1-.37-0.27,1.24,1.24,0,0,1-.25-0.41,1.49,1.49,0,0,1-.09-0.52v-0.1a1.58,1.58,0,0,1,.09-0.55,1.3,1.3,0,0,1,.25-0.42,1.14,1.14,0,0,1,.36-0.27,1,1,0,0,1,.43-0.09,1,1,0,0,1,.45.09,0.92,0.92,0,0,1,.33.25,1.09,1.09,0,0,1,.2.38,1.63,1.63,0,0,1,.07.49v0.18H86.71V113a1.25,1.25,0,0,0,.07.41,1,1,0,0,0,.19.33,0.88,0.88,0,0,0,.29.22,0.83,0.83,0,0,0,.37.08,1,1,0,0,0,.41-0.09,0.92,0.92,0,0,0,.33-0.27l0.18,0.14a1.26,1.26,0,0,1-.15.18,0.9,0.9,0,0,1-.2.15,1,1,0,0,1-.26.1A1.27,1.27,0,0,1,87.6,114.26Zm-0.05-2.49a0.74,0.74,0,0,0-.31.06A0.76,0.76,0,0,0,87,112a1,1,0,0,0-.18.28,1.35,1.35,0,0,0-.09.36H88.3v0a1.18,1.18,0,0,0-.05-0.32A0.85,0.85,0,0,0,88.1,112,0.68,0.68,0,0,0,87.54,111.77Z"/><path d="M89.49,114.21H89.19v-3.75h0.29v3.75Z"/><path d="M91.95,114.21a0.82,0.82,0,0,1,0-.17c0-.07,0-0.13,0-0.2a1,1,0,0,1-.16.16,1,1,0,0,1-.2.13,1.15,1.15,0,0,1-.25.09,1.2,1.2,0,0,1-.29,0,1,1,0,0,1-.35-0.06,0.78,0.78,0,0,1-.27-0.16,0.71,0.71,0,0,1-.17-0.24,0.74,0.74,0,0,1-.06-0.3,0.72,0.72,0,0,1,.08-0.35,0.75,0.75,0,0,1,.24-0.26,1.17,1.17,0,0,1,.38-0.17,2,2,0,0,1,.5-0.06h0.54v-0.3a0.58,0.58,0,0,0-.17-0.45,0.72,0.72,0,0,0-.51-0.16,0.93,0.93,0,0,0-.28,0,0.7,0.7,0,0,0-.22.12,0.55,0.55,0,0,0-.15.17,0.43,0.43,0,0,0-.05.21H90.21a0.61,0.61,0,0,1,.07-0.29,0.8,0.8,0,0,1,.21-0.25,1.08,1.08,0,0,1,.32-0.17,1.26,1.26,0,0,1,.41-0.07,1.32,1.32,0,0,1,.39.05,0.85,0.85,0,0,1,.3.16,0.72,0.72,0,0,1,.2.27,0.92,0.92,0,0,1,.07.38v1.28s0,0.09,0,.14,0,0.1,0,.14l0,0.13a0.64,0.64,0,0,0,0,.11v0H91.95ZM91,114a1,1,0,0,0,.29,0,1,1,0,0,0,.25-0.11,0.86,0.86,0,0,0,.19-0.17,0.83,0.83,0,0,0,.13-0.2V112.9h-0.5a1.79,1.79,0,0,0-.4,0,1,1,0,0,0-.3.12,0.54,0.54,0,0,0-.19.18,0.47,0.47,0,0,0-.06.25,0.5,0.5,0,0,0,0,.2,0.48,0.48,0,0,0,.12.16,0.56,0.56,0,0,0,.19.11A0.72,0.72,0,0,0,91,114Z"/><path d="M93.41,110.89v0.68H94v0.24H93.41v1.76a0.72,0.72,0,0,0,0,.22,0.33,0.33,0,0,0,.08.13,0.23,0.23,0,0,0,.11.06l0.13,0h0.13L94,114v0.24l-0.14,0H93.69a0.76,0.76,0,0,1-.23,0,0.41,0.41,0,0,1-.18-0.11,0.55,0.55,0,0,1-.12-0.21,1.1,1.1,0,0,1,0-.33V111.8H92.63v-0.24h0.49v-0.68h0.29Z"/><path d="M95.59,114.26a1.16,1.16,0,0,1-.48-0.1,1.12,1.12,0,0,1-.37-0.27,1.24,1.24,0,0,1-.25-0.41A1.49,1.49,0,0,1,94.4,113v-0.1a1.58,1.58,0,0,1,.09-0.55,1.3,1.3,0,0,1,.25-0.42,1.14,1.14,0,0,1,.36-0.27,1,1,0,0,1,.43-0.09,1,1,0,0,1,.45.09,0.92,0.92,0,0,1,.33.25,1.09,1.09,0,0,1,.2.38,1.63,1.63,0,0,1,.07.49v0.18H94.69V113a1.25,1.25,0,0,0,.07.41,1,1,0,0,0,.19.33,0.88,0.88,0,0,0,.29.22,0.83,0.83,0,0,0,.37.08,1,1,0,0,0,.41-0.09,0.92,0.92,0,0,0,.33-0.27l0.18,0.14a1.26,1.26,0,0,1-.15.18,0.9,0.9,0,0,1-.2.15,1,1,0,0,1-.26.1A1.27,1.27,0,0,1,95.59,114.26Zm-0.05-2.49a0.74,0.74,0,0,0-.31.06A0.76,0.76,0,0,0,95,112a1,1,0,0,0-.18.28,1.35,1.35,0,0,0-.09.36h1.58v0a1.18,1.18,0,0,0-.05-0.32,0.85,0.85,0,0,0-.14-0.27A0.68,0.68,0,0,0,95.53,111.77Z"/><path d="M97,112.86a2,2,0,0,1,.07-0.55,1.31,1.31,0,0,1,.2-0.42,0.92,0.92,0,0,1,.32-0.27,0.94,0.94,0,0,1,.43-0.09,1,1,0,0,1,.48.11,1,1,0,0,1,.33.31v-1.48h0.29v3.75H98.88v-0.35a0.93,0.93,0,0,1-.34.29,1,1,0,0,1-.49.11,0.9,0.9,0,0,1-.42-0.1,0.94,0.94,0,0,1-.32-0.28,1.31,1.31,0,0,1-.2-0.42,2,2,0,0,1-.07-0.54v-0.05Zm0.29,0.05a1.88,1.88,0,0,0,0,.43,1.08,1.08,0,0,0,.14.35,0.7,0.7,0,0,0,.24.23,0.68,0.68,0,0,0,.35.08,1,1,0,0,0,.27,0,0.74,0.74,0,0,0,.21-0.1,0.73,0.73,0,0,0,.16-0.15,1,1,0,0,0,.12-0.19v-1.24a1.2,1.2,0,0,0-.11-0.19,0.73,0.73,0,0,0-.16-0.17,0.75,0.75,0,0,0-.21-0.11,0.86,0.86,0,0,0-.28,0,0.7,0.7,0,0,0-.35.08,0.71,0.71,0,0,0-.24.23,1.08,1.08,0,0,0-.14.35,1.89,1.89,0,0,0,0,.43v0.05Z"/><path d="M101.6,110.89v0.68h0.55v0.24H101.6v1.76a0.72,0.72,0,0,0,0,.22,0.33,0.33,0,0,0,.08.13,0.23,0.23,0,0,0,.11.06l0.13,0h0.13l0.11,0v0.24l-0.14,0h-0.17a0.76,0.76,0,0,1-.23,0,0.41,0.41,0,0,1-.18-0.11,0.55,0.55,0,0,1-.12-0.21,1.1,1.1,0,0,1,0-.33V111.8h-0.49v-0.24h0.49v-0.68h0.29Z"/><path d="M102.54,112.85a1.64,1.64,0,0,1,.08-0.53,1.28,1.28,0,0,1,.24-0.42,1.08,1.08,0,0,1,.37-0.28,1.13,1.13,0,0,1,.48-0.1,1.15,1.15,0,0,1,.49.1,1.07,1.07,0,0,1,.37.28,1.24,1.24,0,0,1,.24.42,1.64,1.64,0,0,1,.08.53v0.08a1.64,1.64,0,0,1-.08.53,1.23,1.23,0,0,1-.24.42,1.07,1.07,0,0,1-.37.28,1.24,1.24,0,0,1-1,0,1.09,1.09,0,0,1-.37-0.28,1.25,1.25,0,0,1-.24-0.42,1.63,1.63,0,0,1-.08-0.53v-0.08Zm0.29,0.08a1.44,1.44,0,0,0,.06.41,1.06,1.06,0,0,0,.17.34,0.84,0.84,0,0,0,.28.24,0.87,0.87,0,0,0,.76,0,0.85,0.85,0,0,0,.28-0.24,1.08,1.08,0,0,0,.17-0.34,1.44,1.44,0,0,0,.06-0.41v-0.08a1.42,1.42,0,0,0-.06-0.41,1.1,1.1,0,0,0-.17-0.35,0.85,0.85,0,0,0-.28-0.24,0.8,0.8,0,0,0-.38-0.09,0.78,0.78,0,0,0-.38.09,0.85,0.85,0,0,0-.28.24,1.08,1.08,0,0,0-.17.35,1.42,1.42,0,0,0-.06.41v0.08Z"/><path d="M107.17,110.89v0.68h0.55v0.24h-0.55v1.76a0.72,0.72,0,0,0,0,.22,0.33,0.33,0,0,0,.08.13,0.23,0.23,0,0,0,.11.06l0.13,0h0.13l0.11,0v0.24l-0.14,0h-0.17a0.76,0.76,0,0,1-.23,0,0.41,0.41,0,0,1-.18-0.11,0.55,0.55,0,0,1-.12-0.21,1.1,1.1,0,0,1,0-.33V111.8h-0.49v-0.24h0.49v-0.68h0.29Z"/><path d="M108.61,112a1.07,1.07,0,0,1,.16-0.2,1,1,0,0,1,.2-0.16,1,1,0,0,1,.23-0.1,1,1,0,0,1,.27,0,1.08,1.08,0,0,1,.35.05,0.64,0.64,0,0,1,.26.17,0.77,0.77,0,0,1,.17.3,1.52,1.52,0,0,1,.06.45v1.72H110v-1.72a1.13,1.13,0,0,0,0-.34,0.55,0.55,0,0,0-.12-0.22,0.46,0.46,0,0,0-.2-0.12,0.88,0.88,0,0,0-.26,0,0.73,0.73,0,0,0-.28.05,0.78,0.78,0,0,0-.22.14,0.94,0.94,0,0,0-.17.2,1.13,1.13,0,0,0-.11.23v1.81h-0.29v-3.75h0.29V112Z"/><path d="M112.09,114.26a1.16,1.16,0,0,1-.48-0.1,1.12,1.12,0,0,1-.37-0.27,1.24,1.24,0,0,1-.25-0.41,1.49,1.49,0,0,1-.09-0.52v-0.1a1.58,1.58,0,0,1,.09-0.55,1.3,1.3,0,0,1,.25-0.42,1.14,1.14,0,0,1,.36-0.27,1,1,0,0,1,.43-0.09,1,1,0,0,1,.45.09,0.92,0.92,0,0,1,.33.25,1.09,1.09,0,0,1,.2.38,1.63,1.63,0,0,1,.07.49v0.18h-1.88V113a1.25,1.25,0,0,0,.07.41,1,1,0,0,0,.19.33,0.88,0.88,0,0,0,.29.22,0.83,0.83,0,0,0,.37.08,1,1,0,0,0,.41-0.09,0.92,0.92,0,0,0,.33-0.27l0.18,0.14a1.26,1.26,0,0,1-.15.18,0.9,0.9,0,0,1-.2.15,1,1,0,0,1-.26.1A1.27,1.27,0,0,1,112.09,114.26ZM112,111.77a0.74,0.74,0,0,0-.31.06,0.76,0.76,0,0,0-.25.18,1,1,0,0,0-.18.28,1.35,1.35,0,0,0-.09.36h1.58v0a1.18,1.18,0,0,0-.05-0.32,0.85,0.85,0,0,0-.14-0.27A0.68,0.68,0,0,0,112,111.77Z"/><path d="M114.75,112.86a2,2,0,0,1,.07-0.55,1.31,1.31,0,0,1,.2-0.42,0.92,0.92,0,0,1,.32-0.27,0.94,0.94,0,0,1,.43-0.09,1,1,0,0,1,.48.11,1,1,0,0,1,.33.31v-1.48h0.29v3.75H116.6v-0.35a0.93,0.93,0,0,1-.34.29,1,1,0,0,1-.49.11,0.9,0.9,0,0,1-.42-0.1,0.94,0.94,0,0,1-.32-0.28,1.31,1.31,0,0,1-.2-0.42,2,2,0,0,1-.07-0.54v-0.05Zm0.29,0.05a1.88,1.88,0,0,0,0,.43,1.08,1.08,0,0,0,.14.35,0.7,0.7,0,0,0,.24.23,0.68,0.68,0,0,0,.35.08,1,1,0,0,0,.27,0,0.74,0.74,0,0,0,.21-0.1,0.73,0.73,0,0,0,.16-0.15,1,1,0,0,0,.12-0.19v-1.24a1.2,1.2,0,0,0-.11-0.19,0.73,0.73,0,0,0-.16-0.17,0.75,0.75,0,0,0-.21-0.11,0.86,0.86,0,0,0-.28,0,0.7,0.7,0,0,0-.35.08,0.71,0.71,0,0,0-.24.23,1.08,1.08,0,0,0-.14.35,1.89,1.89,0,0,0,0,.43v0.05Z"/><path d="M117.48,112.85a1.64,1.64,0,0,1,.08-0.53,1.28,1.28,0,0,1,.24-0.42,1.08,1.08,0,0,1,.37-0.28,1.13,1.13,0,0,1,.48-0.1,1.15,1.15,0,0,1,.49.1,1.07,1.07,0,0,1,.37.28,1.24,1.24,0,0,1,.24.42,1.64,1.64,0,0,1,.08.53v0.08a1.64,1.64,0,0,1-.08.53,1.23,1.23,0,0,1-.24.42,1.07,1.07,0,0,1-.37.28,1.24,1.24,0,0,1-1,0,1.09,1.09,0,0,1-.37-0.28,1.25,1.25,0,0,1-.24-0.42,1.63,1.63,0,0,1-.08-0.53v-0.08Zm0.29,0.08a1.44,1.44,0,0,0,.06.41,1.06,1.06,0,0,0,.17.34,0.84,0.84,0,0,0,.28.24,0.87,0.87,0,0,0,.76,0,0.85,0.85,0,0,0,.28-0.24,1.08,1.08,0,0,0,.17-0.34,1.44,1.44,0,0,0,.06-0.41v-0.08a1.42,1.42,0,0,0-.06-0.41,1.1,1.1,0,0,0-.17-0.35,0.85,0.85,0,0,0-.28-0.24,0.8,0.8,0,0,0-.38-0.09,0.78,0.78,0,0,0-.38.09,0.85,0.85,0,0,0-.28.24,1.08,1.08,0,0,0-.17.35,1.42,1.42,0,0,0-.06.41v0.08Z"/><path d="M120.71,111.57V112a1.2,1.2,0,0,1,.15-0.2,0.86,0.86,0,0,1,.19-0.15,0.92,0.92,0,0,1,.23-0.1,1.06,1.06,0,0,1,.27,0,1,1,0,0,1,.5.12,0.68,0.68,0,0,1,.29.39,1.06,1.06,0,0,1,.15-0.2,1,1,0,0,1,.2-0.16,1,1,0,0,1,.25-0.11,1.06,1.06,0,0,1,.29,0,1.15,1.15,0,0,1,.37.05,0.66,0.66,0,0,1,.27.17,0.77,0.77,0,0,1,.17.3,1.44,1.44,0,0,1,.06.44v1.72h-0.29v-1.72a1.1,1.1,0,0,0,0-.35,0.53,0.53,0,0,0-.13-0.22,0.46,0.46,0,0,0-.2-0.11,1,1,0,0,0-.26,0,0.78,0.78,0,0,0-.56.23,0.77,0.77,0,0,0-.21.46v1.75h-0.29v-1.75a1,1,0,0,0,0-.33,0.51,0.51,0,0,0-.13-0.21,0.48,0.48,0,0,0-.2-0.12,1,1,0,0,0-.26,0,0.76,0.76,0,0,0-.29.05,0.72,0.72,0,0,0-.22.14,0.8,0.8,0,0,0-.16.2,1.2,1.2,0,0,0-.1.23v1.81h-0.29v-2.64h0.28Z"/><path d="M124.86,110.8a0.2,0.2,0,0,1,.05-0.14,0.19,0.19,0,0,1,.15-0.06,0.19,0.19,0,0,1,.2.2,0.19,0.19,0,0,1-.05.14,0.2,0.2,0,0,1-.15.06A0.19,0.19,0,0,1,124.86,110.8Zm0.34,3.41h-0.29v-2.64h0.29v2.64Z"/><path d="M126.27,111.57V112a1.16,1.16,0,0,1,.16-0.21,1,1,0,0,1,.2-0.16,1,1,0,0,1,.24-0.1,1,1,0,0,1,.27,0,1.08,1.08,0,0,1,.35.05,0.64,0.64,0,0,1,.26.17,0.77,0.77,0,0,1,.17.3,1.52,1.52,0,0,1,.06.45v1.72H127.7v-1.72a1.13,1.13,0,0,0,0-.34,0.55,0.55,0,0,0-.12-0.22,0.46,0.46,0,0,0-.2-0.12,0.88,0.88,0,0,0-.26,0,0.73,0.73,0,0,0-.28.05,0.78,0.78,0,0,0-.22.14,0.94,0.94,0,0,0-.17.2,1.13,1.13,0,0,0-.11.23v1.81H126v-2.64h0.28Z"/><path d="M128.72,110.8a0.2,0.2,0,0,1,.05-0.14,0.19,0.19,0,0,1,.15-0.06,0.19,0.19,0,0,1,.2.2,0.19,0.19,0,0,1-.05.14,0.2,0.2,0,0,1-.15.06A0.19,0.19,0,0,1,128.72,110.8Zm0.34,3.41h-0.29v-2.64h0.29v2.64Z"/><path d="M130.84,114a0.88,0.88,0,0,0,.27,0,0.73,0.73,0,0,0,.23-0.12,0.64,0.64,0,0,0,.16-0.19,0.61,0.61,0,0,0,.07-0.27h0.28a0.83,0.83,0,0,1-.09.35,0.91,0.91,0,0,1-.22.27,1,1,0,0,1-.32.18,1.19,1.19,0,0,1-.87,0,1,1,0,0,1-.35-0.28,1.22,1.22,0,0,1-.21-0.42,1.8,1.8,0,0,1-.07-0.52v-0.1a1.8,1.8,0,0,1,.07-0.52,1.22,1.22,0,0,1,.21-0.42,1,1,0,0,1,.35-0.28,1.1,1.1,0,0,1,.49-0.1,1.17,1.17,0,0,1,.39.07,1,1,0,0,1,.32.19,0.91,0.91,0,0,1,.22.3,1.06,1.06,0,0,1,.09.39h-0.28a0.77,0.77,0,0,0-.07-0.29,0.71,0.71,0,0,0-.16-0.22,0.68,0.68,0,0,0-.23-0.14,0.8,0.8,0,0,0-.28,0,0.78,0.78,0,0,0-.38.09,0.74,0.74,0,0,0-.26.24,1,1,0,0,0-.15.34,1.76,1.76,0,0,0,0,.4v0.1a1.77,1.77,0,0,0,0,.41,1,1,0,0,0,.14.34,0.73,0.73,0,0,0,.26.24A0.79,0.79,0,0,0,130.84,114Z"/><path d="M134.11,114.21a0.82,0.82,0,0,1,0-.17c0-.07,0-0.13,0-0.2a1,1,0,0,1-.16.16,1,1,0,0,1-.2.13,1.15,1.15,0,0,1-.25.09,1.2,1.2,0,0,1-.29,0,1,1,0,0,1-.35-0.06,0.78,0.78,0,0,1-.27-0.16,0.71,0.71,0,0,1-.17-0.24,0.74,0.74,0,0,1-.06-0.3,0.72,0.72,0,0,1,.08-0.35,0.75,0.75,0,0,1,.24-0.26,1.17,1.17,0,0,1,.38-0.17,2,2,0,0,1,.5-0.06H134v-0.3a0.58,0.58,0,0,0-.17-0.45,0.72,0.72,0,0,0-.51-0.16,0.93,0.93,0,0,0-.28,0,0.7,0.7,0,0,0-.22.12,0.55,0.55,0,0,0-.15.17,0.43,0.43,0,0,0-.05.21h-0.29a0.61,0.61,0,0,1,.07-0.29,0.8,0.8,0,0,1,.21-0.25,1.08,1.08,0,0,1,.32-0.17,1.26,1.26,0,0,1,.41-0.07,1.32,1.32,0,0,1,.39.05,0.85,0.85,0,0,1,.3.16,0.72,0.72,0,0,1,.2.27,0.92,0.92,0,0,1,.07.38v1.28s0,0.09,0,.14,0,0.1,0,.14l0,0.13a0.64,0.64,0,0,0,0,.11v0h-0.31Zm-0.92-.21a1,1,0,0,0,.29,0,1,1,0,0,0,.25-0.11,0.86,0.86,0,0,0,.19-0.17,0.83,0.83,0,0,0,.13-0.2V112.9h-0.5a1.79,1.79,0,0,0-.4,0,1,1,0,0,0-.3.12,0.54,0.54,0,0,0-.19.18,0.47,0.47,0,0,0-.06.25,0.5,0.5,0,0,0,0,.2,0.48,0.48,0,0,0,.12.16,0.56,0.56,0,0,0,.19.11A0.72,0.72,0,0,0,133.19,114Z"/><path d="M135.39,111.57V112a1.16,1.16,0,0,1,.16-0.21,1,1,0,0,1,.2-0.16,1,1,0,0,1,.24-0.1,1,1,0,0,1,.27,0,1.08,1.08,0,0,1,.35.05,0.64,0.64,0,0,1,.26.17,0.77,0.77,0,0,1,.17.3,1.52,1.52,0,0,1,.06.45v1.72h-0.29v-1.72a1.13,1.13,0,0,0,0-.34,0.55,0.55,0,0,0-.12-0.22,0.46,0.46,0,0,0-.2-0.12,0.88,0.88,0,0,0-.26,0,0.73,0.73,0,0,0-.28.05,0.78,0.78,0,0,0-.22.14,0.94,0.94,0,0,0-.17.2,1.13,1.13,0,0,0-.11.23v1.81h-0.29v-2.64h0.28Z"/><path d="M140.3,111.81l-0.2,0a0.78,0.78,0,0,0-.27,0,0.69,0.69,0,0,0-.21.12,0.72,0.72,0,0,0-.15.19,1,1,0,0,0-.1.24v1.81h-0.29v-2.64h0.29V112a0.87,0.87,0,0,1,.29-0.34,0.79,0.79,0,0,1,.45-0.13h0.11l0.08,0v0.27Z"/><path d="M141.74,114.26a1.16,1.16,0,0,1-.48-0.1,1.12,1.12,0,0,1-.37-0.27,1.24,1.24,0,0,1-.25-0.41,1.49,1.49,0,0,1-.09-0.52v-0.1a1.58,1.58,0,0,1,.09-0.55,1.3,1.3,0,0,1,.25-0.42,1.14,1.14,0,0,1,.36-0.27,1,1,0,0,1,.43-0.09,1,1,0,0,1,.45.09,0.92,0.92,0,0,1,.33.25,1.09,1.09,0,0,1,.2.38,1.63,1.63,0,0,1,.07.49v0.18h-1.88V113a1.25,1.25,0,0,0,.07.41,1,1,0,0,0,.19.33,0.88,0.88,0,0,0,.29.22,0.83,0.83,0,0,0,.37.08,1,1,0,0,0,.41-0.09,0.92,0.92,0,0,0,.33-0.27l0.18,0.14a1.26,1.26,0,0,1-.15.18,0.9,0.9,0,0,1-.2.15,1,1,0,0,1-.26.1A1.27,1.27,0,0,1,141.74,114.26Zm-0.05-2.49a0.74,0.74,0,0,0-.31.06,0.76,0.76,0,0,0-.25.18,1,1,0,0,0-.18.28,1.35,1.35,0,0,0-.09.36h1.58v0a1.18,1.18,0,0,0-.05-0.32,0.85,0.85,0,0,0-.14-0.27A0.68,0.68,0,0,0,141.68,111.77Z"/><path d="M145.42,112.91a2.06,2.06,0,0,1-.07.54,1.29,1.29,0,0,1-.2.42,0.92,0.92,0,0,1-.32.28,0.9,0.9,0,0,1-.43.1,1.1,1.1,0,0,1-.49-0.1,0.93,0.93,0,0,1-.34-0.28v1.35H143.3v-3.66h0.27v0.37a1,1,0,0,1,.34-0.31,1,1,0,0,1,.49-0.11,1,1,0,0,1,.43.09,0.9,0.9,0,0,1,.32.27,1.28,1.28,0,0,1,.2.42,2.11,2.11,0,0,1,.07.55v0.05Zm-0.29-.05a1.83,1.83,0,0,0,0-.43,1.06,1.06,0,0,0-.14-0.35,0.72,0.72,0,0,0-.25-0.23,0.7,0.7,0,0,0-.35-0.08,0.86,0.86,0,0,0-.28,0,0.72,0.72,0,0,0-.37.27,1,1,0,0,0-.11.19v1.27a0.87,0.87,0,0,0,.12.19,0.71,0.71,0,0,0,.16.15,0.77,0.77,0,0,0,.21.1,1,1,0,0,0,.27,0,0.68,0.68,0,0,0,.35-0.08,0.71,0.71,0,0,0,.24-0.23,1.08,1.08,0,0,0,.14-0.35,1.85,1.85,0,0,0,0-.43v-0.05Z"/><path d="M147.77,113.87a0.85,0.85,0,0,1-.33.28,1.16,1.16,0,0,1-.51.1,1.09,1.09,0,0,1-.35-0.05,0.69,0.69,0,0,1-.27-0.17,0.8,0.8,0,0,1-.18-0.31,1.47,1.47,0,0,1-.06-0.46v-1.69h0.29v1.7a1.08,1.08,0,0,0,0,.35,0.61,0.61,0,0,0,.13.23,0.47,0.47,0,0,0,.19.12,0.72,0.72,0,0,0,.24,0,1.11,1.11,0,0,0,.31,0,0.76,0.76,0,0,0,.23-0.11,0.68,0.68,0,0,0,.16-0.17,0.82,0.82,0,0,0,.1-0.21v-1.91h0.29v2.64h-0.28v-0.33Z"/><path d="M150.94,112.91a2.06,2.06,0,0,1-.07.54,1.29,1.29,0,0,1-.2.42,0.93,0.93,0,0,1-.32.28,0.91,0.91,0,0,1-.43.1,1.06,1.06,0,0,1-.5-0.11,1,1,0,0,1-.34-0.3v0.36h-0.27v-3.75h0.29v1.49a0.94,0.94,0,0,1,.33-0.32,1,1,0,0,1,.49-0.11,1,1,0,0,1,.43.09,0.91,0.91,0,0,1,.32.27,1.26,1.26,0,0,1,.2.42,2.11,2.11,0,0,1,.07.55v0.05Zm-0.29-.05a2,2,0,0,0,0-.43,1.06,1.06,0,0,0-.14-0.35,0.66,0.66,0,0,0-.59-0.32,0.87,0.87,0,0,0-.29,0,0.72,0.72,0,0,0-.22.12,0.77,0.77,0,0,0-.16.17,1.07,1.07,0,0,0-.1.2v1.19a1,1,0,0,0,.12.2,0.75,0.75,0,0,0,.16.16,0.78,0.78,0,0,0,.22.1,0.94,0.94,0,0,0,.28,0,0.68,0.68,0,0,0,.34-0.08,0.71,0.71,0,0,0,.24-0.23,1.08,1.08,0,0,0,.14-0.35,1.94,1.94,0,0,0,0-.43v-0.05Z"/><path d="M151.91,114.21h-0.29v-3.75h0.29v3.75Z"/><path d="M152.69,110.8a0.2,0.2,0,0,1,.05-0.14,0.19,0.19,0,0,1,.15-0.06,0.19,0.19,0,0,1,.2.2,0.19,0.19,0,0,1-.05.14,0.2,0.2,0,0,1-.15.06A0.19,0.19,0,0,1,152.69,110.8Zm0.34,3.41h-0.29v-2.64H153v2.64Z"/><path d="M154.8,114a0.88,0.88,0,0,0,.27,0,0.73,0.73,0,0,0,.23-0.12,0.64,0.64,0,0,0,.16-0.19,0.61,0.61,0,0,0,.07-0.27h0.28a0.83,0.83,0,0,1-.09.35,0.91,0.91,0,0,1-.22.27,1,1,0,0,1-.32.18,1.19,1.19,0,0,1-.87,0,1,1,0,0,1-.35-0.28,1.22,1.22,0,0,1-.21-0.42,1.8,1.8,0,0,1-.07-0.52v-0.1a1.8,1.8,0,0,1,.07-0.52,1.22,1.22,0,0,1,.21-0.42,1,1,0,0,1,.35-0.28,1.1,1.1,0,0,1,.49-0.1,1.17,1.17,0,0,1,.39.07,1,1,0,0,1,.32.19,0.91,0.91,0,0,1,.22.3,1.06,1.06,0,0,1,.09.39h-0.28a0.77,0.77,0,0,0-.07-0.29,0.71,0.71,0,0,0-.16-0.22,0.68,0.68,0,0,0-.23-0.14,0.8,0.8,0,0,0-.28,0,0.78,0.78,0,0,0-.38.09,0.74,0.74,0,0,0-.26.24,1,1,0,0,0-.15.34,1.76,1.76,0,0,0,0,.4v0.1a1.77,1.77,0,0,0,0,.41,1,1,0,0,0,.14.34,0.73,0.73,0,0,0,.26.24A0.79,0.79,0,0,0,154.8,114Z"/><path d="M156.4,114a0.2,0.2,0,0,1,.05-0.14,0.19,0.19,0,0,1,.15-0.06,0.19,0.19,0,0,1,.2.2,0.19,0.19,0,0,1-.05.14,0.2,0.2,0,0,1-.15.05,0.2,0.2,0,0,1-.15-0.05A0.19,0.19,0,0,1,156.4,114Zm0.32-.82h-0.27v-2.57h0.3Z"/><path class="cls-1" d="M98,49.6V34.42a0,0,0,0,0,0,0h-8.4a0,0,0,0,0,0,0V55.29l-0.06,0a25.13,25.13,0,0,1-5.24,1.48,0,0,0,0,1,0,0V41.58a0,0,0,0,0,0,0H75.8a0,0,0,0,0,0,0V57.13a0,0,0,0,1,0,0H70.48a0,0,0,0,1,0,0V45.8a0,0,0,0,0,0,0H62a0,0,0,0,0,0,0V57.13a0,0,0,0,1,0,0H54.7a0,0,0,0,1,0,0V6.53a0,0,0,0,1,0,0h25A25.51,25.51,0,0,1,105.3,32.9,25.23,25.23,0,0,1,98,49.62,0,0,0,0,1,98,49.6Z"/></svg>