<svg id="Layer_1" data-name="Layer 1" xmlns="http://www.w3.org/2000/svg" viewBox="0 0 406.5 65.33"><defs><style>.cls-1{fill:#fff;}</style></defs><title>250 x 150 px</title><path class="cls-1" d="M51.7,49.52V35.12a0,0,0,0,0,0,0h-8a0,0,0,0,0,0,0V54.92l-0.05,0a23.83,23.83,0,0,1-5,1.41,0,0,0,0,1,0,0V41.91a0,0,0,0,0,0,0h-8a0,0,0,0,0,0,0V56.66a0,0,0,0,1,0,0h-5a0,0,0,0,1,0,0V45.91a0,0,0,0,0,0,0h-8a0,0,0,0,0,0,0V56.66a0,0,0,0,1,0,0H10.65a0,0,0,0,1,0,0v-48a0,0,0,0,1,0,0H34.36a24.19,24.19,0,0,1,24.27,25,23.93,23.93,0,0,1-6.91,15.86A0,0,0,0,1,51.7,49.52Z"/><path class="cls-1" d="M66.82,46.4V22.73H73.5a11.21,11.21,0,0,1,4.26.78,9.33,9.33,0,0,1,3.29,2.23,10,10,0,0,1,2.13,3.51,13.41,13.41,0,0,1,.76,4.63v1.4a13.4,13.4,0,0,1-.76,4.63A9.82,9.82,0,0,1,81,43.41a9.32,9.32,0,0,1-3.37,2.21,12.15,12.15,0,0,1-4.44.77H66.82Zm3.12-21.1V43.84h3.28a8.4,8.4,0,0,0,3.32-.61,6.38,6.38,0,0,0,2.39-1.73,7.42,7.42,0,0,0,1.44-2.7,12.11,12.11,0,0,0,.48-3.53V33.83a12.31,12.31,0,0,0-.49-3.62,7.39,7.39,0,0,0-1.43-2.68,6.08,6.08,0,0,0-2.31-1.67,8.06,8.06,0,0,0-3.12-.57H69.94Z"/><path class="cls-1" d="M86.25,37.44a10.87,10.87,0,0,1,.56-3.55A8.59,8.59,0,0,1,88.41,31a7.29,7.29,0,0,1,2.51-1.89,7.82,7.82,0,0,1,3.32-.68,8,8,0,0,1,3.36.68A7.36,7.36,0,0,1,100.12,31a8.41,8.41,0,0,1,1.59,2.84,11,11,0,0,1,.55,3.55V37.8a11,11,0,0,1-.55,3.55,8.32,8.32,0,0,1-1.59,2.83A7.34,7.34,0,0,1,97.6,46a8.57,8.57,0,0,1-6.67,0,7.33,7.33,0,0,1-2.52-1.87,8.43,8.43,0,0,1-1.6-2.83,10.87,10.87,0,0,1-.56-3.55V37.44Zm3,0.36a9.71,9.71,0,0,0,.31,2.49,6.32,6.32,0,0,0,.93,2.06,4.67,4.67,0,0,0,1.56,1.41,4.84,4.84,0,0,0,4.37,0A4.57,4.57,0,0,0,98,42.34a6.56,6.56,0,0,0,.94-2.06,9.47,9.47,0,0,0,.32-2.49V37.44A9.51,9.51,0,0,0,98.94,35,6.45,6.45,0,0,0,98,32.89a4.73,4.73,0,0,0-1.57-1.41A4.42,4.42,0,0,0,94.23,31a4.29,4.29,0,0,0-2.16.53,4.78,4.78,0,0,0-1.55,1.41A6.3,6.3,0,0,0,89.58,35a9.74,9.74,0,0,0-.31,2.48V37.8Z"/><path class="cls-1" d="M107.73,28.81l0.08,2a6.39,6.39,0,0,1,2.2-1.67,7.08,7.08,0,0,1,3-.6,6.49,6.49,0,0,1,3,.67,4.48,4.48,0,0,1,2,2.15,6.66,6.66,0,0,1,2.28-2,6.74,6.74,0,0,1,3.32-.78,7.85,7.85,0,0,1,2.5.37A4.53,4.53,0,0,1,128,30a5,5,0,0,1,1.15,2,9.33,9.33,0,0,1,.39,2.86V46.4h-3V34.82a5.4,5.4,0,0,0-.27-1.84,2.87,2.87,0,0,0-.76-1.17,2.7,2.7,0,0,0-1.19-.61,6.49,6.49,0,0,0-1.54-.17,4.31,4.31,0,0,0-1.64.29,3.82,3.82,0,0,0-1.23.79,3.71,3.71,0,0,0-.81,1.17,4.74,4.74,0,0,0-.38,1.44V46.4h-3V34.84a5,5,0,0,0-.27-1.75,3,3,0,0,0-.76-1.18,3,3,0,0,0-1.18-.67,5.31,5.31,0,0,0-1.55-.21,4,4,0,0,0-4,2.52V46.4h-3V28.81h2.85Z"/><path class="cls-1" d="M133,24.14a1.79,1.79,0,0,1,.45-1.24,1.68,1.68,0,0,1,1.32-.5,1.71,1.71,0,0,1,1.33.5,1.78,1.78,0,0,1,.46,1.24A1.78,1.78,0,1,1,133,24.14Zm3.25,22.26h-3V28.81h3V46.4Z"/><path class="cls-1" d="M142.75,28.81l0.1,2.21a6.8,6.8,0,0,1,2.28-1.86,6.53,6.53,0,0,1,3-.67,7.28,7.28,0,0,1,2.33.35A4.28,4.28,0,0,1,152.21,30a5.19,5.19,0,0,1,1.13,2,9.46,9.46,0,0,1,.4,2.93V46.4h-3V34.84a5.85,5.85,0,0,0-.23-1.75,2.88,2.88,0,0,0-.67-1.18,2.66,2.66,0,0,0-1.11-.67A5,5,0,0,0,147.2,31a4.34,4.34,0,0,0-2.57.78,5.31,5.31,0,0,0-1.72,2V46.4h-3V28.81h2.84Z"/><path class="cls-1" d="M157.16,24.14a1.8,1.8,0,0,1,.45-1.24,1.68,1.68,0,0,1,1.33-.5,1.71,1.71,0,0,1,1.33.5,1.77,1.77,0,0,1,.46,1.24,1.72,1.72,0,0,1-.46,1.22,1.74,1.74,0,0,1-1.33.49,1.71,1.71,0,0,1-1.33-.49A1.74,1.74,0,0,1,157.16,24.14Zm3.25,22.26h-3V28.81h3V46.4Z"/><path class="cls-1" d="M171.15,44.27a4.54,4.54,0,0,0,1.53-.26,4.35,4.35,0,0,0,1.29-.72,3.72,3.72,0,0,0,.91-1.08,3.37,3.37,0,0,0,.41-1.36h2.85a5.26,5.26,0,0,1-.64,2.24A6.56,6.56,0,0,1,176,45a7.49,7.49,0,0,1-2.19,1.28,7.29,7.29,0,0,1-2.64.48,7.9,7.9,0,0,1-3.46-.71,7,7,0,0,1-2.45-1.91,8.09,8.09,0,0,1-1.46-2.8,11.59,11.59,0,0,1-.48-3.37V37.26a11.59,11.59,0,0,1,.48-3.37,8.08,8.08,0,0,1,1.46-2.8,7,7,0,0,1,2.44-1.91,7.84,7.84,0,0,1,3.45-.71,7.71,7.71,0,0,1,2.8.49,6.74,6.74,0,0,1,2.18,1.34,6.13,6.13,0,0,1,1.44,2,7,7,0,0,1,.59,2.52h-2.85a4.56,4.56,0,0,0-.38-1.52,4,4,0,0,0-2.13-2.07,4.25,4.25,0,0,0-1.65-.31,4.43,4.43,0,0,0-2.32.55A4.37,4.37,0,0,0,167.34,33a6.08,6.08,0,0,0-.79,2,11.42,11.42,0,0,0-.23,2.27v0.68a11.58,11.58,0,0,0,.23,2.3,6.08,6.08,0,0,0,.78,2,4.29,4.29,0,0,0,1.48,1.45A4.51,4.51,0,0,0,171.15,44.27Z"/><path class="cls-1" d="M191.25,46.4a3.27,3.27,0,0,1-.26-0.82q-0.1-.5-0.16-1a8,8,0,0,1-1,.84,6.75,6.75,0,0,1-1.15.7,6.51,6.51,0,0,1-1.36.47,6.76,6.76,0,0,1-1.54.17,7,7,0,0,1-2.45-.41,5.71,5.71,0,0,1-1.87-1.11,4.86,4.86,0,0,1-1.19-1.65,5,5,0,0,1-.42-2,5.4,5.4,0,0,1,.55-2.5A5,5,0,0,1,182,37.21a7.46,7.46,0,0,1,2.5-1.11,13.23,13.23,0,0,1,3.27-.37h3V34.35a3.38,3.38,0,0,0-.94-2.51,3.79,3.79,0,0,0-2.78-.93,5,5,0,0,0-1.54.23,4,4,0,0,0-1.2.61,2.86,2.86,0,0,0-.77.89,2.17,2.17,0,0,0-.28,1.06h-3a3.92,3.92,0,0,1,.5-1.87,5.48,5.48,0,0,1,1.41-1.67,7.43,7.43,0,0,1,2.2-1.2,8.51,8.51,0,0,1,2.89-.46,9.1,9.1,0,0,1,2.64.37A5.64,5.64,0,0,1,191.95,30a5.11,5.11,0,0,1,1.35,1.85,6.36,6.36,0,0,1,.49,2.58v8.18a12,12,0,0,0,.15,1.88,7.09,7.09,0,0,0,.46,1.7V46.4h-3.15Zm-5-2.29a5,5,0,0,0,1.53-.23,5.74,5.74,0,0,0,1.3-.59,4.83,4.83,0,0,0,1-.84,4.1,4.1,0,0,0,.67-1V37.86h-2.5a8.07,8.07,0,0,0-4,.8,2.63,2.63,0,0,0-1.4,2.43,3.3,3.3,0,0,0,.21,1.19,2.48,2.48,0,0,0,.64,1,3.18,3.18,0,0,0,1.06.63A4.11,4.11,0,0,0,186.26,44.1Z"/><path class="cls-1" d="M200.21,28.81l0.1,2.21a6.81,6.81,0,0,1,2.28-1.86,6.53,6.53,0,0,1,3-.67,7.28,7.28,0,0,1,2.33.35A4.28,4.28,0,0,1,209.68,30a5.19,5.19,0,0,1,1.13,2,9.46,9.46,0,0,1,.4,2.93V46.4h-3V34.84a5.85,5.85,0,0,0-.23-1.75,2.88,2.88,0,0,0-.67-1.18,2.66,2.66,0,0,0-1.11-.67,5,5,0,0,0-1.52-.21,4.34,4.34,0,0,0-2.57.78,5.29,5.29,0,0,0-1.72,2V46.4h-3V28.81h2.84Z"/><path class="cls-1" d="M240.4,35.33a15.63,15.63,0,0,1-.67,4.77,10.54,10.54,0,0,1-1.91,3.58,8.17,8.17,0,0,1-3,2.26,9.54,9.54,0,0,1-3.92.78,9.38,9.38,0,0,1-3.85-.78,8.47,8.47,0,0,1-3-2.26,10.53,10.53,0,0,1-2-3.58,15.11,15.11,0,0,1-.7-4.77v-1.5a15.21,15.21,0,0,1,.7-4.77,10.67,10.67,0,0,1,2-3.6,8.41,8.41,0,0,1,3-2.27,9.3,9.3,0,0,1,3.85-.79,9.52,9.52,0,0,1,3.93.79,8.32,8.32,0,0,1,3,2.27,10.45,10.45,0,0,1,1.92,3.6,15.73,15.73,0,0,1,.67,4.77v1.5Zm-3.1-1.53a14.71,14.71,0,0,0-.43-3.74,7.88,7.88,0,0,0-1.26-2.73,5.42,5.42,0,0,0-2-1.67,6.22,6.22,0,0,0-2.71-.57,6,6,0,0,0-2.63.57,5.49,5.49,0,0,0-2,1.67,8.09,8.09,0,0,0-1.29,2.73,13.94,13.94,0,0,0-.46,3.74v1.53a13.71,13.71,0,0,0,.46,3.75,8.21,8.21,0,0,0,1.31,2.74,5.55,5.55,0,0,0,2,1.68,6,6,0,0,0,2.63.57,6.21,6.21,0,0,0,2.71-.57,5.35,5.35,0,0,0,2-1.68,7.94,7.94,0,0,0,1.24-2.74,15,15,0,0,0,.42-3.75V33.8Z"/><path class="cls-1" d="M258.34,37.8a13.25,13.25,0,0,1-.46,3.57,8.75,8.75,0,0,1-1.33,2.83,6,6,0,0,1-5,2.53,7.48,7.48,0,0,1-2.9-.52,5.91,5.91,0,0,1-2.14-1.51v8.47h-3V28.81h2.75l0.15,2a6,6,0,0,1,2.16-1.69,7,7,0,0,1,2.94-.59,6.38,6.38,0,0,1,2.93.65A6.14,6.14,0,0,1,256.57,31a8.34,8.34,0,0,1,1.32,2.83,14,14,0,0,1,.45,3.67V37.8Zm-3-.34a10.68,10.68,0,0,0-.28-2.48,6.27,6.27,0,0,0-.86-2,4.38,4.38,0,0,0-1.48-1.39,4.22,4.22,0,0,0-2.13-.51,5,5,0,0,0-1.39.18,4.15,4.15,0,0,0-2,1.28,5.78,5.78,0,0,0-.68,1v8.41a5.74,5.74,0,0,0,.68,1,4,4,0,0,0,.89.76,4.29,4.29,0,0,0,1.14.5,5.21,5.21,0,0,0,1.41.18,4.08,4.08,0,0,0,2.11-.52,4.48,4.48,0,0,0,1.47-1.4,6.27,6.27,0,0,0,.86-2.06,10.89,10.89,0,0,0,.28-2.5V37.46Z"/><path class="cls-1" d="M268.33,46.72a8.4,8.4,0,0,1-3.33-.63,7.41,7.41,0,0,1-2.54-1.76,7.77,7.77,0,0,1-1.63-2.69,9.88,9.88,0,0,1-.57-3.41V37.54a10.73,10.73,0,0,1,.64-3.84,8.62,8.62,0,0,1,1.71-2.85,7.42,7.42,0,0,1,2.46-1.76,7.06,7.06,0,0,1,2.88-.61,7.42,7.42,0,0,1,3.25.66A6.17,6.17,0,0,1,273.45,31a7.7,7.7,0,0,1,1.31,2.73,13.21,13.21,0,0,1,.42,3.43v1.35H263.27a7.51,7.51,0,0,0,.4,2.28,5.55,5.55,0,0,0,1,1.84,4.84,4.84,0,0,0,3.78,1.69,5.24,5.24,0,0,0,2.7-.65,6.78,6.78,0,0,0,1.93-1.72L275,43.32a8,8,0,0,1-1,1.26,6.94,6.94,0,0,1-1.41,1.09,7.36,7.36,0,0,1-1.84.76A9,9,0,0,1,268.33,46.72ZM268,31a4.06,4.06,0,0,0-3,1.3,5.2,5.2,0,0,0-1,1.58,8,8,0,0,0-.54,2.16h8.81V35.76a8.3,8.3,0,0,0-.28-1.74,4.74,4.74,0,0,0-.73-1.54,3.78,3.78,0,0,0-1.28-1.11A4,4,0,0,0,268,31Z"/><path class="cls-1" d="M280.38,28.81l0.1,2.21a6.81,6.81,0,0,1,2.28-1.86,6.53,6.53,0,0,1,3-.67,7.28,7.28,0,0,1,2.33.35A4.28,4.28,0,0,1,289.84,30a5.19,5.19,0,0,1,1.13,2,9.46,9.46,0,0,1,.4,2.93V46.4h-3V34.84a5.85,5.85,0,0,0-.23-1.75,2.88,2.88,0,0,0-.67-1.18,2.66,2.66,0,0,0-1.11-.67,5,5,0,0,0-1.52-.21,4.34,4.34,0,0,0-2.57.78,5.29,5.29,0,0,0-1.72,2V46.4h-3V28.81h2.84Z"/><path class="cls-1" d="M315,40.41a3.94,3.94,0,0,0-.25-1.46,2.92,2.92,0,0,0-.89-1.16,7.16,7.16,0,0,0-1.73-1,25.41,25.41,0,0,0-2.76-1,23.51,23.51,0,0,1-3.18-1.15,10.5,10.5,0,0,1-2.42-1.48,6,6,0,0,1-1.54-1.91,5.42,5.42,0,0,1-.54-2.46,5.75,5.75,0,0,1,.58-2.56,6.11,6.11,0,0,1,1.63-2,7.78,7.78,0,0,1,2.54-1.36,10.51,10.51,0,0,1,3.3-.49,9.84,9.84,0,0,1,3.56.6,8,8,0,0,1,2.63,1.59,6.68,6.68,0,0,1,1.62,2.29,6.8,6.8,0,0,1,.55,2.68h-3.14a5.2,5.2,0,0,0-.32-1.84,3.86,3.86,0,0,0-1-1.46,4.47,4.47,0,0,0-1.62-1A7,7,0,0,0,309.7,25a7.25,7.25,0,0,0-2.18.29,4.33,4.33,0,0,0-1.53.8,3.19,3.19,0,0,0-.89,1.21,3.91,3.91,0,0,0-.29,1.53,3,3,0,0,0,.32,1.37,3.47,3.47,0,0,0,1,1.14,7.47,7.47,0,0,0,1.72,1,21.39,21.39,0,0,0,2.51.85,22.59,22.59,0,0,1,3.48,1.26,9.58,9.58,0,0,1,2.41,1.57,5.72,5.72,0,0,1,1.41,2,6.26,6.26,0,0,1,.46,2.47A5.62,5.62,0,0,1,315.86,45a7.88,7.88,0,0,1-2.6,1.28,12,12,0,0,1-3.39.45,11.83,11.83,0,0,1-2.18-.2,10.81,10.81,0,0,1-2.09-.61,9.26,9.26,0,0,1-1.85-1,7.13,7.13,0,0,1-1.49-1.4,6.26,6.26,0,0,1-1-1.79,6.38,6.38,0,0,1-.36-2.18H304a4.09,4.09,0,0,0,1.76,3.53,5.58,5.58,0,0,0,1.85.84,8.86,8.86,0,0,0,2.2.27,6.14,6.14,0,0,0,3.79-1A3.27,3.27,0,0,0,315,40.41Z"/><path class="cls-1" d="M319.71,37.44a10.87,10.87,0,0,1,.56-3.55A8.59,8.59,0,0,1,321.86,31a7.3,7.3,0,0,1,2.51-1.89,7.82,7.82,0,0,1,3.32-.68,8,8,0,0,1,3.36.68A7.36,7.36,0,0,1,333.58,31a8.4,8.4,0,0,1,1.59,2.84,11,11,0,0,1,.55,3.55V37.8a11,11,0,0,1-.55,3.55,8.31,8.31,0,0,1-1.59,2.83A7.34,7.34,0,0,1,331.06,46a8.57,8.57,0,0,1-6.67,0,7.33,7.33,0,0,1-2.52-1.87,8.43,8.43,0,0,1-1.6-2.83,10.87,10.87,0,0,1-.56-3.55V37.44Zm3,0.36a9.71,9.71,0,0,0,.31,2.49,6.34,6.34,0,0,0,.93,2.06,4.67,4.67,0,0,0,1.56,1.41,4.84,4.84,0,0,0,4.37,0,4.57,4.57,0,0,0,1.56-1.41,6.59,6.59,0,0,0,.93-2.06,9.49,9.49,0,0,0,.32-2.49V37.44A9.53,9.53,0,0,0,332.4,35a6.46,6.46,0,0,0-.94-2.06,4.73,4.73,0,0,0-1.57-1.41,4.42,4.42,0,0,0-2.2-.53,4.29,4.29,0,0,0-2.16.53A4.77,4.77,0,0,0,324,32.89,6.32,6.32,0,0,0,323,35a9.74,9.74,0,0,0-.31,2.48V37.8Z"/><path class="cls-1" d="M349.22,44.66a5.59,5.59,0,0,1-2.1,1.52,7.72,7.72,0,0,1-3.06.54,7.17,7.17,0,0,1-2.36-.37,4.57,4.57,0,0,1-1.82-1.15,5.25,5.25,0,0,1-1.18-2,9.54,9.54,0,0,1-.42-3V28.81h3V40.2a5.88,5.88,0,0,0,.28,2,3.18,3.18,0,0,0,.73,1.22,2.44,2.44,0,0,0,1,.62,4.25,4.25,0,0,0,1.2.17,5.48,5.48,0,0,0,3-.7,4.16,4.16,0,0,0,1.63-1.87V28.81h3V46.4h-2.86Z"/><path class="cls-1" d="M364.09,31.5q-0.39-.07-0.72-0.09l-0.76,0a4.37,4.37,0,0,0-2.54.68,4.15,4.15,0,0,0-1.47,1.84V46.4h-3V28.81h2.93l0,2a5.31,5.31,0,0,1,1.71-1.72,4.64,4.64,0,0,1,2.49-.63,4.44,4.44,0,0,1,.75.07,2.37,2.37,0,0,1,.59.15v2.8Z"/><path class="cls-1" d="M372.47,44.27A4.54,4.54,0,0,0,374,44a4.35,4.35,0,0,0,1.29-.72,3.72,3.72,0,0,0,.91-1.08,3.37,3.37,0,0,0,.41-1.36h2.85a5.26,5.26,0,0,1-.64,2.24A6.56,6.56,0,0,1,377.3,45a7.49,7.49,0,0,1-2.19,1.28,7.29,7.29,0,0,1-2.64.48A7.9,7.9,0,0,1,369,46a7,7,0,0,1-2.45-1.91,8.09,8.09,0,0,1-1.46-2.8,11.59,11.59,0,0,1-.48-3.37V37.26a11.59,11.59,0,0,1,.48-3.37,8.08,8.08,0,0,1,1.46-2.8A7,7,0,0,1,369,29.19a7.84,7.84,0,0,1,3.45-.71,7.71,7.71,0,0,1,2.8.49,6.74,6.74,0,0,1,2.18,1.34,6.13,6.13,0,0,1,1.44,2,7,7,0,0,1,.59,2.52h-2.85a4.56,4.56,0,0,0-.38-1.52,4,4,0,0,0-2.13-2.07,4.25,4.25,0,0,0-1.65-.31,4.43,4.43,0,0,0-2.32.55A4.37,4.37,0,0,0,368.65,33a6.08,6.08,0,0,0-.79,2,11.42,11.42,0,0,0-.23,2.27v0.68a11.58,11.58,0,0,0,.23,2.3,6.08,6.08,0,0,0,.78,2,4.29,4.29,0,0,0,1.48,1.45A4.51,4.51,0,0,0,372.47,44.27Z"/><path class="cls-1" d="M389,46.72a8.4,8.4,0,0,1-3.33-.63,7.41,7.41,0,0,1-2.54-1.76,7.77,7.77,0,0,1-1.63-2.69,9.88,9.88,0,0,1-.57-3.41V37.54a10.73,10.73,0,0,1,.64-3.84,8.62,8.62,0,0,1,1.71-2.85,7.42,7.42,0,0,1,2.46-1.76,7.06,7.06,0,0,1,2.88-.61,7.42,7.42,0,0,1,3.25.66A6.17,6.17,0,0,1,394.14,31a7.7,7.7,0,0,1,1.31,2.73,13.21,13.21,0,0,1,.42,3.43v1.35H384a7.51,7.51,0,0,0,.4,2.28,5.55,5.55,0,0,0,1,1.84,4.84,4.84,0,0,0,3.78,1.69,5.24,5.24,0,0,0,2.7-.65,6.78,6.78,0,0,0,1.93-1.72l1.84,1.43a8,8,0,0,1-1,1.26,6.94,6.94,0,0,1-1.41,1.09,7.36,7.36,0,0,1-1.84.76A9,9,0,0,1,389,46.72ZM388.63,31a4.06,4.06,0,0,0-3,1.3,5.2,5.2,0,0,0-1,1.58A8,8,0,0,0,384,36h8.81V35.76a8.3,8.3,0,0,0-.28-1.74,4.74,4.74,0,0,0-.73-1.54,3.78,3.78,0,0,0-1.28-1.11A4,4,0,0,0,388.63,31Z"/></svg>