<svg id="Layer_1" data-name="Layer 1" xmlns="http://www.w3.org/2000/svg" viewBox="0 0 298.17 65.33"><defs><style>.cls-1{fill:#fff;}</style></defs><title>250 x 150 px_alternate logo</title><path class="cls-1" d="M50.7,49.52V35.12a0,0,0,0,0,0,0h-8a0,0,0,0,0,0,0V54.92l-0.05,0a23.83,23.83,0,0,1-5,1.41,0,0,0,0,1,0,0V41.91a0,0,0,0,0,0,0h-8a0,0,0,0,0,0,0V56.66a0,0,0,0,1,0,0h-5a0,0,0,0,1,0,0V45.91a0,0,0,0,0,0,0h-8a0,0,0,0,0,0,0V56.66a0,0,0,0,1,0,0H9.65a0,0,0,0,1,0,0v-48a0,0,0,0,1,0,0H33.36a24.19,24.19,0,0,1,24.27,25,23.93,23.93,0,0,1-6.91,15.86A0,0,0,0,1,50.7,49.52Z"/><path class="cls-1" d="M66.82,46.4V22.73H73.5a11.21,11.21,0,0,1,4.26.78,9.33,9.33,0,0,1,3.29,2.23,10,10,0,0,1,2.13,3.51,13.41,13.41,0,0,1,.76,4.63v1.4a13.4,13.4,0,0,1-.76,4.63A9.82,9.82,0,0,1,81,43.41a9.32,9.32,0,0,1-3.37,2.21,12.15,12.15,0,0,1-4.44.77H66.82Zm3.12-21.1V43.84h3.28a8.4,8.4,0,0,0,3.32-.61,6.38,6.38,0,0,0,2.39-1.73,7.42,7.42,0,0,0,1.44-2.7,12.11,12.11,0,0,0,.48-3.53V33.83a12.31,12.31,0,0,0-.49-3.62,7.39,7.39,0,0,0-1.43-2.68,6.08,6.08,0,0,0-2.31-1.67,8.06,8.06,0,0,0-3.12-.57H69.94Z"/><path class="cls-1" d="M134,35.2A15.63,15.63,0,0,1,133.3,40a10.54,10.54,0,0,1-1.91,3.58,8.17,8.17,0,0,1-3,2.26,9.54,9.54,0,0,1-3.92.78,9.38,9.38,0,0,1-3.85-.78,8.47,8.47,0,0,1-3-2.26,10.53,10.53,0,0,1-2-3.58,15.11,15.11,0,0,1-.7-4.77V33.7a15.21,15.21,0,0,1,.7-4.77,10.67,10.67,0,0,1,2-3.6,8.41,8.41,0,0,1,3-2.27,9.3,9.3,0,0,1,3.85-.79,9.52,9.52,0,0,1,3.93.79,8.32,8.32,0,0,1,3,2.27,10.45,10.45,0,0,1,1.92,3.6A15.73,15.73,0,0,1,134,33.7v1.5Zm-3.1-1.53a14.71,14.71,0,0,0-.43-3.74,7.88,7.88,0,0,0-1.26-2.73,5.42,5.42,0,0,0-2-1.67,6.22,6.22,0,0,0-2.71-.57,6,6,0,0,0-2.63.57,5.49,5.49,0,0,0-2,1.67,8.09,8.09,0,0,0-1.29,2.73,13.94,13.94,0,0,0-.46,3.74V35.2a13.71,13.71,0,0,0,.46,3.75,8.21,8.21,0,0,0,1.31,2.74,5.55,5.55,0,0,0,2,1.68,6,6,0,0,0,2.63.57,6.21,6.21,0,0,0,2.71-.57,5.35,5.35,0,0,0,2-1.68A7.94,7.94,0,0,0,130.45,39a15,15,0,0,0,.42-3.75V33.67Z"/><path class="cls-1" d="M105.4,35.33a15.63,15.63,0,0,1-.67,4.77,10.54,10.54,0,0,1-1.91,3.58,8.17,8.17,0,0,1-3,2.26,9.54,9.54,0,0,1-3.92.78,9.38,9.38,0,0,1-3.85-.78,8.47,8.47,0,0,1-3-2.26,10.53,10.53,0,0,1-2-3.58,15.11,15.11,0,0,1-.7-4.77v-1.5a15.21,15.21,0,0,1,.7-4.77,10.67,10.67,0,0,1,2-3.6,8.41,8.41,0,0,1,3-2.27,9.3,9.3,0,0,1,3.85-.79,9.52,9.52,0,0,1,3.93.79,8.32,8.32,0,0,1,3,2.27,10.45,10.45,0,0,1,1.92,3.6,15.73,15.73,0,0,1,.67,4.77v1.5Zm-3.1-1.53a14.71,14.71,0,0,0-.43-3.74,7.88,7.88,0,0,0-1.26-2.73,5.42,5.42,0,0,0-2-1.67,6.22,6.22,0,0,0-2.71-.57,6,6,0,0,0-2.63.57,5.49,5.49,0,0,0-2,1.67,8.09,8.09,0,0,0-1.29,2.73,13.94,13.94,0,0,0-.46,3.74v1.53a13.71,13.71,0,0,0,.46,3.75,8.21,8.21,0,0,0,1.31,2.74,5.55,5.55,0,0,0,2,1.68,6,6,0,0,0,2.63.57,6.21,6.21,0,0,0,2.71-.57,5.35,5.35,0,0,0,2-1.68,7.94,7.94,0,0,0,1.24-2.74,15,15,0,0,0,.42-3.75V33.8Z"/><path class="cls-1" d="M151.92,37.67a13.25,13.25,0,0,1-.46,3.57,8.75,8.75,0,0,1-1.33,2.83,6,6,0,0,1-5,2.53,7.48,7.48,0,0,1-2.9-.52,5.91,5.91,0,0,1-2.14-1.51V53h-3V28.68h2.75l0.15,2a6,6,0,0,1,2.16-1.69,7,7,0,0,1,2.94-.59A6.38,6.38,0,0,1,148,29a6.14,6.14,0,0,1,2.15,1.83,8.34,8.34,0,0,1,1.32,2.83,14,14,0,0,1,.45,3.67v0.34Zm-3-.34a10.68,10.68,0,0,0-.28-2.48,6.27,6.27,0,0,0-.86-2,4.38,4.38,0,0,0-1.48-1.39,4.22,4.22,0,0,0-2.13-.51,5,5,0,0,0-1.39.18,4.15,4.15,0,0,0-2,1.28,5.78,5.78,0,0,0-.68,1v8.41a5.74,5.74,0,0,0,.68,1,4,4,0,0,0,.89.76,4.29,4.29,0,0,0,1.14.5,5.21,5.21,0,0,0,1.41.18,4.08,4.08,0,0,0,2.11-.52,4.48,4.48,0,0,0,1.47-1.4,6.27,6.27,0,0,0,.86-2.06,10.89,10.89,0,0,0,.28-2.5V37.33Z"/><path class="cls-1" d="M161.9,46.59a8.4,8.4,0,0,1-3.33-.63A7.41,7.41,0,0,1,156,44.19a7.77,7.77,0,0,1-1.63-2.69,9.88,9.88,0,0,1-.57-3.41V37.41a10.73,10.73,0,0,1,.64-3.84,8.62,8.62,0,0,1,1.71-2.85A7.42,7.42,0,0,1,158.65,29a7.06,7.06,0,0,1,2.88-.61,7.42,7.42,0,0,1,3.25.66A6.17,6.17,0,0,1,167,30.82a7.7,7.7,0,0,1,1.31,2.73,13.21,13.21,0,0,1,.42,3.43v1.35H156.85a7.51,7.51,0,0,0,.4,2.28,5.55,5.55,0,0,0,1,1.84,4.84,4.84,0,0,0,3.78,1.69,5.24,5.24,0,0,0,2.7-.65,6.78,6.78,0,0,0,1.93-1.72l1.84,1.43a8,8,0,0,1-1,1.26,6.94,6.94,0,0,1-1.41,1.09,7.36,7.36,0,0,1-1.84.76A9,9,0,0,1,161.9,46.59Zm-0.37-15.77a4.06,4.06,0,0,0-3,1.3,5.2,5.2,0,0,0-1,1.58,8,8,0,0,0-.54,2.16h8.81V35.63a8.3,8.3,0,0,0-.28-1.74,4.74,4.74,0,0,0-.73-1.54,3.78,3.78,0,0,0-1.28-1.11A4,4,0,0,0,161.53,30.82Z"/><path class="cls-1" d="M174,28.68l0.1,2.21A6.81,6.81,0,0,1,176.33,29a6.53,6.53,0,0,1,3-.67,7.28,7.28,0,0,1,2.33.35,4.28,4.28,0,0,1,1.77,1.12,5.19,5.19,0,0,1,1.13,2,9.46,9.46,0,0,1,.4,2.93V46.27h-3V34.71a5.85,5.85,0,0,0-.23-1.75,2.88,2.88,0,0,0-.67-1.18,2.66,2.66,0,0,0-1.11-.67,5,5,0,0,0-1.52-.21,4.34,4.34,0,0,0-2.57.78,5.29,5.29,0,0,0-1.72,2V46.27h-3V28.68H174Z"/><path class="cls-1" d="M208.55,40.28a3.94,3.94,0,0,0-.25-1.46,2.92,2.92,0,0,0-.89-1.16,7.16,7.16,0,0,0-1.73-1,25.41,25.41,0,0,0-2.76-1,23.51,23.51,0,0,1-3.18-1.15,10.5,10.5,0,0,1-2.42-1.48,6,6,0,0,1-1.54-1.91,5.42,5.42,0,0,1-.54-2.46,5.75,5.75,0,0,1,.58-2.56,6.11,6.11,0,0,1,1.63-2A7.78,7.78,0,0,1,200,22.76a10.51,10.51,0,0,1,3.3-.49,9.84,9.84,0,0,1,3.56.6,8,8,0,0,1,2.63,1.59,6.68,6.68,0,0,1,1.62,2.29,6.8,6.8,0,0,1,.55,2.68H208.5a5.2,5.2,0,0,0-.32-1.84,3.86,3.86,0,0,0-1-1.46,4.47,4.47,0,0,0-1.62-1,7,7,0,0,0-2.31-.34,7.25,7.25,0,0,0-2.18.29,4.33,4.33,0,0,0-1.53.8,3.19,3.19,0,0,0-.89,1.21,3.91,3.91,0,0,0-.29,1.53,3,3,0,0,0,.32,1.37,3.47,3.47,0,0,0,1,1.14,7.47,7.47,0,0,0,1.72,1,21.39,21.39,0,0,0,2.51.85,22.59,22.59,0,0,1,3.48,1.26,9.58,9.58,0,0,1,2.41,1.57,5.72,5.72,0,0,1,1.41,2,6.26,6.26,0,0,1,.46,2.47,5.62,5.62,0,0,1-2.25,4.62,7.88,7.88,0,0,1-2.6,1.28,12,12,0,0,1-3.39.45,11.83,11.83,0,0,1-2.18-.2,10.81,10.81,0,0,1-2.09-.61,9.26,9.26,0,0,1-1.85-1,7.13,7.13,0,0,1-1.49-1.4,6.26,6.26,0,0,1-1-1.79,6.38,6.38,0,0,1-.36-2.18h3.14a4.09,4.09,0,0,0,1.76,3.53,5.58,5.58,0,0,0,1.85.84,8.86,8.86,0,0,0,2.2.27,6.14,6.14,0,0,0,3.79-1A3.27,3.27,0,0,0,208.55,40.28Z"/><path class="cls-1" d="M213.29,37.31a10.87,10.87,0,0,1,.56-3.55,8.59,8.59,0,0,1,1.59-2.84A7.3,7.3,0,0,1,218,29a7.82,7.82,0,0,1,3.32-.68,8,8,0,0,1,3.36.68,7.36,7.36,0,0,1,2.53,1.89,8.4,8.4,0,0,1,1.59,2.84,11,11,0,0,1,.55,3.55v0.36a11,11,0,0,1-.55,3.55A8.31,8.31,0,0,1,227.15,44a7.34,7.34,0,0,1-2.52,1.87,8.57,8.57,0,0,1-6.67,0A7.33,7.33,0,0,1,215.45,44a8.43,8.43,0,0,1-1.6-2.83,10.87,10.87,0,0,1-.56-3.55V37.31Zm3,0.36a9.71,9.71,0,0,0,.31,2.49,6.34,6.34,0,0,0,.93,2.06,4.67,4.67,0,0,0,1.56,1.41,4.84,4.84,0,0,0,4.37,0A4.57,4.57,0,0,0,225,42.21a6.59,6.59,0,0,0,.93-2.06,9.49,9.49,0,0,0,.32-2.49V37.31a9.53,9.53,0,0,0-.32-2.48,6.46,6.46,0,0,0-.94-2.06,4.73,4.73,0,0,0-1.57-1.41,4.42,4.42,0,0,0-2.2-.53,4.29,4.29,0,0,0-2.16.53,4.77,4.77,0,0,0-1.55,1.41,6.32,6.32,0,0,0-.93,2.06,9.74,9.74,0,0,0-.31,2.48v0.36Z"/><path class="cls-1" d="M242.8,44.53A5.59,5.59,0,0,1,240.7,46a7.72,7.72,0,0,1-3.06.54,7.17,7.17,0,0,1-2.36-.37,4.57,4.57,0,0,1-1.82-1.15,5.25,5.25,0,0,1-1.18-2,9.54,9.54,0,0,1-.42-3V28.68h3v11.4a5.88,5.88,0,0,0,.28,2,3.18,3.18,0,0,0,.73,1.22,2.44,2.44,0,0,0,1,.62,4.25,4.25,0,0,0,1.2.17,5.48,5.48,0,0,0,3-.7,4.16,4.16,0,0,0,1.63-1.87V28.68h3V46.27h-2.86Z"/><path class="cls-1" d="M257.67,31.37q-0.39-.07-0.72-0.09l-0.76,0a4.37,4.37,0,0,0-2.54.68,4.15,4.15,0,0,0-1.47,1.84V46.27h-3V28.68h2.93l0,2A5.31,5.31,0,0,1,253.85,29a4.64,4.64,0,0,1,2.49-.63,4.44,4.44,0,0,1,.75.07,2.37,2.37,0,0,1,.59.15v2.8Z"/><path class="cls-1" d="M266,44.14a4.54,4.54,0,0,0,1.53-.26,4.35,4.35,0,0,0,1.29-.72,3.72,3.72,0,0,0,.91-1.08,3.37,3.37,0,0,0,.41-1.36H273a5.26,5.26,0,0,1-.64,2.24,6.56,6.56,0,0,1-1.52,1.87,7.49,7.49,0,0,1-2.19,1.28,7.29,7.29,0,0,1-2.64.48,7.9,7.9,0,0,1-3.46-.71A7,7,0,0,1,260.14,44a8.09,8.09,0,0,1-1.46-2.8,11.59,11.59,0,0,1-.48-3.37V37.13a11.59,11.59,0,0,1,.48-3.37,8.08,8.08,0,0,1,1.46-2.8,7,7,0,0,1,2.44-1.91,7.84,7.84,0,0,1,3.45-.71,7.71,7.71,0,0,1,2.8.49A6.74,6.74,0,0,1,271,30.18a6.13,6.13,0,0,1,1.44,2,7,7,0,0,1,.59,2.52h-2.85a4.56,4.56,0,0,0-.38-1.52,4,4,0,0,0-2.13-2.07,4.25,4.25,0,0,0-1.65-.31,4.43,4.43,0,0,0-2.32.55,4.37,4.37,0,0,0-1.48,1.45,6.08,6.08,0,0,0-.79,2,11.42,11.42,0,0,0-.23,2.27v0.68a11.58,11.58,0,0,0,.23,2.3,6.08,6.08,0,0,0,.78,2,4.29,4.29,0,0,0,1.48,1.45A4.51,4.51,0,0,0,266,44.14Z"/><path class="cls-1" d="M282.59,46.59a8.4,8.4,0,0,1-3.33-.63,7.41,7.41,0,0,1-2.54-1.76,7.77,7.77,0,0,1-1.63-2.69,9.88,9.88,0,0,1-.57-3.41V37.41a10.73,10.73,0,0,1,.64-3.84,8.62,8.62,0,0,1,1.71-2.85A7.42,7.42,0,0,1,279.33,29a7.06,7.06,0,0,1,2.88-.61,7.42,7.42,0,0,1,3.25.66,6.17,6.17,0,0,1,2.25,1.81A7.7,7.7,0,0,1,289,33.55a13.21,13.21,0,0,1,.42,3.43v1.35H277.53a7.51,7.51,0,0,0,.4,2.28,5.55,5.55,0,0,0,1,1.84,4.84,4.84,0,0,0,3.78,1.69,5.24,5.24,0,0,0,2.7-.65,6.78,6.78,0,0,0,1.93-1.72l1.84,1.43a8,8,0,0,1-1,1.26,6.94,6.94,0,0,1-1.41,1.09,7.36,7.36,0,0,1-1.84.76A9,9,0,0,1,282.59,46.59Zm-0.37-15.77a4.06,4.06,0,0,0-3,1.3,5.2,5.2,0,0,0-1,1.58,8,8,0,0,0-.54,2.16h8.81V35.63a8.3,8.3,0,0,0-.28-1.74,4.74,4.74,0,0,0-.73-1.54,3.78,3.78,0,0,0-1.28-1.11A4,4,0,0,0,282.21,30.82Z"/></svg>