<svg id="Layer_1" data-name="Layer 1" xmlns="http://www.w3.org/2000/svg" viewBox="0 0 507 75"><defs><style>.cls-1{fill:#fff;}</style></defs><title>507 x 75 px</title><path class="cls-1" d="M60.17,59.25V40.81a0,0,0,0,0,0,0H49.94a0,0,0,0,0,0,0V66.16l-0.07,0A30.52,30.52,0,0,1,43.48,68a0,0,0,0,1,0,0V49.5a0,0,0,0,0,0,0H33.23a0,0,0,0,0,0,0V68.39a0,0,0,0,1,0,0H26.77a0,0,0,0,1,0,0V54.63a0,0,0,0,0,0,0H16.52a0,0,0,0,0,0,0V68.39a0,0,0,0,1,0,0H7.6a0,0,0,0,1,0,0V6.94a0,0,0,0,1,0,0H38A31,31,0,0,1,69.05,39a30.65,30.65,0,0,1-8.84,20.31A0,0,0,0,1,60.17,59.25Z"/><path class="cls-1" d="M79.53,55.25V24.94h8.56a14.35,14.35,0,0,1,5.46,1,11.94,11.94,0,0,1,4.22,2.85,12.86,12.86,0,0,1,2.73,4.5,17.17,17.17,0,0,1,1,5.93V41a17.16,17.16,0,0,1-1,5.93,12.58,12.58,0,0,1-2.75,4.49,11.94,11.94,0,0,1-4.32,2.83,15.56,15.56,0,0,1-5.68,1h-8.2Zm4-27V52h4.21A10.76,10.76,0,0,0,92,51.2,8.18,8.18,0,0,0,95,49a9.5,9.5,0,0,0,1.84-3.46A15.51,15.51,0,0,0,97.5,41V39.16a15.76,15.76,0,0,0-.62-4.63A9.47,9.47,0,0,0,95,31.09a7.79,7.79,0,0,0-3-2.13,10.32,10.32,0,0,0-4-.73H83.53Z"/><path class="cls-1" d="M104.42,43.78a13.93,13.93,0,0,1,.72-4.55,11,11,0,0,1,2-3.63,9.34,9.34,0,0,1,3.22-2.41,10,10,0,0,1,4.25-.87,10.19,10.19,0,0,1,4.3.87,9.42,9.42,0,0,1,3.24,2.41,10.77,10.77,0,0,1,2,3.63,14.13,14.13,0,0,1,.71,4.55v0.46a14.13,14.13,0,0,1-.71,4.55,10.66,10.66,0,0,1-2,3.62A9.4,9.4,0,0,1,119,54.8a11,11,0,0,1-8.54,0,9.39,9.39,0,0,1-3.23-2.39,10.79,10.79,0,0,1-2.05-3.62,13.93,13.93,0,0,1-.72-4.55V43.78Zm3.87,0.46a12.43,12.43,0,0,0,.4,3.19,8.09,8.09,0,0,0,1.2,2.63,6,6,0,0,0,2,1.8,6.19,6.19,0,0,0,5.59,0,5.85,5.85,0,0,0,2-1.8,8.4,8.4,0,0,0,1.2-2.63,12.13,12.13,0,0,0,.41-3.19V43.78a12.17,12.17,0,0,0-.41-3.18A8.26,8.26,0,0,0,119.46,38a6.05,6.05,0,0,0-2-1.81,5.66,5.66,0,0,0-2.81-.68,5.5,5.5,0,0,0-2.77.68,6.12,6.12,0,0,0-2,1.81,8.07,8.07,0,0,0-1.2,2.64,12.47,12.47,0,0,0-.4,3.18v0.46Z"/><path class="cls-1" d="M131.93,32.72l0.1,2.5a8.18,8.18,0,0,1,2.82-2.14,9.07,9.07,0,0,1,3.86-.77,8.31,8.31,0,0,1,3.86.86,5.74,5.74,0,0,1,2.57,2.76,8.54,8.54,0,0,1,2.93-2.62,8.64,8.64,0,0,1,4.26-1,10.05,10.05,0,0,1,3.21.47,5.81,5.81,0,0,1,2.36,1.47,6.43,6.43,0,0,1,1.47,2.54,12,12,0,0,1,.5,3.66v14.8H156V40.43a6.92,6.92,0,0,0-.34-2.35,3.68,3.68,0,0,0-1-1.5,3.45,3.45,0,0,0-1.52-.78,8.32,8.32,0,0,0-2-.22,5.52,5.52,0,0,0-2.1.37,4.89,4.89,0,0,0-1.57,1,4.76,4.76,0,0,0-1,1.5A6.07,6.07,0,0,0,146,40.3V55.25h-3.87V40.45a6.47,6.47,0,0,0-.34-2.24,3.86,3.86,0,0,0-1-1.51,3.82,3.82,0,0,0-1.51-.85,6.8,6.8,0,0,0-2-.27,5.19,5.19,0,0,0-5.18,3.23V55.25h-3.85V32.72h3.64Z"/><path class="cls-1" d="M164.25,26.75a2.29,2.29,0,0,1,.57-1.58,2.15,2.15,0,0,1,1.7-.65,2.18,2.18,0,0,1,1.71.65,2.28,2.28,0,0,1,.58,1.58A2.28,2.28,0,1,1,164.25,26.75Zm4.16,28.5h-3.85V32.72h3.85V55.25Z"/><path class="cls-1" d="M176.77,32.72l0.13,2.83a8.71,8.71,0,0,1,2.92-2.38,8.36,8.36,0,0,1,3.83-.86,9.32,9.32,0,0,1,3,.45,5.48,5.48,0,0,1,2.27,1.44,6.64,6.64,0,0,1,1.45,2.54,12.11,12.11,0,0,1,.51,3.76V55.25H187V40.45a7.5,7.5,0,0,0-.29-2.24,3.68,3.68,0,0,0-.86-1.51,3.41,3.41,0,0,0-1.42-.85,6.38,6.38,0,0,0-1.95-.27,5.56,5.56,0,0,0-3.29,1A6.8,6.8,0,0,0,177,39.2V55.25h-3.85V32.72h3.64Z"/><path class="cls-1" d="M195.23,26.75a2.3,2.3,0,0,1,.57-1.58,2.15,2.15,0,0,1,1.7-.65,2.18,2.18,0,0,1,1.71.65,2.27,2.27,0,0,1,.58,1.58,2.2,2.2,0,0,1-.58,1.56,2.23,2.23,0,0,1-1.71.62,2.19,2.19,0,0,1-1.7-.62A2.23,2.23,0,0,1,195.23,26.75Zm4.16,28.5h-3.85V32.72h3.85V55.25Z"/><path class="cls-1" d="M213.14,52.52a5.81,5.81,0,0,0,2-.33,5.57,5.57,0,0,0,1.66-.92,4.77,4.77,0,0,0,1.17-1.38,4.31,4.31,0,0,0,.53-1.74h3.64a6.74,6.74,0,0,1-.82,2.86,8.4,8.4,0,0,1-1.95,2.39,9.59,9.59,0,0,1-2.8,1.64,9.33,9.33,0,0,1-3.38.61,10.11,10.11,0,0,1-4.42-.91,9,9,0,0,1-3.13-2.45,10.36,10.36,0,0,1-1.86-3.58,14.84,14.84,0,0,1-.61-4.31V43.55a14.84,14.84,0,0,1,.61-4.31,10.35,10.35,0,0,1,1.86-3.58,9,9,0,0,1,3.12-2.45,10,10,0,0,1,4.41-.91,9.87,9.87,0,0,1,3.59.62,8.63,8.63,0,0,1,2.79,1.72,7.85,7.85,0,0,1,1.84,2.59,8.93,8.93,0,0,1,.75,3.23h-3.64a5.84,5.84,0,0,0-.49-1.95,5.06,5.06,0,0,0-2.73-2.65,5.44,5.44,0,0,0-2.11-.4,5.67,5.67,0,0,0-3,.71A5.6,5.6,0,0,0,208.26,38a7.79,7.79,0,0,0-1,2.6,14.63,14.63,0,0,0-.29,2.91v0.87a14.83,14.83,0,0,0,.29,2.95,7.79,7.79,0,0,0,1,2.59,5.49,5.49,0,0,0,1.89,1.85A5.77,5.77,0,0,0,213.14,52.52Z"/><path class="cls-1" d="M238.88,55.25a4.19,4.19,0,0,1-.33-1.05q-0.12-.63-0.21-1.32a10.23,10.23,0,0,1-1.22,1.07,8.64,8.64,0,0,1-1.48.9,8.33,8.33,0,0,1-1.74.6,8.66,8.66,0,0,1-2,.22,9,9,0,0,1-3.13-.52,7.32,7.32,0,0,1-2.39-1.42,6.23,6.23,0,0,1-1.53-2.11,6.35,6.35,0,0,1-.54-2.61,6.92,6.92,0,0,1,.71-3.2,6.36,6.36,0,0,1,2-2.32,9.55,9.55,0,0,1,3.2-1.42,16.94,16.94,0,0,1,4.19-.48h3.83V39.82a4.33,4.33,0,0,0-1.21-3.22,4.85,4.85,0,0,0-3.56-1.2,6.35,6.35,0,0,0-2,.29,5.07,5.07,0,0,0-1.53.78,3.66,3.66,0,0,0-1,1.13,2.79,2.79,0,0,0-.35,1.35h-3.87a5,5,0,0,1,.64-2.39,7,7,0,0,1,1.8-2.13A9.52,9.52,0,0,1,230,32.9a10.9,10.9,0,0,1,3.7-.59,11.65,11.65,0,0,1,3.38.47,7.22,7.22,0,0,1,2.66,1.42,6.55,6.55,0,0,1,1.73,2.36,8.14,8.14,0,0,1,.63,3.31V50.34a15.42,15.42,0,0,0,.2,2.4,9.07,9.07,0,0,0,.59,2.18v0.33h-4Zm-6.39-2.94a6.44,6.44,0,0,0,2-.29,7.35,7.35,0,0,0,1.67-.76,6.18,6.18,0,0,0,1.3-1.07,5.25,5.25,0,0,0,.86-1.25V44.32h-3.21a10.33,10.33,0,0,0-5.1,1,3.36,3.36,0,0,0-1.79,3.11,4.22,4.22,0,0,0,.27,1.52,3.18,3.18,0,0,0,.82,1.22,4.08,4.08,0,0,0,1.35.81A5.27,5.27,0,0,0,232.49,52.31Z"/><path class="cls-1" d="M250.36,32.72l0.13,2.83a8.72,8.72,0,0,1,2.92-2.38,8.36,8.36,0,0,1,3.83-.86,9.32,9.32,0,0,1,3,.45,5.48,5.48,0,0,1,2.27,1.44,6.64,6.64,0,0,1,1.45,2.54,12.11,12.11,0,0,1,.51,3.76V55.25h-3.85V40.45a7.5,7.5,0,0,0-.29-2.24,3.68,3.68,0,0,0-.86-1.51,3.41,3.41,0,0,0-1.42-.85,6.38,6.38,0,0,0-1.95-.27,5.56,5.56,0,0,0-3.29,1,6.78,6.78,0,0,0-2.21,2.62V55.25h-3.85V32.72h3.64Z"/><path class="cls-1" d="M301.82,41.07a20,20,0,0,1-.86,6.11,13.5,13.5,0,0,1-2.45,4.59,10.46,10.46,0,0,1-3.83,2.89,12.21,12.21,0,0,1-5,1,12,12,0,0,1-4.93-1,10.85,10.85,0,0,1-3.87-2.89,13.49,13.49,0,0,1-2.52-4.59,19.35,19.35,0,0,1-.9-6.11V39.16a19.48,19.48,0,0,1,.9-6.11,13.66,13.66,0,0,1,2.5-4.61,10.77,10.77,0,0,1,3.85-2.9,11.91,11.91,0,0,1,4.93-1,12.19,12.19,0,0,1,5,1,10.66,10.66,0,0,1,3.85,2.9A13.38,13.38,0,0,1,301,33a20.15,20.15,0,0,1,.86,6.11v1.92Zm-4-2a18.83,18.83,0,0,0-.55-4.79,10.09,10.09,0,0,0-1.61-3.5,6.94,6.94,0,0,0-2.59-2.14,8,8,0,0,0-3.47-.73,7.7,7.7,0,0,0-3.37.73,7,7,0,0,0-2.59,2.14,10.36,10.36,0,0,0-1.66,3.5,17.85,17.85,0,0,0-.58,4.79v2a17.56,17.56,0,0,0,.59,4.81,10.51,10.51,0,0,0,1.68,3.51,7.11,7.11,0,0,0,2.6,2.15,7.71,7.71,0,0,0,3.37.73,8,8,0,0,0,3.48-.73,6.85,6.85,0,0,0,2.57-2.15,10.17,10.17,0,0,0,1.59-3.51,19.22,19.22,0,0,0,.54-4.81v-2Z"/><path class="cls-1" d="M324.8,44.24a17,17,0,0,1-.58,4.57,11.2,11.2,0,0,1-1.7,3.62,7.66,7.66,0,0,1-6.44,3.24,9.58,9.58,0,0,1-3.72-.67,7.57,7.57,0,0,1-2.74-1.94V63.91h-3.85V32.72h3.52l0.19,2.5a7.64,7.64,0,0,1,2.77-2.17,8.91,8.91,0,0,1,3.77-.75,8.18,8.18,0,0,1,3.76.83,7.86,7.86,0,0,1,2.76,2.34,10.68,10.68,0,0,1,1.7,3.62,18,18,0,0,1,.57,4.7v0.44Zm-3.85-.44a13.67,13.67,0,0,0-.35-3.18,8,8,0,0,0-1.1-2.61,5.61,5.61,0,0,0-1.89-1.78,5.4,5.4,0,0,0-2.73-.66,6.47,6.47,0,0,0-1.78.23,5.31,5.31,0,0,0-2.59,1.63,7.41,7.41,0,0,0-.87,1.24V49.44a7.36,7.36,0,0,0,.87,1.24,5.11,5.11,0,0,0,1.15,1,5.5,5.5,0,0,0,1.46.64,6.67,6.67,0,0,0,1.81.23,5.22,5.22,0,0,0,2.7-.67,5.73,5.73,0,0,0,1.88-1.79,8,8,0,0,0,1.1-2.63,14,14,0,0,0,.35-3.2V43.8Z"/><path class="cls-1" d="M337.59,55.67a10.75,10.75,0,0,1-4.26-.81,9.5,9.5,0,0,1-3.26-2.26A10,10,0,0,1,328,49.15a12.66,12.66,0,0,1-.73-4.37V43.9a13.75,13.75,0,0,1,.82-4.91,11,11,0,0,1,2.2-3.64,9.51,9.51,0,0,1,3.14-2.26,9,9,0,0,1,3.69-.78,9.5,9.5,0,0,1,4.16.84,7.9,7.9,0,0,1,2.88,2.32,9.87,9.87,0,0,1,1.68,3.5,16.91,16.91,0,0,1,.54,4.39v1.73H331.11a9.62,9.62,0,0,0,.51,2.91A7.11,7.11,0,0,0,333,50.36a6.2,6.2,0,0,0,4.84,2.16,6.71,6.71,0,0,0,3.46-.83,8.69,8.69,0,0,0,2.48-2.21l2.35,1.83a10.23,10.23,0,0,1-1.31,1.61,8.89,8.89,0,0,1-1.8,1.39,9.43,9.43,0,0,1-2.36,1A11.48,11.48,0,0,1,337.59,55.67Zm-0.48-20.2a5.19,5.19,0,0,0-3.89,1.67,6.66,6.66,0,0,0-1.28,2,10.24,10.24,0,0,0-.7,2.77h11.28V41.63a10.63,10.63,0,0,0-.36-2.23,6.07,6.07,0,0,0-.94-2A4.84,4.84,0,0,0,339.59,36,5.15,5.15,0,0,0,337.11,35.47Z"/><path class="cls-1" d="M353,32.72l0.13,2.83a8.72,8.72,0,0,1,2.92-2.38,8.36,8.36,0,0,1,3.83-.86,9.32,9.32,0,0,1,3,.45,5.48,5.48,0,0,1,2.27,1.44,6.64,6.64,0,0,1,1.45,2.54,12.11,12.11,0,0,1,.51,3.76V55.25h-3.85V40.45a7.5,7.5,0,0,0-.29-2.24,3.68,3.68,0,0,0-.86-1.51,3.41,3.41,0,0,0-1.42-.85,6.38,6.38,0,0,0-1.95-.27,5.56,5.56,0,0,0-3.29,1,6.78,6.78,0,0,0-2.21,2.62V55.25h-3.85V32.72H353Z"/><path class="cls-1" d="M397.33,47.59a5,5,0,0,0-.32-1.87,3.74,3.74,0,0,0-1.14-1.49A9.17,9.17,0,0,0,393.64,43a32.55,32.55,0,0,0-3.54-1.22A30.1,30.1,0,0,1,386,40.27a13.44,13.44,0,0,1-3.1-1.89,7.65,7.65,0,0,1-2-2.45,6.94,6.94,0,0,1-.69-3.14,7.36,7.36,0,0,1,.74-3.28,7.82,7.82,0,0,1,2.09-2.62,10,10,0,0,1,3.25-1.74,13.47,13.47,0,0,1,4.23-.62,12.61,12.61,0,0,1,4.56.77,10.3,10.3,0,0,1,3.36,2,8.56,8.56,0,0,1,2.07,2.94,8.71,8.71,0,0,1,.71,3.44h-4a6.66,6.66,0,0,0-.41-2.35,5,5,0,0,0-1.24-1.87,5.72,5.72,0,0,0-2.08-1.23,9,9,0,0,0-3-.44,9.28,9.28,0,0,0-2.79.38,5.55,5.55,0,0,0-2,1,4.09,4.09,0,0,0-1.15,1.55,5,5,0,0,0-.38,2,3.78,3.78,0,0,0,.41,1.75A4.44,4.44,0,0,0,386,35.93a9.57,9.57,0,0,0,2.2,1.23,27.4,27.4,0,0,0,3.22,1.08,28.93,28.93,0,0,1,4.46,1.61,12.27,12.27,0,0,1,3.09,2,7.32,7.32,0,0,1,1.81,2.52,8,8,0,0,1,.59,3.16,7.2,7.2,0,0,1-2.88,5.91,10.09,10.09,0,0,1-3.33,1.63,15.37,15.37,0,0,1-4.34.57,15.15,15.15,0,0,1-2.79-.26,13.85,13.85,0,0,1-2.68-.78,11.86,11.86,0,0,1-2.37-1.29,9.13,9.13,0,0,1-1.9-1.79,8,8,0,0,1-1.27-2.29,8.17,8.17,0,0,1-.46-2.79h4A5.24,5.24,0,0,0,385.59,51,7.14,7.14,0,0,0,388,52.05a11.35,11.35,0,0,0,2.82.34,7.86,7.86,0,0,0,4.85-1.29A4.19,4.19,0,0,0,397.33,47.59Z"/><path class="cls-1" d="M403.39,43.78a13.93,13.93,0,0,1,.72-4.55,11,11,0,0,1,2-3.63,9.34,9.34,0,0,1,3.22-2.41,10,10,0,0,1,4.25-.87,10.19,10.19,0,0,1,4.3.87,9.42,9.42,0,0,1,3.24,2.41,10.76,10.76,0,0,1,2,3.63,14.09,14.09,0,0,1,.71,4.55v0.46a14.09,14.09,0,0,1-.71,4.55,10.64,10.64,0,0,1-2,3.62,9.4,9.4,0,0,1-3.23,2.39,11,11,0,0,1-8.54,0,9.39,9.39,0,0,1-3.23-2.39,10.79,10.79,0,0,1-2.05-3.62,13.93,13.93,0,0,1-.72-4.55V43.78Zm3.87,0.46a12.43,12.43,0,0,0,.4,3.19,8.11,8.11,0,0,0,1.2,2.63,6,6,0,0,0,2,1.8,6.19,6.19,0,0,0,5.59,0,5.85,5.85,0,0,0,2-1.8,8.44,8.44,0,0,0,1.2-2.63,12.16,12.16,0,0,0,.41-3.19V43.78a12.2,12.2,0,0,0-.41-3.18A8.27,8.27,0,0,0,418.43,38a6.05,6.05,0,0,0-2-1.81,5.66,5.66,0,0,0-2.81-.68,5.5,5.5,0,0,0-2.77.68,6.11,6.11,0,0,0-2,1.81,8.1,8.1,0,0,0-1.2,2.64,12.47,12.47,0,0,0-.4,3.18v0.46Z"/><path class="cls-1" d="M441.19,53A7.16,7.16,0,0,1,438.5,55a9.89,9.89,0,0,1-3.91.7,9.18,9.18,0,0,1-3-.47,5.85,5.85,0,0,1-2.33-1.48,6.72,6.72,0,0,1-1.51-2.6,12.22,12.22,0,0,1-.53-3.84V32.72H431v14.6a7.54,7.54,0,0,0,.35,2.51,4.08,4.08,0,0,0,.94,1.56,3.13,3.13,0,0,0,1.33.79,5.45,5.45,0,0,0,1.54.22,7,7,0,0,0,3.78-.9,5.33,5.33,0,0,0,2.09-2.39V32.72h3.85V55.25h-3.66Z"/><path class="cls-1" d="M460.23,36.18q-0.5-.08-0.93-0.12t-1,0a5.6,5.6,0,0,0-3.26.87,5.31,5.31,0,0,0-1.88,2.35v16h-3.85V32.72h3.75l0.06,2.6a6.8,6.8,0,0,1,2.19-2.21,5.94,5.94,0,0,1,3.19-.81,5.68,5.68,0,0,1,1,.09,3,3,0,0,1,.75.2v3.58Z"/><path class="cls-1" d="M471,52.52a5.81,5.81,0,0,0,2-.33,5.57,5.57,0,0,0,1.66-.92,4.77,4.77,0,0,0,1.17-1.38,4.31,4.31,0,0,0,.53-1.74h3.64a6.74,6.74,0,0,1-.82,2.86,8.4,8.4,0,0,1-1.95,2.39,9.59,9.59,0,0,1-2.8,1.64,9.33,9.33,0,0,1-3.38.61,10.11,10.11,0,0,1-4.42-.91,9,9,0,0,1-3.13-2.45,10.36,10.36,0,0,1-1.86-3.58,14.84,14.84,0,0,1-.61-4.31V43.55a14.84,14.84,0,0,1,.61-4.31,10.35,10.35,0,0,1,1.86-3.58,9,9,0,0,1,3.12-2.45,10,10,0,0,1,4.41-.91,9.87,9.87,0,0,1,3.59.62,8.63,8.63,0,0,1,2.79,1.72,7.85,7.85,0,0,1,1.84,2.59,8.93,8.93,0,0,1,.75,3.23h-3.64a5.84,5.84,0,0,0-.49-1.95A5.06,5.06,0,0,0,473,35.87a5.44,5.44,0,0,0-2.11-.4,5.67,5.67,0,0,0-3,.71A5.6,5.6,0,0,0,466.07,38a7.79,7.79,0,0,0-1,2.6,14.63,14.63,0,0,0-.29,2.91v0.87a14.83,14.83,0,0,0,.29,2.95,7.79,7.79,0,0,0,1,2.59A5.49,5.49,0,0,0,468,51.81,5.77,5.77,0,0,0,471,52.52Z"/><path class="cls-1" d="M492.14,55.67a10.75,10.75,0,0,1-4.26-.81,9.5,9.5,0,0,1-3.26-2.26,10,10,0,0,1-2.08-3.45,12.66,12.66,0,0,1-.73-4.37V43.9a13.75,13.75,0,0,1,.82-4.91,11,11,0,0,1,2.2-3.64A9.51,9.51,0,0,1,488,33.09a9,9,0,0,1,3.69-.78,9.5,9.5,0,0,1,4.16.84,7.9,7.9,0,0,1,2.88,2.32,9.87,9.87,0,0,1,1.68,3.5,16.91,16.91,0,0,1,.54,4.39v1.73H485.66a9.62,9.62,0,0,0,.51,2.91,7.11,7.11,0,0,0,1.33,2.35,6.2,6.2,0,0,0,4.84,2.16,6.71,6.71,0,0,0,3.46-.83,8.69,8.69,0,0,0,2.48-2.21l2.35,1.83a10.23,10.23,0,0,1-1.31,1.61,8.89,8.89,0,0,1-1.8,1.39,9.43,9.43,0,0,1-2.36,1A11.48,11.48,0,0,1,492.14,55.67Zm-0.48-20.2a5.19,5.19,0,0,0-3.89,1.67,6.66,6.66,0,0,0-1.28,2,10.24,10.24,0,0,0-.7,2.77h11.28V41.63a10.63,10.63,0,0,0-.36-2.23,6.07,6.07,0,0,0-.94-2A4.84,4.84,0,0,0,494.14,36,5.15,5.15,0,0,0,491.66,35.47Z"/></svg>