<svg id="Layer_1" data-name="Layer 1" xmlns="http://www.w3.org/2000/svg" viewBox="0 0 688.67 100"><defs><style>.cls-1{fill:#fff;}</style></defs><title>688 x 100 px</title><path class="cls-1" d="M80.12,79.23V54a0,0,0,0,0,0,0h-14a0,0,0,0,0,0,0V88.69l-0.09,0a41.79,41.79,0,0,1-8.72,2.47,0,0,0,0,1,0,0V65.87a0,0,0,0,0,0,0h-14a0,0,0,0,0,0,0V91.75a0,0,0,0,1,0,0H34.38a0,0,0,0,1,0,0V72.89a0,0,0,0,0,0,0h-14a0,0,0,0,0,0,0V91.75a0,0,0,0,1,0,0H8.14a0,0,0,0,1,0,0V7.59a0,0,0,0,1,0,0H49.72c24,0,43.56,19.88,42.57,43.88A42,42,0,0,1,80.18,79.25,0,0,0,0,1,80.12,79.23Z"/><path class="cls-1" d="M106.64,73.75V32.23h11.72a19.65,19.65,0,0,1,7.47,1.37,16.36,16.36,0,0,1,5.77,3.91,17.61,17.61,0,0,1,3.74,6.16,23.52,23.52,0,0,1,1.33,8.13v2.45a23.5,23.5,0,0,1-1.33,8.13,17.23,17.23,0,0,1-3.76,6.15,16.35,16.35,0,0,1-5.92,3.88,21.32,21.32,0,0,1-7.78,1.35H106.64Zm5.47-37V69.27h5.76a14.74,14.74,0,0,0,5.82-1.07,11.2,11.2,0,0,0,4.19-3,13,13,0,0,0,2.52-4.73,21.24,21.24,0,0,0,.84-6.19V51.71a21.58,21.58,0,0,0-.86-6.34,13,13,0,0,0-2.51-4.7,10.67,10.67,0,0,0-4-2.92,14.13,14.13,0,0,0-5.47-1h-6.24Z"/><path class="cls-1" d="M140.72,58a19.07,19.07,0,0,1,1-6.23,15.06,15.06,0,0,1,2.79-5,12.79,12.79,0,0,1,4.41-3.31,13.72,13.72,0,0,1,5.82-1.2,14,14,0,0,1,5.89,1.2A12.9,12.9,0,0,1,165,46.83a14.75,14.75,0,0,1,2.79,5,19.35,19.35,0,0,1,1,6.23v0.63a19.35,19.35,0,0,1-1,6.23,14.59,14.59,0,0,1-2.79,5,12.87,12.87,0,0,1-4.42,3.28,15,15,0,0,1-11.69,0,12.86,12.86,0,0,1-4.42-3.28,14.78,14.78,0,0,1-2.81-5,19.07,19.07,0,0,1-1-6.23V58Zm5.3,0.63a17,17,0,0,0,.54,4.36,11.08,11.08,0,0,0,1.64,3.61,8.19,8.19,0,0,0,2.74,2.47,8.48,8.48,0,0,0,7.66,0,8,8,0,0,0,2.74-2.47A11.5,11.5,0,0,0,163,63a16.62,16.62,0,0,0,.56-4.36V58a16.67,16.67,0,0,0-.56-4.35,11.31,11.31,0,0,0-1.65-3.62,8.29,8.29,0,0,0-2.75-2.48,7.74,7.74,0,0,0-3.85-.93,7.53,7.53,0,0,0-3.79.93,8.39,8.39,0,0,0-2.72,2.48,11.05,11.05,0,0,0-1.64,3.62A17.08,17.08,0,0,0,146,58v0.63Z"/><path class="cls-1" d="M178.4,42.89l0.14,3.42a11.2,11.2,0,0,1,3.86-2.94,12.43,12.43,0,0,1,5.29-1.06A11.38,11.38,0,0,1,193,43.51a7.86,7.86,0,0,1,3.52,3.78,11.69,11.69,0,0,1,4-3.59,11.83,11.83,0,0,1,5.83-1.37,13.76,13.76,0,0,1,4.39.64A8,8,0,0,1,214,45a8.81,8.81,0,0,1,2,3.48,16.36,16.36,0,0,1,.69,5V73.75h-5.28V53.45a9.47,9.47,0,0,0-.47-3.22,5,5,0,0,0-1.33-2.05,4.73,4.73,0,0,0-2.08-1.07,11.39,11.39,0,0,0-2.71-.3,7.56,7.56,0,0,0-2.88.51,6.7,6.7,0,0,0-2.15,1.38,6.51,6.51,0,0,0-1.43,2.05,8.32,8.32,0,0,0-.67,2.52V73.75h-5.3V53.47a8.86,8.86,0,0,0-.47-3.07,5.29,5.29,0,0,0-1.33-2.07,5.23,5.23,0,0,0-2.07-1.17,9.32,9.32,0,0,0-2.72-.37,7.1,7.1,0,0,0-7.1,4.42V73.75h-5.28V42.89h5Z"/><path class="cls-1" d="M222.66,34.71a3.14,3.14,0,0,1,.78-2.17,2.94,2.94,0,0,1,2.32-.88,3,3,0,0,1,2.34.88,3.12,3.12,0,0,1,.8,2.17A3.12,3.12,0,1,1,222.66,34.71Zm5.7,39h-5.28V42.89h5.28V73.75Z"/><path class="cls-1" d="M239.81,42.89L240,46.77a11.93,11.93,0,0,1,4-3.27,11.45,11.45,0,0,1,5.25-1.18,12.77,12.77,0,0,1,4.08.61,7.5,7.5,0,0,1,3.11,2,9.1,9.1,0,0,1,2,3.48,16.59,16.59,0,0,1,.7,5.15V73.75h-5.28V53.47a10.27,10.27,0,0,0-.4-3.07,5,5,0,0,0-1.18-2.07,4.66,4.66,0,0,0-1.94-1.17,8.73,8.73,0,0,0-2.66-.37,7.62,7.62,0,0,0-4.51,1.37,9.31,9.31,0,0,0-3,3.59v22h-5.28V42.89h5Z"/><path class="cls-1" d="M265.08,34.71a3.15,3.15,0,0,1,.78-2.17,3,3,0,0,1,2.32-.88,3,3,0,0,1,2.34.88,3.11,3.11,0,0,1,.8,2.17,3,3,0,0,1-.8,2.14,3,3,0,0,1-2.34.85,3,3,0,0,1-2.32-.85A3,3,0,0,1,265.08,34.71Zm5.7,39h-5.28V42.89h5.28V73.75Z"/><path class="cls-1" d="M289.62,70a8,8,0,0,0,2.68-.46,7.63,7.63,0,0,0,2.27-1.26,6.53,6.53,0,0,0,1.6-1.9,5.9,5.9,0,0,0,.73-2.38h5a9.23,9.23,0,0,1-1.13,3.92,11.5,11.5,0,0,1-2.66,3.28,13.14,13.14,0,0,1-3.84,2.25,12.78,12.78,0,0,1-4.63.84,13.85,13.85,0,0,1-6.06-1.24,12.31,12.31,0,0,1-4.29-3.35,14.18,14.18,0,0,1-2.55-4.91,20.33,20.33,0,0,1-.84-5.9v-1.2a20.33,20.33,0,0,1,.84-5.9,14.17,14.17,0,0,1,2.55-4.91,12.32,12.32,0,0,1,4.28-3.35,13.75,13.75,0,0,1,6-1.24,13.52,13.52,0,0,1,4.92.86,11.81,11.81,0,0,1,3.82,2.35,10.75,10.75,0,0,1,2.52,3.55,12.23,12.23,0,0,1,1,4.42h-5a8,8,0,0,0-.67-2.67,6.93,6.93,0,0,0-3.74-3.64,7.45,7.45,0,0,0-2.89-.54,7.77,7.77,0,0,0-4.06,1,7.67,7.67,0,0,0-2.59,2.55,10.67,10.67,0,0,0-1.38,3.56,20,20,0,0,0-.4,4v1.2a20.32,20.32,0,0,0,.4,4,10.66,10.66,0,0,0,1.37,3.55A7.52,7.52,0,0,0,285.51,69,7.91,7.91,0,0,0,289.62,70Z"/><path class="cls-1" d="M324.87,73.75a5.73,5.73,0,0,1-.46-1.44q-0.17-.87-0.28-1.81A14,14,0,0,1,322.46,72a11.83,11.83,0,0,1-2,1.23,11.41,11.41,0,0,1-2.38.83,11.86,11.86,0,0,1-2.71.3,12.29,12.29,0,0,1-4.29-.71,10,10,0,0,1-3.28-1.94,8.53,8.53,0,0,1-2.09-2.89,8.7,8.7,0,0,1-.74-3.58,9.47,9.47,0,0,1,1-4.38,8.71,8.71,0,0,1,2.78-3.18,13.08,13.08,0,0,1,4.38-1.94A23.2,23.2,0,0,1,318.8,55H324V52.62a5.92,5.92,0,0,0-1.65-4.41,6.64,6.64,0,0,0-4.88-1.64,8.7,8.7,0,0,0-2.71.4,6.94,6.94,0,0,0-2.1,1.07,5,5,0,0,0-1.35,1.55,3.81,3.81,0,0,0-.48,1.85h-5.3a6.88,6.88,0,0,1,.87-3.28,9.61,9.61,0,0,1,2.47-2.92,13,13,0,0,1,3.86-2.11,14.93,14.93,0,0,1,5.06-.81,16,16,0,0,1,4.63.64,9.89,9.89,0,0,1,3.64,1.94,9,9,0,0,1,2.37,3.24,11.15,11.15,0,0,1,.86,4.53V67a21.12,21.12,0,0,0,.27,3.29,12.43,12.43,0,0,0,.81,3v0.46h-5.53Zm-8.75-4a8.82,8.82,0,0,0,2.68-.4,10.06,10.06,0,0,0,2.28-1,8.46,8.46,0,0,0,1.78-1.47A7.19,7.19,0,0,0,324,65.11V58.78h-4.39a14.15,14.15,0,0,0-7,1.41,4.61,4.61,0,0,0-2.45,4.26,5.78,5.78,0,0,0,.37,2.08,4.35,4.35,0,0,0,1.13,1.67,5.58,5.58,0,0,0,1.85,1.11A7.22,7.22,0,0,0,316.12,69.73Z"/><path class="cls-1" d="M340.59,42.89l0.17,3.88a12,12,0,0,1,4-3.27A11.45,11.45,0,0,1,350,42.32a12.77,12.77,0,0,1,4.08.61,7.5,7.5,0,0,1,3.11,2,9.1,9.1,0,0,1,2,3.48,16.59,16.59,0,0,1,.7,5.15V73.75h-5.28V53.47a10.27,10.27,0,0,0-.4-3.07A5,5,0,0,0,353,48.34a4.66,4.66,0,0,0-1.94-1.17,8.73,8.73,0,0,0-2.66-.37,7.62,7.62,0,0,0-4.51,1.37,9.28,9.28,0,0,0-3,3.59v22H335.6V42.89h5Z"/><path class="cls-1" d="M411.07,54.33a27.41,27.41,0,0,1-1.18,8.37A18.49,18.49,0,0,1,406.53,69a14.33,14.33,0,0,1-5.25,4,16.73,16.73,0,0,1-6.87,1.37,16.45,16.45,0,0,1-6.76-1.37,14.86,14.86,0,0,1-5.3-4,18.48,18.48,0,0,1-3.45-6.29,26.5,26.5,0,0,1-1.23-8.37V51.71a26.68,26.68,0,0,1,1.23-8.37A18.71,18.71,0,0,1,382.33,37a14.75,14.75,0,0,1,5.28-4,16.32,16.32,0,0,1,6.76-1.38A16.69,16.69,0,0,1,401.24,33a14.59,14.59,0,0,1,5.28,4,18.33,18.33,0,0,1,3.37,6.32,27.59,27.59,0,0,1,1.18,8.37v2.62Zm-5.44-2.68a25.79,25.79,0,0,0-.76-6.56,13.82,13.82,0,0,0-2.21-4.79,9.51,9.51,0,0,0-3.55-2.94,10.91,10.91,0,0,0-4.75-1,10.54,10.54,0,0,0-4.62,1,9.64,9.64,0,0,0-3.55,2.94,14.19,14.19,0,0,0-2.27,4.79,24.45,24.45,0,0,0-.8,6.56v2.68a24,24,0,0,0,.81,6.59,14.39,14.39,0,0,0,2.3,4.81,9.73,9.73,0,0,0,3.56,3,10.55,10.55,0,0,0,4.62,1,10.89,10.89,0,0,0,4.76-1,9.37,9.37,0,0,0,3.52-3,13.92,13.92,0,0,0,2.18-4.81,26.33,26.33,0,0,0,.74-6.59V51.65Z"/><path class="cls-1" d="M442.53,58.66a23.24,23.24,0,0,1-.8,6.26,15.34,15.34,0,0,1-2.32,5,10.49,10.49,0,0,1-8.82,4.43,13.12,13.12,0,0,1-5.09-.91,10.36,10.36,0,0,1-3.75-2.65V85.61h-5.28V42.89h4.82l0.26,3.42a10.47,10.47,0,0,1,3.79-3,12.2,12.2,0,0,1,5.16-1,11.2,11.2,0,0,1,5.15,1.14,10.76,10.76,0,0,1,3.78,3.21,14.62,14.62,0,0,1,2.32,5,24.6,24.6,0,0,1,.78,6.43v0.6Zm-5.28-.6a18.72,18.72,0,0,0-.48-4.35,11,11,0,0,0-1.51-3.58,7.68,7.68,0,0,0-2.59-2.44,7.4,7.4,0,0,0-3.74-.9,8.86,8.86,0,0,0-2.44.31,7.28,7.28,0,0,0-3.55,2.24,10.14,10.14,0,0,0-1.2,1.7V65.79a10.07,10.07,0,0,0,1.2,1.7,7,7,0,0,0,1.57,1.34,7.53,7.53,0,0,0,2,.87A9.14,9.14,0,0,0,429,70a7.15,7.15,0,0,0,3.69-.91,7.85,7.85,0,0,0,2.58-2.45A11,11,0,0,0,436.77,63a19.1,19.1,0,0,0,.48-4.38v-0.6Z"/><path class="cls-1" d="M460,74.32a14.73,14.73,0,0,1-5.83-1.11,13,13,0,0,1-4.46-3.09,13.63,13.63,0,0,1-2.85-4.72,17.33,17.33,0,0,1-1-6v-1.2A18.83,18.83,0,0,1,447,51.48a15.11,15.11,0,0,1,3-5,13,13,0,0,1,4.31-3.09,12.38,12.38,0,0,1,5-1.07,13,13,0,0,1,5.7,1.16A10.82,10.82,0,0,1,469,46.66a13.51,13.51,0,0,1,2.3,4.79,23.16,23.16,0,0,1,.74,6v2.37h-20.9a13.18,13.18,0,0,0,.7,4A9.74,9.74,0,0,0,453.7,67a8.49,8.49,0,0,0,6.63,3,9.19,9.19,0,0,0,4.73-1.14,11.9,11.9,0,0,0,3.39-3l3.22,2.51a14,14,0,0,1-1.8,2.21,12.18,12.18,0,0,1-2.47,1.91,12.92,12.92,0,0,1-3.24,1.34A15.72,15.72,0,0,1,460,74.32Zm-0.66-27.66a7.11,7.11,0,0,0-5.33,2.28,9.12,9.12,0,0,0-1.75,2.77,14,14,0,0,0-1,3.79H466.8V55.1a14.55,14.55,0,0,0-.5-3.05A8.31,8.31,0,0,0,465,49.34a6.63,6.63,0,0,0-2.24-1.94A7.06,7.06,0,0,0,459.39,46.66Z"/><path class="cls-1" d="M481.19,42.89l0.17,3.88a12,12,0,0,1,4-3.27,11.45,11.45,0,0,1,5.25-1.18,12.77,12.77,0,0,1,4.08.61,7.5,7.5,0,0,1,3.11,2,9.1,9.1,0,0,1,2,3.48,16.59,16.59,0,0,1,.7,5.15V73.75h-5.28V53.47a10.27,10.27,0,0,0-.4-3.07,5,5,0,0,0-1.18-2.07,4.66,4.66,0,0,0-1.94-1.17A8.73,8.73,0,0,0,489,46.8a7.62,7.62,0,0,0-4.51,1.37,9.28,9.28,0,0,0-3,3.59v22H476.2V42.89h5Z"/><path class="cls-1" d="M541.86,63.25a6.91,6.91,0,0,0-.44-2.57,5.12,5.12,0,0,0-1.57-2,12.55,12.55,0,0,0-3-1.74A44.57,44.57,0,0,0,532,55.24a41.23,41.23,0,0,1-5.57-2,18.41,18.41,0,0,1-4.25-2.59,10.48,10.48,0,0,1-2.69-3.35A9.51,9.51,0,0,1,518.5,43a10.08,10.08,0,0,1,1-4.49,10.72,10.72,0,0,1,2.87-3.59,13.64,13.64,0,0,1,4.45-2.38,18.44,18.44,0,0,1,5.79-.85,17.27,17.27,0,0,1,6.24,1.06,14.1,14.1,0,0,1,4.61,2.79,11.72,11.72,0,0,1,2.84,4,11.93,11.93,0,0,1,1,4.7h-5.5a9.12,9.12,0,0,0-.56-3.22,6.77,6.77,0,0,0-1.7-2.57,7.84,7.84,0,0,0-2.85-1.68,12.27,12.27,0,0,0-4-.6,12.71,12.71,0,0,0-3.82.51,7.6,7.6,0,0,0-2.68,1.41,5.6,5.6,0,0,0-1.57,2.12,6.86,6.86,0,0,0-.51,2.68,5.17,5.17,0,0,0,.56,2.4,6.09,6.09,0,0,0,1.72,2,13.11,13.11,0,0,0,3,1.68,37.52,37.52,0,0,0,4.41,1.48,39.61,39.61,0,0,1,6.1,2.21,16.8,16.8,0,0,1,4.23,2.75,10,10,0,0,1,2.48,3.45,11,11,0,0,1,.81,4.33,9.86,9.86,0,0,1-3.95,8.1,13.81,13.81,0,0,1-4.56,2.24,21.05,21.05,0,0,1-5.94.78,20.75,20.75,0,0,1-3.82-.36,19,19,0,0,1-3.66-1.07,16.25,16.25,0,0,1-3.25-1.77,12.51,12.51,0,0,1-2.61-2.45,11,11,0,0,1-1.74-3.14,11.19,11.19,0,0,1-.63-3.82h5.5a7.17,7.17,0,0,0,3.09,6.19A9.78,9.78,0,0,0,529,69.37a15.55,15.55,0,0,0,3.86.47q4.33,0,6.64-1.77A5.74,5.74,0,0,0,541.86,63.25Z"/><path class="cls-1" d="M550.16,58a19.07,19.07,0,0,1,1-6.23,15.06,15.06,0,0,1,2.8-5,12.79,12.79,0,0,1,4.41-3.31,13.72,13.72,0,0,1,5.82-1.2,14,14,0,0,1,5.89,1.2,12.9,12.9,0,0,1,4.43,3.31,14.73,14.73,0,0,1,2.79,5,19.3,19.3,0,0,1,1,6.23v0.63a19.3,19.3,0,0,1-1,6.23,14.58,14.58,0,0,1-2.79,5,12.87,12.87,0,0,1-4.42,3.28,15,15,0,0,1-11.69,0A12.86,12.86,0,0,1,554,69.86a14.78,14.78,0,0,1-2.81-5,19.07,19.07,0,0,1-1-6.23V58Zm5.3,0.63A17,17,0,0,0,556,63a11.11,11.11,0,0,0,1.64,3.61,8.18,8.18,0,0,0,2.74,2.47,8.48,8.48,0,0,0,7.66,0,8,8,0,0,0,2.74-2.47A11.56,11.56,0,0,0,572.42,63a16.65,16.65,0,0,0,.56-4.36V58a16.71,16.71,0,0,0-.56-4.35,11.33,11.33,0,0,0-1.65-3.62A8.29,8.29,0,0,0,568,47.59a7.75,7.75,0,0,0-3.85-.93,7.53,7.53,0,0,0-3.79.93,8.37,8.37,0,0,0-2.72,2.48A11.09,11.09,0,0,0,556,53.69a17.08,17.08,0,0,0-.54,4.35v0.63Z"/><path class="cls-1" d="M601.93,70.7a9.81,9.81,0,0,1-3.68,2.66,13.54,13.54,0,0,1-5.36,1,12.57,12.57,0,0,1-4.13-.64,8,8,0,0,1-3.19-2,9.2,9.2,0,0,1-2.07-3.56,16.74,16.74,0,0,1-.73-5.26V42.89H588v20a10.32,10.32,0,0,0,.48,3.44,5.58,5.58,0,0,0,1.28,2.14,4.28,4.28,0,0,0,1.83,1.08,7.46,7.46,0,0,0,2.11.3,9.62,9.62,0,0,0,5.17-1.23,7.3,7.3,0,0,0,2.87-3.28V42.89h5.28V73.75h-5Z"/><path class="cls-1" d="M628,47.63q-0.69-.11-1.27-0.16t-1.33,0a7.67,7.67,0,0,0-4.46,1.2,7.28,7.28,0,0,0-2.58,3.22v21.9h-5.28V42.89h5.13l0.09,3.56a9.32,9.32,0,0,1,3-3,8.14,8.14,0,0,1,4.36-1.11,7.78,7.78,0,0,1,1.31.13,4.16,4.16,0,0,1,1,.27v4.9Z"/><path class="cls-1" d="M642.69,70a8,8,0,0,0,2.68-.46,7.63,7.63,0,0,0,2.27-1.26,6.53,6.53,0,0,0,1.6-1.9A5.9,5.9,0,0,0,650,64h5a9.23,9.23,0,0,1-1.13,3.92,11.5,11.5,0,0,1-2.66,3.28,13.14,13.14,0,0,1-3.84,2.25,12.78,12.78,0,0,1-4.63.84,13.85,13.85,0,0,1-6.06-1.24,12.31,12.31,0,0,1-4.29-3.35,14.18,14.18,0,0,1-2.55-4.91,20.33,20.33,0,0,1-.84-5.9v-1.2a20.33,20.33,0,0,1,.84-5.9,14.17,14.17,0,0,1,2.55-4.91,12.32,12.32,0,0,1,4.28-3.35,13.75,13.75,0,0,1,6-1.24,13.52,13.52,0,0,1,4.92.86,11.81,11.81,0,0,1,3.82,2.35,10.75,10.75,0,0,1,2.52,3.55,12.23,12.23,0,0,1,1,4.42h-5a8,8,0,0,0-.67-2.67,6.93,6.93,0,0,0-3.74-3.64,7.45,7.45,0,0,0-2.89-.54,7.77,7.77,0,0,0-4.06,1A7.67,7.67,0,0,0,636,50.18a10.67,10.67,0,0,0-1.38,3.56,20,20,0,0,0-.4,4v1.2a20.32,20.32,0,0,0,.4,4A10.66,10.66,0,0,0,636,66.5,7.52,7.52,0,0,0,638.59,69,7.91,7.91,0,0,0,642.69,70Z"/><path class="cls-1" d="M671.7,74.32a14.73,14.73,0,0,1-5.83-1.11,13,13,0,0,1-4.46-3.09,13.63,13.63,0,0,1-2.85-4.72,17.33,17.33,0,0,1-1-6v-1.2a18.83,18.83,0,0,1,1.13-6.73,15.11,15.11,0,0,1,3-5A13,13,0,0,1,666,43.39a12.38,12.38,0,0,1,5-1.07,13,13,0,0,1,5.7,1.16,10.82,10.82,0,0,1,3.95,3.18,13.51,13.51,0,0,1,2.3,4.79,23.16,23.16,0,0,1,.74,6v2.37h-20.9a13.18,13.18,0,0,0,.7,4A9.74,9.74,0,0,0,665.36,67,8.49,8.49,0,0,0,672,70a9.19,9.19,0,0,0,4.73-1.14,11.9,11.9,0,0,0,3.39-3l3.22,2.51a14,14,0,0,1-1.8,2.21,12.18,12.18,0,0,1-2.47,1.91,12.92,12.92,0,0,1-3.24,1.34A15.72,15.72,0,0,1,671.7,74.32ZM671,46.66a7.11,7.11,0,0,0-5.33,2.28A9.12,9.12,0,0,0,664,51.71a14,14,0,0,0-1,3.79h15.45V55.1A14.55,14.55,0,0,0,678,52a8.31,8.31,0,0,0-1.28-2.71,6.63,6.63,0,0,0-2.24-1.94A7.06,7.06,0,0,0,671,46.66Z"/></svg>